ply
format ascii 1.0
comment VCGLIB generated
element vertex 307
property float x
property float y
property float z
element face 340
property list uchar int vertex_indices
end_header
1.49564 0.507965 -1.15406 
-0.623125 1.08382 -4.55973 
-0.559772 -0.0322072 -3.60394 
-1.38769 0.252946 -0.535636 
1.13175 0.289646 -0.987542 
1.50511 2.34712 -0.0867778 
1.43671 1.18664 -0.794925 
-1.68743 1.70505 1.91045 
1.33257 -0.301083 2.53173 
-1.10677 -0.468558 2.60738 
-0.679542 -1.12703 4.08997 
-1.5268 0.402005 5.72568 
-1.81777 1.41536 4.7632 
-1.77234 1.9538 3.11611 
1.55288 -1.17637 2.60144 
1.55419 -3.4126 3.49229 
1.65835 -3.62805 4.3519 
1.70819 -2.11996 3.12605 
1.54039 -2.52851 4.20896 
1.38589 -4.38255 3.89675 
1.15879 -4.90286 5.1823 
1.33875 -5.31238 5.40125 
1.91383 -4.61962 4.07311 
2.11588 -5.34312 4.68115 
1.7957 -5.41079 5.34276 
-1.87013 -1.09775 3.18252 
-1.74913 -3.44323 4.25138 
-1.09945 -1.67954 3.49895 
-1.24797 -4.18208 4.17123 
-1.52404 -4.40851 4.65549 
-2.11854 -4.84865 4.69144 
-1.88263 -4.94726 4.18112 
-1.44364 -5.26876 5.46075 
-1.09935 -5.18943 5.26084 
-2.02849 -5.40095 4.97123 
-1.44447 -5.44038 4.26541 
-1.94075 -5.0726 5.41683 
0.0282897 0.898118 7.04508 
-1.03036 1.57509 6.17206 
1.00815 2.42001 7.10203 
1.07905 4.09637 6.82381 
1.82757 3.25513 7.27871 
0.314778 2.17931 8.94887 
0.473536 2.67474 8.60414 
0.752954 2.98009 8.1655 
0.540232 3.98683 8.6914 
0.465891 2.4707 8.01134 
-0.864347 4.2559 7.68906 
-0.816789 4.6576 6.95387 
-0.265978 3.72155 8.72875 
-0.633251 2.69269 7.93379 
-0.583004 2.51806 7.65175 
-0.0512916 1.79595 8.86181 
-0.673396 3.88612 8.4703 
-0.318649 2.45646 9.31326 
0.366017 2.92014 7.7139 
0.458746 2.60726 9.48965 
0.255805 2.89649 9.9422 
-0.294746 2.8301 9.8793 
1.14606 5.57753 8.17966 
0.661099 4.81558 7.73518 
-1.11704 5.57762 8.1953 
-1.20346 5.02786 7.30356 
1.47874 -0.917691 -4.29426 
1.31035 -1.99991 -3.32925 
1.74378 -2.675 -4.40288 
1.81487 -3.9768 -5.51792 
1.11206 -4.41323 -5.56344 
1.02807 -5.21806 -4.64944 
1.26213 -4.47274 -5.05244 
2.12136 -5.20309 -4.81779 
1.93147 -4.5875 -5.14299 
1.73768 -4.88151 -4.46595 
1.75617 -5.36548 -4.54124 
-1.6721 1.99587 -3.66157 
-1.50187 -2.55786 -5.46785 
-1.27155 -1.96649 -3.30423 
-1.19256 -3.57158 -5.43603 
-1.5044 -3.58988 -5.71903 
-1.20156 -5.30727 -5.44863 
-1.0236 -5.1143 -4.58057 
-1.33667 -4.26141 -5.09631 
-1.73825 -4.52831 -5.0798 
-2.13585 -5.1707 -4.75735 
-1.80915 -5.04433 -5.48405 
-1.882 -4.31591 -5.38781 
-1.47565 -5.36394 -4.43187 
-0.129951 3.13509 -5.32402 
-0.479859 2.20297 -4.48028 
-0.768623 2.3642 -5.95327 
0.821722 -0.084336 -1.66639 
1.49587 1.92675 -4.29896 
0.580589 2.86931 -3.58839 
-1.41552 2.64895 -3.47424 
-0.670718 2.99306 -1.21648 
-1.6826 1.324 -1.28986 
-1.45592 1.26845 -0.955877 
0.0686244 3.00585 0.906533 
1.76107 0.897701 0.546001 
-1.76915 1.27115 0.558739 
0.964058 -0.893483 4.62412 
0.923567 -0.698804 3.07261 
0.498852 -0.666715 5.50345 
0.594951 0.220959 6.59316 
1.78414 1.87263 3.01314 
1.45404 2.60984 2.12627 
1.34218 3.06268 3.01425 
1.35093 0.170861 5.92766 
0.582349 3.18615 2.36786 
0.00729119 -1.3187 3.91598 
-0.348707 -0.955675 4.97093 
-1.17875 3.05306 2.7077 
-0.791699 0.172663 6.44538 
-1.50548 2.34237 1.46675 
-1.92224 0.507855 3.34474 
-1.63621 0.91108 2.63951 
-0.939985 3.22471 3.1683 
-1.00411 2.76131 1.39407 
1.13465 -1.29655 4.0729 
1.96047 0.183729 4.24391 
1.29566 -3.1386 3.79822 
1.91421 -3.67127 4.10134 
1.38626 -4.315 4.5661 
1.16697 -5.39073 4.4156 
1.84398 -4.52029 4.58399 
2.19329 -4.95093 4.92019 
1.89458 -4.98699 5.38774 
-1.90665 0.236442 4.39496 
-1.86458 -1.70296 3.65959 
-1.37256 -1.14863 2.65875 
-1.63713 -3.9937 3.58655 
-1.87604 -4.03368 3.91156 
-1.88356 -4.17205 4.32716 
-1.17094 -4.98413 4.23381 
0.506499 1.19671 6.99581 
-0.493136 0.922194 6.90295 
1.18281 2.8261 6.7276 
0.139362 2.30438 7.77042 
1.06656 2.09916 6.92887 
1.29187 2.21399 5.55714 
1.28092 3.03995 4.84127 
-1.1367 2.64841 6.81863 
-0.748134 1.86901 7.37304 
1.15309 3.17551 7.67745 
1.65023 2.83079 7.22506 
-0.161901 4.67414 8.15977 
0.288233 3.7815 8.68898 
-1.76394 2.99162 7.27258 
-0.624671 3.05351 8.38505 
-0.266687 3.00857 7.69752 
-0.289366 2.25009 8.82759 
1.25565 4.31859 7.26228 
0.523763 5.07768 7.19841 
-0.66968 4.80135 7.69244 
-0.48208 5.06723 7.20481 
1.58668 0.675218 -4.59944 
1.8767 0.660772 -3.86602 
1.98815 1.07829 -2.29507 
1.87475 0.323936 -1.84638 
1.46847 0.165497 -1.52123 
1.10493 -2.40807 -4.71595 
1.54408 -2.63949 -5.51446 
1.53809 -1.71937 -3.11006 
1.8682 -2.79543 -4.83579 
1.2233 -4.0049 -5.16954 
1.65177 -5.17869 -5.54189 
1.35926 -4.87901 -4.4228 
1.18574 -5.27157 -5.49731 
-0.969202 -0.249248 -2.09087 
-1.17043 2.17825 -4.32092 
-0.918863 1.62299 -4.68899 
-1.62303 -1.49315 -3.90898 
-1.87705 -0.167227 -3.08957 
-1.98754 1.09125 -2.24446 
-1.13444 -2.66917 -4.76786 
-1.45335 -0.950574 -4.3538 
-1.7876 -2.29036 -4.02059 
-1.90672 -2.96239 -4.94108 
-1.14587 -4.4349 -5.62889 
-1.73271 -4.93758 -4.45866 
0.238432 3.08773 -3.59141 
0.249627 2.24558 -4.67793 
-0.587752 2.75708 -5.31895 
-0.800617 2.85166 -6.82241 
-0.155741 2.67937 -10.0867 
0.809415 -0.770478 -0.0647303 
0.728879 -0.219284 -2.32534 
0.638123 0.116447 -3.96644 
1.47673 2.71747 -3.3022 
0.745872 2.97349 -1.19797 
-0.263359 -0.922436 -0.665032 
-1.11407 0.289045 -1.06452 
0.430854 3.18545 -2.421 
-1.25504 2.83652 -2.71577 
-1.38714 2.43658 -0.794472 
-1.83889 1.84744 -1.84106 
0.937049 2.92339 0.0329967 
-0.0526491 3.1114 -0.337154 
-1.55386 1.85754 -0.14357 
-1.45007 -0.438485 1.00612 
0.735296 -0.977087 2.53687 
1.66012 0.683205 2.75761 
1.67888 1.17568 5.33914 
1.09613 2.74149 1.07483 
-0.642183 -1.11487 0.731979 
-0.626737 -1.03373 2.53854 
1.54731 -1.13247 4.13867 
1.85381 -1.11923 2.89608 
1.11353 -1.66557 3.61619 
1.40906 -1.77846 3.03545 
-1.35392 -3.02968 4.11482 
-1.39179 -1.90765 3.05752 
-1.09721 -1.26381 4.07632 
-1.8332 -2.58954 3.37773 
-1.69642 -1.23775 2.73532 
-1.54643 -1.87624 4.10174 
0.413879 4.68074 6.03231 
0.89932 4.09581 6.05221 
0.732112 4.7959 6.99414 
0.451729 4.00337 5.05653 
0.954015 1.48194 6.34076 
-0.872028 4.13165 6.08949 
-0.817463 2.34176 7.26325 
-1.25092 4.31337 7.4029 
1.12429 5.13718 7.36212 
1.2601 1.58628 -4.66223 
1.85152 1.8391 -3.1381 
1.43414 -1.98457 -4.93523 
0.912126 -2.0088 -4.23222 
1.3167 -2.79692 -4.52356 
-1.07512 0.13911 -4.72519 
-1.8596 -0.0362198 -1.99003 
-1.81655 0.717139 -4.00679 
0.573311 2.08777 -5.57814 
0.754387 2.95957 -6.72001 
0.365147 1.66498 -7.28471 
0.781725 2.69097 -8.3746 
-0.409309 3.25191 -7.12209 
-0.573246 1.80499 -6.9856 
-0.542818 1.8114 -8.43803 
-0.0832209 3.03592 -9.10322 
-0.464572 2.18883 -9.43464 
-0.0133376 1.07546 -4.36673 
-0.502392 -0.147071 -2.88494 
1.77022 1.98348 -1.31465 
-0.689573 -0.18771 -2.07662 
0.275159 -0.710504 -1.314 
-0.630082 2.84679 -3.61431 
-0.685394 3.11448 -2.40354 
-1.59231 0.340979 -1.45744 
0.609197 -1.14161 0.515597 
1.41083 0.308242 -0.525006 
1.4746 -0.431341 1.04789 
-0.983068 2.87758 0.0854097 
0.633458 -1.12426 3.81405 
1.60867 2.76988 3.80809 
1.97722 0.392287 3.29241 
-0.310452 -0.276214 6.18674 
1.93422 1.29889 4.34091 
1.62252 2.09935 0.918711 
0.0352894 -1.18693 2.41446 
-1.57314 0.144763 2.80815 
-1.3696 -0.110877 2.32353 
1.8166 -3.80692 3.63252 
1.93664 -1.80725 3.50832 
-1.55206 -1.07451 4.18935 
-1.3246 -3.26385 3.64778 
0.17235 3.31288 3.55459 
1.10535 3.27545 4.01765 
-0.878189 3.49466 4.35709 
-1.56081 2.84155 3.73184 
1.22019 3.29859 5.76213 
0.13116 1.64622 7.80751 
-1.10302 3.36142 6.6154 
-1.23657 3.15364 4.7388 
-0.484062 4.02811 5.1132 
-0.316883 4.82003 6.28835 
-1.10936 3.12387 7.67565 
1.38398 4.7582 7.66909 
1.18098 -0.71676 -4.54989 
1.27858 -1.17115 -2.39672 
0.946965 0.949527 -4.67169 
1.82166 -1.23976 -3.2835 
1.73062 -3.86625 -5.20264 
-0.718275 0.258477 -4.30694 
-1.12777 -0.874834 -4.4967 
-1.31535 -1.2523 -2.54226 
-1.46957 0.722094 -4.66419 
-0.87899 -1.84645 -4.14425 
-1.26475 -2.02408 -4.84378 
-1.38437 -2.90901 -4.59703 
0.403601 3.00598 -5.35363 
0.678385 2.21533 -4.49051 
0.640398 2.49601 -4.68513 
0.887748 2.41048 -6.652 
0.559952 3.17058 -7.10654 
-0.342099 2.03511 -5.51923 
0.471051 1.76599 -8.22573 
0.790715 2.07991 -7.9697 
-0.80801 2.38236 -8.35764 
-0.711883 2.85804 -8.09286 
0.394357 2.77919 -9.70655 
0.378132 2.08508 -9.53667 
1.29882 -3.72293 -5.70577 
-1.29164 2.23712 5.44281 
0.521016 -0.140364 -3.08776 
-0.722715 -0.765934 -0.343061 
3 1 2 3
3 1 3 4
3 1 4 5
3 1 5 6
3 1 6 7
3 1 7 2
3 2 7 8
3 2 8 9
3 2 9 10
3 2 10 3
3 3 10 11
3 3 11 4
3 4 11 12
3 4 12 13
3 4 13 5
3 5 13 14
3 5 14 15
3 5 15 6
3 6 15 16
3 6 16 17
3 6 17 18
3 6 18 19
3 6 19 7
3 7 19 8
3 8 19 20
3 8 20 21
3 8 21 9
3 9 21 22
3 9 22 23
3 9 23 24
3 9 24 10
3 10 24 25
3 10 25 11
3 11 25 26
3 11 26 27
3 11 27 28
3 11 28 29
3 11 29 12
3 12 29 30
3 12 30 31
3 12 31 32
3 12 32 33
3 12 33 13
3 13 33 14
3 14 33 34
3 14 34 35
3 14 35 16
3 14 16 15
3 15 16 17
3 16 35 36
3 16 36 17
3 17 36 18
3 18 36 37
3 18 37 38
3 18 38 19
3 19 38 20
3 20 38 37
3 20 37 39
3 20 39 21
3 21 39 40
3 21 40 22
3 22 40 41
3 22 41 23
3 23 41 42
3 23 42 43
3 23 43 44
3 23 44 24
3 24 44 26
3 24 26 25
3 26 44 45
3 26 45 46
3 26 46 27
3 27 46 47
3 27 47 48
3 27 48 49
3 27 49 50
3 27 50 28
3 28 50 30
3 28 30 29
3 30 50 51
3 30 51 52
3 30 52 53
3 30 53 31
3 31 53 32
3 32 53 54
3 32 54 55
3 32 55 33
3 33 55 56
3 33 56 34
3 34 56 57
3 34 57 58
3 34 58 35
3 35 58 59
3 35 59 60
3 35 60 61
3 35 61 36
3 36 61 62
3 36 62 63
3 36 63 37
3 37 63 64
3 37 64 39
3 39 64 65
3 39 65 66
3 39 66 40
3 40 66 67
3 40 67 41
3 41 67 42
3 42 67 68
3 42 68 43
3 43 68 69
3 43 69 70
3 43 70 71
3 43 71 45
3 43 45 44
3 45 71 72
3 45 72 73
3 45 73 46
3 46 73 47
3 47 73 74
3 47 74 75
3 47 75 76
3 47 76 77
3 47 77 48
3 48 77 78
3 48 78 79
3 48 79 49
3 49 79 80
3 49 80 81
3 49 81 50
3 50 81 51
3 51 81 82
3 51 82 52
3 52 82 83
3 52 83 84
3 52 84 53
3 53 84 85
3 53 85 54
3 54 85 86
3 54 86 87
3 54 87 55
3 55 87 88
3 55 88 56
3 56 88 89
3 56 89 90
3 56 90 57
3 57 90 58
3 58 90 91
3 58 91 92
3 58 92 93
3 58 93 59
3 59 93 94
3 59 94 95
3 59 95 96
3 59 96 60
3 60 96 97
3 60 97 98
3 60 98 99
3 60 99 61
3 61 99 100
3 61 100 101
3 61 101 62
3 62 101 102
3 62 102 63
3 63 102 64
3 64 102 103
3 64 103 104
3 64 104 65
3 65 104 105
3 65 105 66
3 66 105 106
3 66 106 107
3 66 107 108
3 66 108 67
3 67 108 107
3 67 107 109
3 67 109 110
3 67 110 68
3 68 110 111
3 68 111 69
3 69 111 112
3 69 112 70
3 70 112 113
3 70 113 114
3 70 114 72
3 70 72 71
3 72 114 74
3 72 74 73
3 74 114 115
3 74 115 116
3 74 116 75
3 75 116 117
3 75 117 76
3 76 117 118
3 76 118 77
3 77 118  119
3 77 119 120
3 77 120 78
3 78 120 121
3 78 121 122
3 78 122 80
3 78 80 79
3 80 122 123
3 80 123 124
3 80 124 82
3 82 124 125
3 82 125 83
3 83 125 84
3 84 125 126
3 84 126 127
3 84 127 85
3 85 127 128
3 85 128 86
3 86 128 129
3 86 129 87
3 87 129 89
3 87 89 88
3 89 129 130
3 89 130 90
3 90 130 131
3 90 131 91
3 91 131 132
3 91 132 133
3 91 133 134
3 91 134 92
3 92 134 135
3 92 135 93
3 93 135 94
3 94 135 136
3 94 136 137
3 94 137 138
3 94 138 139
3 94 139 95
3 95 139 140
3 95 140 96
3 96 140 141
3 96 141 142
3 96 142 97
3 97 142 143
3 97 143 144
3 97 144 145
3 97 145 98
3 98 145 146
3 98 146 147
3 98 147 148
3 98 148 99
3 99 148 149
3 99 149 100
3 100 149 150
3 100 150 151
3 100 151 103
3 100 103 101
3 101 103 102
3 103 151 152
3 103 152 104
3 104 152 153
3 104 153 154
3 104 154 155
3 104 155 156
3 104 156 105
3 105 156 157
3 105 157 106
3 106 157 107
3 107 157 109
3 109 157 158
3 109 158 159
3 109 159 160
3 109 160 110
3 110 160 111
3 111 160 161
3 111 161 112
3 112 161 162
3 112 162 113
3 113 162 163
3 113 163 164
3 113 164 115
3 113 115 114
3 115 164 165
3 115 165 116
3 116 165 166
3 116 166 167
3 116 167 117
3 117 167 168
3 117 168 118
3 118 168 169
3 118 169 170
3 118 170 119
3 119 170 171
3 119 171 172
3 119 172 120
3 120 172 173
3 120 173 121
3 121 173 122
3 122 173 174
3 122 174 123
3 123 174 175
3 123 175 124
3 124 175 176
3 124 176 125
3 125 176 177
3 125 177 178
3 125 178 126
3 126 178 179
3 126 179 180
3 126 180 181
3 126 181 127
3 127 181 182
3 127 182 128
3 128 182 129
3 129 182 131
3 129 131 130
3 131 182 183
3 131 183 184
3 131 184 132
3 132 184 185
3 132 185 186
3 132 186 133
3 133 186 187
3 133 187 188
3 133 188 189
3 133 189 190
3 133 190 134
3 134 190 191
3 134 191 136
3 134 136 135
3 136 191 192
3 136 192 137
3 137 192 193
3 137 193 194
3 137 194 195
3 137 195 138
3 138 195 140
3 138 140 139
3 140 195 196
3 140 196 141
3 141 196 197
3 141 197 198
3 141 198 142
3 142 198 199
3 142 199 143
3 143 199 200