ply
format ascii 1.0
comment VCGLIB generated
element vertex 689
property float x
property float y
property float z
element face 1355
property list uchar int vertex_indices
end_header
-0.004726 0.201661 -0.575237
0.030168 0.301119 -0.586624
-0.097835 0.259839 -0.577875
-0.102882 0.158471 -0.549065
-0.050183 0.319928 -0.587980
0.098822 0.201248 -0.556802
-0.174719 0.210790 -0.536994
-0.165707 0.314308 -0.555677
0.020738 0.387160 -0.581998
-0.033731 0.091361 -0.537208
-0.080485 0.384581 -0.579062
0.194405 0.248785 -0.522036
0.112080 0.345965 -0.566876
-0.257974 0.247978 -0.494383
-0.022170 0.485010 -0.562445
0.071297 0.070339 -0.520116
-0.189673 -0.008028 -0.463243
-0.134038 0.028894 -0.495103
-0.174571 0.399945 -0.542907
-0.066380 0.003834 -0.506068
-0.121325 0.473732 -0.546498
0.029909 0.001366 -0.505874
0.170385 0.387718 -0.541993
0.101179 0.451840 -0.553406
-0.240705 0.395970 -0.505706
-0.204199 0.485934 -0.503272
0.304562 0.292331 -0.438517
0.185978 0.049656 -0.464008
-0.255430 0.021470 -0.422136
0.117046 -0.010124 -0.481972
0.055822 0.592519 -0.504611
-0.321588 0.223236 -0.419630
-0.067724 0.567925 -0.521488
-0.099785 -0.082733 -0.491293
-0.003610 -0.089192 -0.500330
0.261591 0.174451 -0.450908
0.251498 0.364795 -0.490456
0.210160 0.472926 -0.507734
0.091603 -0.111233 -0.480264
-0.087838 -0.156657 -0.495350
-0.304905 0.341486 -0.452150
0.320393 0.189014 -0.385319
0.111718 0.537127 -0.522307
-0.007175 0.656784 -0.448172
-0.277240 0.444271 -0.464544
-0.169866 0.572277 -0.481168
-0.164289 -0.164310 -0.469929
-0.109851 0.648887 -0.438938
0.034769 -0.222903 -0.506039
-0.364760 0.307870 -0.366131
-0.358240 0.174913 -0.341658
0.256710 0.020976 -0.383789
0.170090 -0.100268 -0.438854
-0.079835 -0.294206 -0.513983
0.357355 0.294814 -0.362751
0.288422 0.422825 -0.449280
-0.342069 0.406977 -0.389820
-0.252407 0.547365 -0.435905
-0.223581 -0.101744 -0.428959
0.170679 0.597200 -0.463305
0.137367 -0.241016 -0.471513
0.019743 -0.319225 -0.526044
0.374080 0.184424 -0.283491
0.103418 0.663997 -0.428033
-0.399955 0.270873 -0.257249
-0.378495 0.118842 -0.220087
-0.312971 0.509116 -0.392710
-0.178898 -0.304401 -0.486708
0.298893 0.495986 -0.413668
0.252122 0.564529 -0.421533
-0.271803 -0.093884 -0.367135
-0.214626 -0.213164 -0.443038
-0.138568 0.710584 -0.335483
0.396476 0.298269 -0.251059
0.341292 0.101227 -0.294094
0.341743 0.412014 -0.386474
-0.053488 0.724197 -0.347263
-0.025194 -0.417916 -0.554580
-0.324261 0.033708 -0.311375
0.381107 0.381147 -0.308335
0.287098 -0.033121 -0.302769
-0.394173 0.412009 -0.270581
-0.362746 0.477304 -0.306743
-0.217742 0.627111 -0.391455
0.393835 0.166479 -0.175466
0.238634 -0.098315 -0.368193
0.224030 0.665558 -0.346368
0.115585 -0.324542 -0.500985
0.062371 0.718620 -0.361077
-0.389409 0.153461 -0.197916
-0.404178 0.325729 -0.153764
-0.263517 -0.208573 -0.381537
-0.143784 -0.400962 -0.528302
0.307312 0.569660 -0.347522
0.226906 -0.232891 -0.380440
0.063458 -0.403456 -0.541166
0.058919 0.760961 -0.263003
-0.398900 0.199613 -0.144913
-0.362657 0.067329 -0.213244
-0.273172 0.606211 -0.351599
-0.226361 -0.389904 -0.482503
0.400891 0.408172 -0.199044
0.356709 0.489643 -0.321216
0.193621 -0.321242 -0.433615
0.144481 -0.404964 -0.505700
-0.038291 -0.566845 -0.616981
-0.403561 0.181430 -0.166620
-0.439863 0.180379 -0.193011
-0.436020 0.151609 -0.222736
-0.316122 -0.034028 -0.266414
-0.333132 0.567373 -0.274845
-0.297154 -0.153818 -0.294827
-0.248674 -0.325348 -0.436606
-0.110604 -0.488585 -0.570583
-0.067647 0.766029 -0.232194
0.397223 0.186520 -0.121633
0.318336 -0.022140 -0.233502
-0.398672 0.176393 -0.072256
-0.401247 0.189948 -0.124794
-0.438607 0.193111 -0.152215
-0.460892 0.160387 -0.200029
-0.448148 0.113720 -0.233233
-0.419719 0.119293 -0.231525
-0.383787 0.099741 -0.211136
-0.347678 0.013217 -0.182624
-0.214470 0.681103 -0.307452
0.392689 0.172524 -0.067739
0.373518 0.093213 -0.209796
0.274824 -0.132754 -0.299966
0.125625 0.729144 -0.317444
0.052820 -0.507767 -0.581339
-0.390031 0.213396 -0.049478
-0.465492 0.178766 -0.161461
-0.461106 0.123857 -0.200994
-0.375081 0.505438 -0.190766
-0.372401 0.048064 -0.196695
-0.194976 -0.484042 -0.538270
0.384596 0.134355 -0.203489
0.307529 -0.085434 -0.217867
-0.442138 0.185532 -0.092593
-0.460488 0.178511 -0.116192
-0.440057 0.145861 -0.172186
-0.435632 0.106842 -0.190111
-0.452447 0.062972 -0.215043
-0.423234 0.064092 -0.242958
-0.392844 0.029754 -0.218457
-0.357924 -0.005465 -0.158933
-0.299934 -0.294524 -0.319180
-0.289761 -0.442398 -0.430453
-0.161443 0.735088 -0.243500
0.439042 0.157654 -0.203880
0.446740 0.177906 -0.167864
0.361089 0.028088 -0.188310
0.350893 0.030768 -0.197178
0.377713 0.481661 -0.249903
0.267509 0.652475 -0.294472
0.223616 -0.437925 -0.429720
0.118495 -0.466746 -0.540373
-0.367487 0.106131 0.150439
-0.445917 0.153954 -0.126744
-0.461361 0.100818 -0.153320
-0.429214 0.050697 -0.187327
-0.418770 0.019389 -0.227842
-0.333134 -0.041718 -0.136674
-0.276871 0.639451 -0.280771
-0.128864 -0.588233 -0.615053
0.387731 0.210445 -0.001476
0.385049 0.123300 -0.027682
0.423247 0.188971 -0.104111
0.445036 0.187098 -0.130558
0.459146 0.138086 -0.198835
0.438763 0.116543 -0.230093
0.407630 0.005893 -0.221731
0.336921 0.580604 -0.271819
0.163288 0.746450 -0.228215
0.186383 -0.530145 -0.522386
0.033736 0.780767 -0.139118
-0.429077 0.159007 -0.060141
-0.396726 0.143430 -0.041459
-0.450574 0.070763 -0.127879
-0.457914 0.058143 -0.163179
-0.433018 -0.010300 -0.184348
-0.404491 -0.025303 -0.198342
-0.402781 0.430117 -0.151702
-0.311127 -0.200713 -0.195741
-0.296224 0.643808 -0.207103
-0.292984 -0.354992 -0.369824
-0.277436 -0.511339 -0.491518
-0.164274 0.748149 -0.149953
-0.070742 0.774186 -0.067276
0.439110 0.177418 -0.084983
0.457535 0.164643 -0.143461
0.437686 0.134806 -0.165286
0.439185 0.094535 -0.191595
0.457392 0.101933 -0.213330
0.362287 0.556568 -0.199012
0.246797 -0.371416 -0.356581
-0.416025 0.118991 -0.056315
-0.397149 0.132036 -0.094168
-0.416280 0.117764 -0.109349
-0.428541 -0.016138 -0.154911
-0.236356 0.697343 -0.221905
0.415042 0.139396 -0.049966
0.380324 0.487621 -0.080245
0.446384 0.158991 -0.116150
0.428930 0.141297 -0.130490
0.452709 0.081500 -0.160980
0.442811 0.032222 -0.216891
0.432258 0.075296 -0.236184
0.395686 -0.042992 -0.186338
0.278647 -0.224686 -0.277942
0.241905 0.699529 -0.217806
0.241923 -0.515288 -0.453200
0.094211 0.770200 -0.162682
0.069670 -0.621567 -0.633883
-0.390775 0.109618 -0.030429
-0.388922 0.085072 -0.091792
-0.404826 0.093213 -0.096817
-0.449605 0.025715 -0.136218
-0.340445 -0.069385 -0.088514
0.423780 0.144959 -0.075359
0.386555 0.127057 -0.106147
0.323409 -0.048167 -0.165271
0.155743 -0.602870 -0.591314
-0.389837 0.066130 -0.058932
-0.383219 0.452599 0.006209
-0.381120 -0.080116 -0.124703
-0.376653 0.521508 -0.048553
-0.316484 -0.124894 -0.119618
-0.262432 0.691510 -0.098039
0.374024 0.116528 -0.085773
0.418312 0.077848 -0.127849
0.444738 0.039541 -0.150104
0.447989 0.039615 -0.177055
0.427070 -0.006070 -0.171272
0.426066 -0.019662 -0.190676
0.355395 -0.032595 -0.146262
0.335714 -0.059423 -0.120927
0.301115 -0.104593 -0.094509
0.275888 -0.385138 -0.269065
0.309603 0.643712 -0.190920
0.001832 0.763269 0.058825
-0.395593 0.023423 -0.060718
-0.390142 0.055611 -0.117081
-0.420131 -0.017066 -0.111571
-0.411482 -0.071736 -0.120673
-0.343597 0.591638 -0.131059
-0.237782 -0.592092 -0.568643
0.385126 0.137104 0.154844
0.388188 0.114707 0.066277
0.409537 0.104358 -0.060183
0.379481 0.075550 -0.021578
0.395953 0.080799 -0.063207
0.369883 0.087975 -0.091431
0.384181 -0.083279 -0.136183
0.342276 -0.092949 -0.079435
0.190029 0.738214 -0.125579
-0.372869 0.027844 -0.081871
-0.371079 0.041483 -0.101944
-0.317636 0.627043 0.009898
-0.351232 -0.096914 -0.036433
0.361595 0.376689 0.167205
0.387493 0.053127 -0.049991
0.370862 0.047061 -0.136427
0.436982 0.003266 -0.150154
0.422290 -0.012943 -0.133738
0.409996 -0.068923 -0.137033
0.292965 -0.253679 -0.195216
0.270779 -0.627364 -0.523553
-0.355396 0.266585 0.174232
-0.366324 -0.004053 -0.009061
-0.383796 -0.009647 -0.032785
-0.371383 -0.003952 -0.086754
-0.380473 0.013801 -0.112865
-0.409818 -0.057433 -0.097316
-0.315106 -0.624365 -0.533093
-0.081803 -0.687189 -0.673024
0.339243 0.278176 0.262390
0.359363 0.047443 -0.103805
0.364366 0.048101 -0.079566
0.389502 0.020196 -0.076583
0.378204 0.008679 -0.127854
0.347823 0.586129 -0.070367
0.315851 -0.097206 -0.064279
0.293002 -0.136241 -0.061858
0.289658 -0.176528 -0.105379
0.265242 -0.463542 -0.357873
0.295161 -0.563955 -0.416584
0.119948 0.757351 -0.008035
-0.410720 -0.022368 -0.055971
-0.410485 -0.087515 -0.076746
-0.379902 -0.102487 -0.080991
-0.295870 -0.215669 -0.084615
-0.310828 -0.310154 -0.161696
-0.318015 -0.369754 -0.235413
-0.335342 -0.488356 -0.341843
-0.361673 -0.608834 -0.470528
-0.180614 0.736170 0.000992
-0.195289 -0.691194 -0.647975
0.382381 0.057968 0.129019
0.370868 -0.020850 -0.034960
0.390744 0.008000 -0.062688
0.339540 0.024351 -0.100495
0.351875 -0.009710 -0.107054
0.408247 -0.024820 -0.108216
0.382291 -0.108850 -0.091718
0.283539 0.672112 -0.116484
-0.359519 0.427495 0.145116
-0.384963 -0.053124 -0.033206
-0.395302 -0.073705 -0.037179
-0.392403 -0.101722 -0.042956
-0.358137 -0.071052 -0.008210
-0.326138 -0.442463 -0.294245
-0.337225 -0.525710 -0.404466
-0.388645 -0.603457 -0.403535
-0.086594 0.750887 0.092261
0.362635 -0.027102 -0.072619
0.399296 -0.085121 -0.093318
0.347328 -0.110575 -0.045839
0.305055 0.638703 -0.035189
0.280683 -0.242529 -0.032505
0.286503 -0.339463 -0.147743
0.288008 -0.461848 -0.252984
0.168625 0.729892 0.038382
-0.331584 0.208433 0.249499
-0.322646 -0.448919 -0.216467
0.354436 0.509843 0.062180
0.348607 -0.053156 -0.014185
0.376129 -0.044998 -0.046289
0.347684 -0.020107 -0.072989
0.399291 -0.032325 -0.064054
0.381614 -0.106557 -0.052020
0.332564 -0.093852 -0.015449
0.300603 -0.526235 -0.327613
-0.278611 -0.279377 -0.054694
-0.374223 -0.577755 -0.325733
-0.247935 0.686818 0.052440
-0.141334 -0.729806 -0.668885
-0.045118 0.730242 0.178122
0.357673 0.155589 0.241719
0.340617 -0.112671 0.095329
0.251980 0.673975 0.084459
0.048246 -0.717041 -0.684130
-0.345668 0.548209 0.104956
-0.320143 -0.255961 0.059255
-0.369496 -0.695454 -0.550673
-0.285499 -0.689089 -0.602404
0.367391 0.065653 0.200412
0.322311 0.585885 0.105444
0.382184 -0.701124 -0.514715
0.172900 -0.696912 -0.650613
0.059709 0.738644 0.145541
-0.340851 -0.160516 0.087596
-0.289929 -0.328937 -0.087464
-0.340827 -0.508120 -0.273511
-0.178184 0.699429 0.172857
-0.436259 -0.705979 -0.493171
-0.281103 -0.732112 -0.615853
0.319906 0.204363 0.293060
0.319071 -0.231861 0.045175
0.267041 -0.285030 -0.068152
0.285767 -0.433975 -0.189297
0.355713 -0.614416 -0.357798
0.360107 -0.646254 -0.443386
0.293700 -0.707208 -0.591952
0.196165 -0.736340 -0.640730
-0.298584 0.168953 0.282839
-0.331642 0.086574 0.245295
-0.335618 0.355975 0.237622
-0.359173 -0.012778 0.139787
-0.319997 0.475924 0.247721
-0.333695 -0.538053 -0.188050
0.315824 0.117286 0.300597
0.337625 0.484315 0.180759
0.306104 -0.524852 -0.253964
-0.271520 -0.296036 0.003837
-0.308405 -0.463275 -0.137753
-0.276572 0.626268 0.181779
-0.427191 -0.727266 -0.499987
0.288090 0.167535 0.315319
0.336359 -0.073010 0.172406
0.258933 -0.355525 -0.079992
0.145541 0.710382 0.162672
-0.277495 0.248285 0.363191
-0.291493 0.304946 0.317586
-0.277745 0.409164 0.339903
-0.326237 -0.056361 0.217039
-0.297338 -0.195316 0.191677
-0.236472 -0.363684 0.005429
-0.363510 -0.583810 -0.236288
-0.471185 -0.695257 -0.421563
0.037717 0.709868 0.225367
-0.078399 0.689376 0.255358
0.268903 0.237130 0.388389
0.314869 0.010399 0.295024
0.319499 0.434055 0.282558
0.237155 -0.350111 -0.023746
0.269351 -0.447888 -0.114989
0.292542 -0.513858 -0.173671
0.350826 -0.610190 -0.266486
0.441524 -0.704775 -0.450273
-0.254787 0.179913 0.327770
-0.308283 0.565468 0.193470
-0.244518 -0.405251 -0.026678
0.249820 0.621746 0.215607
0.113203 0.666682 0.277760
-0.265301 0.150950 0.298729
-0.273236 0.072037 0.326305
-0.255543 0.557013 0.295412
-0.284362 -0.331465 0.142654
-0.269260 -0.480802 -0.055651
-0.408622 -0.648934 -0.237266
-0.434375 -0.649594 -0.328942
-0.197343 0.640417 0.261870
0.250418 0.184890 0.370770
0.272604 0.288727 0.371661
0.296423 0.357578 0.337955
0.263855 0.130523 0.337583
0.283489 -0.162756 0.237935
0.306408 -0.282307 0.118033
0.288952 -0.313127 0.080744
0.183823 -0.442644 0.004028
-0.233897 0.257265 0.412463
-0.223515 0.209739 0.373693
-0.243746 0.164070 0.319841
-0.303508 0.007910 0.295157
-0.275021 -0.340822 0.088286
-0.224541 -0.374325 0.055556
-0.298920 -0.575613 -0.094710
-0.483026 -0.731943 -0.406982
0.021001 0.640651 0.329537
-0.106373 0.628571 0.322994
0.225810 0.192602 0.407904
0.251631 0.169940 0.346738
0.283006 0.551935 0.250900
0.324814 -0.606690 -0.182196
0.384142 -0.746330 -0.517703
-0.223222 0.188006 0.381618
-0.246233 0.316383 0.375296
-0.344015 -0.630753 -0.146728
0.240421 0.210201 0.392879
0.220608 0.224541 0.407936
0.247878 -0.343438 0.050615
0.214481 -0.514122 -0.045385
0.263767 -0.539918 -0.106936
-0.195420 0.218857 0.393925
-0.217406 0.179493 0.361736
-0.201757 0.157160 0.366221
-0.237500 0.130125 0.329097
-0.233447 -0.204710 0.291421
-0.258930 -0.301848 0.226216
-0.487498 -0.701577 -0.349773
0.235042 0.265115 0.425832
0.234294 0.145240 0.371215
0.219036 0.324806 0.414947
0.273855 0.030917 0.348984
0.247411 0.429730 0.376268
0.274330 -0.344593 0.159854
0.411367 -0.663907 -0.311314
0.463961 -0.681411 -0.337459
-0.176172 0.201683 0.406652
-0.198189 0.188935 0.381432
-0.198686 0.142576 0.378497
-0.234882 0.144948 0.342529
-0.239325 -0.643077 -0.016186
0.188973 0.202797 0.424437
0.217632 0.185532 0.389260
0.207934 0.161995 0.389435
0.225527 0.109665 0.365632
0.263180 -0.055029 0.340465
0.260408 0.502338 0.325637
0.280371 -0.282466 0.195264
0.164560 -0.431160 0.077119
0.282844 -0.625548 -0.104497
-0.158266 0.244013 0.434648
-0.152002 0.224466 0.397449
-0.181593 0.268368 0.446860
-0.140801 0.202462 0.404210
-0.158771 0.201661 0.392864
-0.208106 0.116485 0.354317
-0.203373 0.476741 0.383581
-0.193662 -0.437730 0.017822
-0.373427 -0.693017 -0.127259
-0.464277 -0.695185 -0.253263
0.140919 0.205259 0.415748
0.171767 0.227805 0.418307
0.196897 0.249225 0.436802
0.180984 0.194815 0.403366
0.206044 0.134466 0.387811
0.226263 -0.383698 0.104792
0.452109 -0.725469 -0.421263
-0.108973 0.190924 0.390831
-0.087072 0.172981 0.364135
-0.161605 0.155292 0.383082
-0.163493 0.108212 0.369305
-0.188102 0.335367 0.421894
-0.224717 0.001419 0.378024
-0.477942 -0.735557 -0.289583
-0.055628 0.568901 0.388825
0.142004 0.192326 0.394206
0.159682 0.271229 0.466746
0.195421 -0.004637 0.395326
0.247743 -0.148373 0.302916
0.252394 -0.261337 0.258108
0.236057 -0.604450 -0.062610
0.380338 -0.700624 -0.160916
-0.115729 0.239672 0.439743
-0.088916 0.205801 0.372531
-0.121789 0.221739 0.387657
-0.087495 0.176229 0.375631
-0.119116 0.148589 0.380381
-0.160212 0.149290 0.389584
-0.155838 0.551170 0.372605
-0.235011 -0.388758 0.162826
-0.159167 -0.430699 0.113272
-0.214314 -0.484991 -0.004511
-0.296516 -0.674041 -0.062621
-0.428895 -0.727155 -0.188318
0.080368 0.200647 0.384128
0.143881 0.206480 0.411417
0.111023 0.176632 0.371130
0.162735 0.248821 0.452045
0.167379 0.163943 0.394344
0.112152 0.374953 0.446673
0.183247 0.109692 0.377239
0.170786 0.152150 0.399094
0.201752 0.590189 0.313616
0.436018 -0.723234 -0.236686
0.461321 -0.728807 -0.339328
0.069612 0.539170 0.407623
0.120720 0.595130 0.350957
-0.083197 0.229896 0.444822
-0.073639 0.214165 0.402650
-0.105091 0.263778 0.465409
-0.060410 0.192442 0.377255
-0.086541 0.191248 0.360468
-0.127922 0.110191 0.373598
-0.167913 -0.151504 0.364767
-0.100635 -0.502080 0.076323
0.111114 0.240839 0.450225
0.113835 0.212201 0.386659
0.131525 0.123507 0.380800
0.096404 0.163821 0.381087
0.171881 0.519772 0.382403
0.204007 -0.166492 0.337530
0.132926 -0.445106 0.159785
0.164032 -0.573765 0.002707
0.272712 -0.686475 -0.057553
-0.046692 0.195494 0.435894
-0.077520 0.134387 0.371619
-0.178636 -0.317266 0.328991
-0.215042 -0.405363 0.227415
-0.149875 -0.550160 0.032242
-0.274078 -0.725957 -0.028999
0.076398 0.217302 0.439732
0.048027 0.215741 0.459380
0.065849 0.196275 0.406243
0.100373 0.182757 0.382170
0.094188 0.141493 0.380975
0.168112 -0.224447 0.364443
0.216496 -0.380275 0.258914
0.191346 -0.419421 0.222357
-0.043076 0.181186 0.397109
-0.103001 0.309919 0.462076
-0.114181 0.380027 0.439987
-0.047528 0.159432 0.384143
-0.112569 0.080423 0.392609
-0.028828 0.479766 0.434844
0.094652 0.250684 0.464979
0.070559 0.172859 0.384616
0.133038 -0.002742 0.415573
0.149156 -0.117877 0.389753
0.112602 -0.474267 0.100689
-0.063834 0.115238 0.408180
-0.124287 0.484872 0.415037
-0.112072 -0.042923 0.420244
-0.153468 -0.217866 0.375339
0.052207 0.186600 0.436601
0.062240 0.149067 0.414135
0.039680 0.273829 0.477933
0.160450 0.434745 0.419299
0.085417 0.024606 0.438878
0.184766 -0.338143 0.329782
0.181724 -0.661944 0.000929
0.338524 -0.729405 -0.112789
-0.015542 0.209463 0.458838
-0.019319 0.178076 0.454220
-0.035660 0.153795 0.435788
-0.125854 -0.284440 0.381543
-0.152058 -0.442435 0.288704
0.057699 0.083028 0.450108
0.115534 -0.517851 0.059993
-0.095630 0.034695 0.424574
0.022998 0.179690 0.460833
0.031702 0.154008 0.472849
-0.003611 0.117977 0.508933
-0.057572 0.053854 0.452060
-0.110904 -0.199408 0.428820
-0.107132 -0.215706 0.391584
-0.121216 -0.233671 0.399424
-0.167117 -0.402805 0.323068
-0.089068 -0.455863 0.187213
-0.078607 -0.619819 0.055588
-0.176148 -0.726144 0.027736
0.149479 -0.205368 0.400517
-0.026410 0.075418 0.525423
-0.015021 0.358422 0.451997
-0.081203 -0.007248 0.442333
-0.078430 -0.474795 0.133005
0.136406 -0.246865 0.401377
0.117061 -0.634087 0.036704
0.220934 -0.725080 -0.009829
-0.045871 -0.088327 0.463864
-0.033136 -0.142338 0.497825
-0.011447 -0.516053 0.113549
0.040840 0.069543 0.509421
0.091118 -0.026020 0.444227
0.109124 -0.452220 0.357613
-0.079789 -0.063101 0.440178
-0.070731 -0.196207 0.467240
-0.066262 -0.467363 0.339032
0.087024 -0.066673 0.445156
0.131534 -0.209841 0.393564
0.109128 -0.316092 0.401042
0.154516 -0.403211 0.343756
0.101621 -0.459696 0.285700
0.046898 -0.463143 0.218234
0.054560 -0.480995 0.139628
0.058931 -0.527631 0.098630
0.059057 -0.630240 0.069381
-0.079512 -0.075064 0.483294
-0.094592 -0.059216 0.485247
-0.064555 -0.211226 0.446472
-0.104255 -0.388038 0.401143
-0.003654 -0.478294 0.158941
0.011887 0.043235 0.561305
0.103580 -0.058983 0.480645
0.060051 -0.119077 0.468911
0.082609 -0.207368 0.446828
0.093131 -0.235104 0.462017
-0.012005 -0.084808 0.512568
-0.032779 -0.039813 0.461019
-0.032391 -0.217919 0.486584
-0.080982 -0.232700 0.451551
-0.058952 -0.300776 0.431288
0.067270 -0.078333 0.457214
0.074805 -0.188215 0.488399
0.087826 -0.419206 0.417006
0.013601 -0.587062 0.095015
-0.036060 0.002427 0.571033
-0.056653 -0.051494 0.524743
-0.014998 -0.187540 0.506300
-0.032293 -0.216667 0.461799
-0.104980 -0.726147 0.049161
0.040511 0.011237 0.559389
0.070652 -0.026773 0.524038
0.083555 -0.079411 0.474792
0.033925 -0.065432 0.468269
0.035473 -0.129962 0.498515
0.021016 -0.079989 0.513911
0.054837 -0.207135 0.463588
0.069640 -0.261056 0.475407
-0.028583 -0.070282 0.540346
-0.054275 -0.241955 0.474871
-0.028416 -0.462366 0.239994
0.002571 -0.676385 0.066075
-0.028342 -0.726031 0.057605
0.034801 -0.043433 0.471459
0.064899 -0.058171 0.521209
0.056716 -0.292836 0.441266
0.067523 -0.716880 0.052409
0.138261 -0.726061 0.030766
0.018376 -0.196876 0.505563
0.003284 -0.213588 0.475646
-0.027310 -0.257400 0.483963
-0.009168 -0.287348 0.448250
-0.088545 -0.444610 0.389839
0.011656 -0.026970 0.587783
0.043389 -0.045832 0.569877
0.062949 -0.231166 0.487035
0.015166 -0.256158 0.489933
-0.033354 -0.039458 0.579366
0.020778 -0.072554 0.550627
-0.003094 -0.067464 0.572376
0.032355 -0.472116 0.352390
-0.049259 -0.404629 0.439117
0.056771 -0.456779 0.399413
-0.025541 -0.459346 0.403117
0.021892 -0.410495 0.444009
3 2 0 3
3 1 0 4
3 0 1 5
3 2 3 6
3 0 2 4
3 3 0 9
3 2 6 7
3 4 10 8
3 12 1 8
3 4 8 1
3 1 12 5
3 10 14 8
3 9 0 15
3 18 10 7
3 20 14 10
3 11 5 12
3 0 5 15
3 21 9 15
3 21 19 9
3 6 16 13
3 3 9 17
3 10 18 20
3 23 12 8
3 6 13 7
3 7 24 18
3 12 22 11
3 12 23 22
3 7 13 24
3 18 25 20
3 8 14 23
3 29 21 15
3 19 34 33
3 13 16 28
3 33 17 19
3 11 36 26
3 36 11 22
3 19 21 34
3 30 14 32
3 33 34 39
3 24 13 40
3 11 35 27
3 22 23 37
3 21 29 38
3 21 38 34
3 32 43 30
3 13 28 31
3 18 24 25
3 33 16 17
3 11 26 35
3 15 27 29
3 23 42 37
3 20 45 32
3 32 47 43
3 48 39 34
3 24 40 44
3 24 44 25
3 32 45 47
3 41 35 26
3 35 41 51
3 35 51 27
3 22 37 36
3 40 31 49
3 26 54 41
3 29 52 38
3 58 28 16
3 52 29 27
3 34 38 48
3 60 48 38
3 40 49 56
3 40 56 44
3 25 44 57
3 16 46 58
3 42 59 37
3 50 65 64
3 64 49 50
3 31 28 50
3 25 57 45
3 39 53 46
3 55 26 36
3 30 43 63
3 44 56 66
3 44 66 57
3 71 58 46
3 67 46 53
3 75 55 68
3 30 63 59
3 70 28 58
3 71 46 67
3 62 54 73
3 62 74 41
3 55 37 68
3 37 69 68
3 49 81 56
3 83 45 57
3 47 45 83
3 84 62 73
3 51 74 80
3 49 64 81
3 65 50 78
3 56 82 66
3 28 70 78
3 91 58 71
3 47 83 72
3 79 73 54
3 51 80 85
3 93 68 69
3 59 86 69
3 94 60 52
3 60 87 48
3 64 97 90
3 56 81 82
3 70 58 91
3 57 99 83
3 53 92 67
3 52 85 94
3 103 87 60
3 61 95 77
3 64 89 97
3 106 97 89
3 108 107 89
3 57 66 99
3 67 100 112
3 113 77 105
3 86 59 63
3 87 103 104
3 61 87 95
3 96 88 76
3 97 106 118
3 89 107 106
3 119 106 107
3 107 108 120
3 89 122 108
3 121 108 122
3 65 98 123
3 65 123 89
3 110 66 82
3 66 110 99
3 53 77 92
3 76 72 114
3 79 75 102
3 75 68 102
3 86 93 69
3 129 63 88
3 87 104 95
3 130 77 95
3 77 130 105
3 106 119 118
3 133 120 121
3 120 108 121
3 89 123 122
3 78 109 124
3 91 71 112
3 113 92 77
3 62 84 137
3 85 80 128
3 118 119 139
3 90 97 131
3 120 133 132
3 133 142 141
3 133 121 143
3 133 143 142
3 123 144 122
3 82 81 134
3 98 124 135
3 149 72 125
3 151 150 84
3 153 74 127
3 116 138 80
3 93 86 155
3 63 129 86
3 88 96 129
3 157 95 104
3 119 140 139
3 132 133 140
3 140 141 159
3 142 143 161
3 122 144 121
3 123 145 144
3 162 144 145
3 135 146 145
3 84 115 151
3 169 151 115
3 84 150 137
3 137 150 171
3 137 171 127
3 127 172 152
3 73 79 101
3 79 102 154
3 127 152 153
3 129 96 174
3 177 139 140
3 139 177 117
3 178 117 177
3 140 133 141
3 179 159 160
3 142 161 180
3 142 180 160
3 144 143 121
3 161 143 181
3 162 145 182
3 124 109 163
3 147 111 91
3 110 185 164
3 91 112 186
3 187 148 100
3 92 113 136
3 114 149 188
3 115 126 168
3 115 168 169
3 190 169 168
3 151 169 191
3 151 191 170
3 102 68 93
3 102 93 173
3 102 173 154
3 93 155 173
3 103 94 196
3 175 157 104
3 114 189 176
3 177 197 178
3 177 140 197
3 198 197 140
3 140 159 199
3 161 181 200
3 161 200 180
3 162 182 181
3 145 146 182
3 164 201 125
3 100 136 187
3 114 188 189
3 126 202 190
3 168 126 190
3 170 191 192
3 205 192 191
3 170 192 193
3 206 193 192
3 207 194 193
3 127 171 208
3 127 208 172
3 154 173 195
3 80 138 128
3 104 103 156
3 105 130 214
3 178 131 117
3 140 199 198
3 215 178 197
3 197 198 216
3 159 179 199
3 217 199 179
3 218 180 200
3 219 146 163
3 109 111 184
3 201 164 185
3 113 165 136
3 221 204 220
3 191 204 205
3 192 205 206
3 172 208 207
3 116 153 222
3 94 128 210
3 86 211 155
3 86 174 211
3 96 213 174
3 157 223 130
3 96 176 213
3 219 226 182
3 225 227 183
3 227 134 183
3 228 219 163
3 109 184 228
3 109 228 163
3 188 201 229
3 149 201 188
3 204 221 205
3 220 230 221
3 193 206 233
3 234 207 193
3 172 207 235
3 172 235 209
3 154 195 101
3 209 236 152
3 153 237 222
3 238 222 237
3 116 222 138
3 128 138 210
3 175 223 157
3 131 178 215
3 197 224 215
3 179 243 217
3 245 181 182
3 134 227 246
3 110 134 246
3 110 246 185
3 229 201 185
3 112 148 186
3 203 248 166
3 252 250 251
3 202 167 250
3 251 250 167
3 231 205 221
3 221 230 253
3 206 232 233
3 193 233 234
3 207 234 235
3 254 255 236
3 255 237 236
3 237 153 236
3 153 152 236
3 222 238 138
3 103 196 156
3 240 155 211
3 130 223 214
3 189 241 176
3 215 224 242
3 217 243 216
3 257 242 224
3 218 200 244
3 260 219 228
3 136 165 247
3 261 248 203
3 166 248 249
3 167 166 249
3 202 250 220
3 252 230 250
3 221 253 231
3 263 232 231
3 234 265 235
3 234 264 265
3 266 209 235
3 236 209 254
3 210 267 239
3 175 212 268
3 215 158 131
3 216 243 258
3 257 224 258
3 242 257 271
3 272 271 257
3 243 273 258
3 275 187 247
3 251 262 252
3 231 253 263
3 262 280 279
3 262 279 278
3 232 263 265
3 232 265 264
3 101 195 203
3 235 265 266
3 209 266 254
3 282 203 195
3 211 174 256
3 213 256 174
3 288 213 176
3 242 271 270
3 257 258 272
3 273 272 258
3 271 272 289
3 290 274 245
3 226 291 245
3 246 227 259
3 246 259 229
3 186 148 295
3 297 188 229
3 165 276 298
3 253 278 263
3 263 281 265
3 278 279 302
3 303 304 281
3 265 281 304
3 265 304 266
3 254 305 255
3 237 255 283
3 237 283 238
3 195 240 282
3 240 211 306
3 211 256 306
3 213 288 256
3 288 176 241
3 158 269 90
3 271 289 308
3 271 308 270
3 274 308 289
3 291 290 245
3 310 291 260
3 312 147 186
3 313 295 148
3 148 187 313
3 296 187 275
3 262 301 280
3 278 302 263
3 303 316 304
3 304 317 266
3 254 266 305
3 318 283 255
3 320 285 284
3 138 285 267
3 196 239 286
3 290 291 310
3 290 310 309
3 260 311 310
3 147 312 294
3 186 295 312
3 203 326 261
3 300 327 328
3 316 303 329
3 316 330 304
3 330 317 304
3 255 305 318
3 331 318 305
3 318 332 283
3 282 240 306
3 239 267 321
3 286 239 322
3 310 311 309
3 311 308 309
3 228 292 260
3 336 229 259
3 315 189 297
3 327 300 251
3 300 328 316
3 330 316 328
3 327 331 328
3 305 317 331
3 318 331 332
3 223 175 268
3 308 311 270
3 184 293 292
3 294 325 293
3 312 325 294
3 229 336 297
3 296 275 345
3 275 247 346
3 247 298 346
3 276 342 337
3 315 338 241
3 347 299 248
3 300 316 329
3 328 331 317
3 328 317 330
3 332 331 327
3 203 282 326
3 306 256 341
3 214 223 350
3 214 350 342
3 351 288 241
3 352 311 260
3 260 292 344
3 354 325 312
3 354 312 295
3 345 356 296
3 275 346 345
3 276 337 298
3 340 332 327
3 282 348 326
3 359 320 332
3 285 360 321
3 239 321 361
3 348 282 319
3 365 342 350
3 367 324 158
3 368 307 269
3 227 343 259
3 354 371 325
3 313 335 295
3 297 336 355
3 346 298 357
3 298 337 357
3 277 358 339
3 248 339 347
3 373 261 326
3 374 333 322
3 287 362 363
3 223 364 350
3 365 350 364
3 370 307 368
3 260 344 352
3 334 375 292
3 376 293 325
3 295 335 354
3 339 358 372
3 319 341 348
3 287 333 362
3 436 365 364
3 383 324 366
3 324 384 368
3 367 158 369
3 352 386 369
3 344 292 375
3 375 334 388
3 354 335 389
3 354 389 371
3 345 378 356
3 345 346 357
3 315 355 338
3 241 338 351
3 393 379 358
3 395 261 373
3 347 380 299
3 299 380 340
3 320 396 360
3 321 381 397
3 362 333 399
3 351 382 288
3 351 391 382
3 368 384 385
3 368 385 370
3 369 386 367
3 259 343 377
3 352 387 386
3 353 388 334
3 353 403 388
3 293 376 353
3 325 371 376
3 259 377 336
3 355 336 377
3 378 345 357
3 338 391 351
3 358 379 372
3 332 340 359
3 397 361 321
3 341 404 348
3 362 400 363
3 382 341 323
3 436 364 349
3 391 405 382
3 324 383 384
3 370 408 402
3 343 402 377
3 410 353 376
3 355 392 338
3 338 392 391
3 379 393 414
3 393 277 415
3 379 417 372
3 326 348 373
3 359 420 320
3 419 420 359
3 322 361 398
3 333 374 399
3 323 288 382
3 344 426 409
3 426 344 375
3 427 375 388
3 371 428 376
3 335 411 389
3 355 377 413
3 379 414 433
3 395 277 261
3 398 361 397
3 341 382 404
3 382 405 404
3 349 400 436
3 383 438 384
3 408 377 402
3 375 427 426
3 439 428 371
3 439 371 389
3 335 412 411
3 335 314 412
3 392 430 391
3 417 379 433
3 277 416 415
3 394 380 347
3 380 394 418
3 396 421 381
3 444 398 397
3 399 374 435
3 436 400 490
3 401 437 423
3 447 446 424
3 446 437 424
3 437 401 424
3 384 438 385
3 448 424 406
3 448 406 407
3 406 366 407
3 367 386 425
3 450 387 409
3 392 413 431
3 392 431 430
3 433 414 432
3 393 440 414
3 432 414 440
3 393 452 441
3 372 417 455
3 277 395 416
3 348 434 373
3 320 442 396
3 397 443 444
3 398 444 435
3 423 445 422
3 423 437 445
3 460 445 437
3 424 448 463
3 424 463 447
3 386 387 425
3 353 410 403
3 410 428 464
3 411 439 389
3 390 429 451
3 432 441 465
3 433 432 466
3 468 417 453
3 372 455 394
3 395 470 456
3 419 380 471
3 419 457 420
3 396 442 472
3 396 472 421
3 362 399 458
3 400 458 459
3 400 459 490
3 475 474 445
3 478 477 461
3 437 446 461
3 447 461 446
3 447 463 462
3 479 462 463
3 448 479 463
3 407 479 448
3 413 377 408
3 465 441 485
3 465 485 484
3 432 465 487
3 432 487 466
3 454 452 415
3 433 466 467
3 453 467 488
3 453 488 468
3 434 395 373
3 471 380 418
3 419 471 457
3 420 457 489
3 420 489 442
3 489 472 442
3 473 435 444
3 445 460 475
3 477 475 460
3 461 447 493
3 461 493 478
3 494 462 479
3 383 422 438
3 495 438 422
3 425 496 407
3 408 370 385
3 425 387 449
3 450 449 387
3 451 497 483
3 497 451 429
3 498 430 431
3 441 486 485
3 465 484 487
3 499 487 484
3 500 486 452
3 452 486 441
3 466 487 467
3 395 434 470
3 504 473 444
3 506 474 475
3 478 493 492
3 510 492 493
3 462 494 511
3 438 495 385
3 408 385 480
3 425 449 496
3 408 512 413
3 513 409 426
3 427 388 481
3 388 403 481
3 403 410 515
3 486 500 521
3 486 521 485
3 487 499 522
3 487 522 467
3 452 454 500
3 488 467 525
3 488 525 524
3 488 524 468
3 394 469 418
3 469 502 418
3 444 443 504
3 399 435 458
3 458 527 459
3 528 490 459
3 506 532 531
3 474 506 533
3 474 533 476
3 534 507 509
3 492 510 509
3 535 509 510
3 493 511 510
3 536 510 511
3 410 464 515
3 439 482 516
3 439 411 482
3 484 540 519
3 523 500 454
3 525 467 522
3 542 541 525
3 524 525 541
3 434 404 526
3 443 546 504
3 527 458 435
3 530 430 529
3 531 532 548
3 532 507 534
3 422 476 495
3 480 385 495
3 509 535 549
3 509 549 534
3 510 536 549
3 510 549 535
3 511 494 536
3 464 428 516
3 483 497 517
3 430 498 529
3 485 521 539
3 519 540 557
3 519 557 520
3 468 524 501
3 434 526 470
3 544 502 469
3 471 503 560
3 505 473 547
3 584 505 547
3 435 505 527
3 405 530 526
3 405 526 404
3 532 534 562
3 565 534 549
3 566 549 536
3 566 536 494
3 494 479 566
3 409 551 450
3 409 513 551
3 512 431 413
3 431 512 498
3 498 567 529
3 539 568 555
3 518 554 556
3 518 556 569
3 540 518 557
3 520 557 542
3 541 570 524
3 524 570 501
3 469 571 544
3 561 457 560
3 489 561 545
3 545 472 489
3 421 472 572
3 473 504 547
3 530 543 526
3 534 565 562
3 549 566 573
3 575 496 537
3 556 554 577
3 558 542 569
3 578 581 558
3 470 543 456
3 503 559 582
3 504 583 547
3 533 585 579
3 579 563 533
3 562 565 587
3 562 587 548
3 565 549 573
3 480 574 512
3 516 553 464
3 558 569 578
3 590 581 578
3 544 559 502
3 503 582 560
3 545 572 472
3 421 572 591
3 579 585 555
3 548 586 585
3 548 587 586
3 574 480 495
3 592 566 496
3 566 479 496
3 577 594 578
3 578 594 590
3 455 501 469
3 584 547 611
3 585 586 593
3 585 593 555
3 566 592 573
3 496 575 592
3 599 598 576
3 600 450 551
3 514 601 589
3 553 603 464
3 577 593 594
3 571 469 501
3 586 595 593
3 594 593 595
3 586 587 605
3 586 605 595
3 563 579 606
3 587 573 596
3 573 592 596
3 592 575 607
3 576 598 597
3 606 579 523
3 501 570 571
3 544 604 559
3 580 543 529
3 564 567 574
3 596 592 607
3 537 576 597
3 601 514 608
3 514 538 608
3 614 608 538
3 603 602 552
3 570 581 616
3 560 617 561
3 537 597 613
3 619 613 597
3 589 600 551
3 606 523 567
3 604 622 559
3 572 545 627
3 628 610 591
3 546 610 583
3 575 618 607
3 597 632 619
3 597 598 632
3 633 588 550
3 608 634 601
3 594 635 615
3 590 615 581
3 581 615 636
3 581 636 616
3 616 621 570
3 604 638 622
3 559 622 609
3 609 623 559
3 560 624 617
3 617 625 561
3 625 545 561
3 595 635 594
3 607 605 596
3 605 607 631
3 607 618 631
3 618 612 630
3 641 630 612
3 599 588 643
3 608 614 634
3 616 636 621
3 622 638 639
3 647 582 623
3 647 624 582
3 545 626 627
3 628 627 614
3 630 641 650
3 630 650 631
3 651 613 619
3 632 643 642
3 602 648 614
3 615 635 654
3 621 636 656
3 621 656 645
3 637 645 657
3 659 658 637
3 627 626 634
3 634 614 627
3 628 614 648
3 610 629 670
3 641 662 650
3 619 652 651
3 642 643 663
3 602 665 648
3 603 653 602
3 615 654 655
3 668 636 655
3 637 657 659
3 624 647 617
3 629 648 665
3 629 665 670
3 610 670 671
3 640 613 658
3 640 658 659
3 641 640 662
3 674 642 663
3 676 633 600
3 601 634 664
3 635 677 654
3 678 655 654
3 667 656 668
3 656 636 668
3 672 646 658
3 679 680 661
3 680 669 661
3 623 669 647
3 677 635 649
3 640 659 682
3 640 682 662
3 683 681 662
3 646 672 660
3 680 673 642
3 600 589 676
3 684 620 664
3 634 626 664
3 654 677 678
3 655 678 668
3 682 667 668
3 639 679 661
3 617 684 625
3 545 625 626
3 684 626 625
3 649 681 677
3 649 631 681
3 657 667 659
3 667 682 659
3 662 682 683
3 672 673 660
3 679 660 673
3 669 680 675
3 685 675 644
3 676 685 633
3 620 676 589
3 664 626 684
3 668 678 682
3 647 686 617
3 684 617 686
3 682 678 683
3 673 680 679
3 633 685 644
3 676 620 687
3 669 675 688
3 681 683 677
3 683 678 677
3 675 685 688
3 685 676 687
3 620 684 687
3 686 647 688
3 669 688 647
3 527 528 459
3 428 410 376
3 360 285 320
3 601 664 620
3 427 481 514
3 538 514 481
3 98 135 123
3 145 123 135
3 95 157 130
3 630 631 618
3 642 673 652
3 663 644 674
3 567 523 529
3 96 76 114
3 615 655 636
3 473 505 435
3 273 244 272
3 289 272 244
3 150 170 171
3 189 315 241
3 179 218 243
3 471 560 457
3 198 199 216
3 217 216 199
3 164 125 99
3 550 600 633
3 125 72 83
3 319 306 341
3 86 129 174
3 591 610 546
3 54 26 75
3 55 75 26
3 456 543 580
3 240 173 155
3 142 160 141
3 159 141 160
3 305 266 317
3 151 170 150
3 602 614 538
3 149 114 72
3 686 688 687
3 685 687 688
3 286 156 196
3 320 420 442
3 30 59 42
3 9 19 17
3 661 669 623
3 561 489 457
3 74 51 41
3 146 219 182
3 573 587 565
3 171 194 208
3 207 208 194
3 13 31 40
3 369 311 352
3 482 553 516
3 633 644 588
3 392 355 413
3 408 480 512
3 393 441 440
3 432 440 441
3 52 60 38
3 590 594 615
3 62 41 54
3 523 579 500
3 622 639 609
3 642 674 680
3 686 687 684
3 284 332 320
3 546 583 504
3 32 14 20
3 390 296 356
3 49 31 50
3 599 643 598
3 632 598 643
3 559 623 582
3 315 297 355
3 165 298 247
3 182 226 245
3 139 117 118
3 393 415 452
3 321 267 285
3 59 69 37
3 91 186 147
3 232 264 233
3 234 233 264
3 495 564 574
3 453 417 433
3 187 136 247
3 210 138 267
3 563 606 564
3 567 564 606
3 656 667 645
3 657 645 667
3 481 403 515
3 299 249 248
3 99 110 164
3 602 538 552
3 467 453 433
3 555 568 579
3 128 94 85
3 61 48 87
3 496 479 407
3 335 313 314
3 579 568 500
3 230 220 250
3 62 137 74
3 127 74 137
3 134 81 183
3 523 580 529
3 202 126 167
3 83 99 125
3 209 152 172
3 559 503 502
3 476 533 563
3 475 508 506
3 125 201 149
3 391 430 405
3 518 539 554
3 555 554 539
3 226 219 291
3 260 291 219
3 547 583 611
3 114 176 96
3 329 303 280
3 405 430 530
3 140 119 132
3 229 185 246
3 527 505 584
3 77 53 61
3 167 126 166
3 171 170 194
3 193 194 170
3 324 367 366
3 612 618 537
3 268 287 363
3 537 613 612
3 475 477 508
3 491 508 477
3 67 112 71
3 517 553 482
3 300 329 301
3 280 301 329
3 361 322 239
3 624 560 582
3 619 632 652
3 642 652 632
3 67 92 100
3 47 76 43
3 400 362 458
3 484 485 540
3 499 520 522
3 119 107 132
3 120 132 107
3 411 412 483
3 451 483 412
3 324 368 269
3 54 75 79
3 78 70 109
3 189 188 297
3 390 314 296
3 98 78 124
3 530 529 543
3 183 90 225
3 526 543 470
3 428 439 516
3 148 112 100
3 173 240 195
3 101 79 154
3 20 25 45
3 15 5 27
3 506 508 532
3 507 532 508
3 621 645 571
3 637 571 645
3 55 36 37
3 416 395 456
3 558 581 541
3 570 541 581
3 184 292 228
3 50 28 78
3 156 286 212
3 63 43 88
3 76 88 43
3 227 225 343
3 307 343 225
3 496 449 537
3 65 78 98
3 492 509 491
3 94 103 60
3 286 322 333
3 605 631 649
3 639 638 679
3 660 679 638
3 144 162 143
3 181 143 162
3 347 339 394
3 372 394 339
3 287 286 333
3 358 277 393
3 72 76 47
3 422 445 476
3 474 476 445
3 65 89 64
3 651 672 613
3 658 613 672
3 434 348 404
3 562 548 532
3 134 110 82
3 5 11 27
3 508 491 507
3 509 507 491
3 230 252 253
3 290 309 274
3 308 274 309
3 604 646 638
3 660 638 646
3 136 100 92
3 469 394 455
3 306 319 282
3 587 596 605
3 558 541 542
3 602 653 665
3 666 665 653
3 276 105 342
3 158 90 131
3 23 14 42
3 30 42 14
3 292 293 334
3 353 334 293
3 417 468 455
3 501 455 468
3 94 210 196
3 239 196 210
3 411 483 482
3 517 482 483
3 426 427 513
3 514 513 427
3 206 205 232
3 231 232 205
3 281 263 303
3 302 303 263
3 243 218 273
3 244 273 218
3 462 511 447
3 493 447 511
3 105 214 342
3 548 585 531
3 610 628 629
3 648 629 628
3 203 166 101
3 158 270 369
3 311 369 270
3 456 580 454
3 523 454 580
3 620 589 601
3 512 574 498
3 567 498 574
3 556 577 569
3 578 569 577
3 401 366 424
3 406 424 366
3 378 429 356
3 390 356 429
3 537 449 576
3 550 576 449
3 293 184 294
3 324 269 158
3 651 652 672
3 673 672 652
3 74 153 80
3 116 80 153
3 515 552 481
3 538 481 552
3 575 537 618
3 513 514 551
3 589 551 514
3 97 118 131
3 117 131 118
3 520 542 522
3 525 522 542
3 495 476 564
3 563 564 476
3 253 252 278
3 262 278 252
3 181 245 200
3 124 163 135
3 146 135 163
3 307 370 343
3 402 343 370
3 216 258 197
3 224 197 258
3 48 61 39
3 53 39 61
3 296 314 187
3 313 187 314
3 570 621 571
3 397 381 443
3 421 443 381
3 344 409 352
3 387 352 409
3 555 593 554
3 577 554 593
3 643 588 663
3 644 663 588
3 359 340 419
3 380 419 340
3 179 160 218
3 180 218 160
3 450 600 449
3 550 449 600
3 423 422 401
3 421 591 443
3 546 443 591
3 81 64 183
3 90 183 64
3 609 639 623
3 661 623 639
3 464 603 515
3 552 515 603
3 612 613 641
3 640 641 613
3 158 215 270
3 242 270 215
3 631 650 681
3 662 681 650
3 484 519 499
3 583 610 611
3 671 611 610
3 251 300 262
3 301 262 300
3 500 568 521
3 539 521 568
3 519 520 499
3 418 502 471
3 503 471 502
3 460 437 477
3 461 477 437
3 70 91 109
3 111 109 91
3 288 323 256
3 341 256 323
3 605 649 595
3 635 595 649
3 485 539 540
3 518 540 539
3 156 212 104
3 175 104 212
3 105 276 113
3 165 113 276
3 571 646 544
3 604 544 646
3 367 425 366
3 407 366 425
3 90 269 225
3 307 225 269
3 238 283 284
3 332 284 283
3 169 190 191
3 204 191 190
3 190 202 204
3 220 204 202
3 279 280 302
3 303 302 280
3 390 451 314
3 412 314 451
3 84 73 115
3 101 115 73
3 251 299 327
3 340 327 299
3 4 2 10
3 7 10 2
3 147 294 111
3 184 111 294
3 212 286 268
3 287 268 286
3 572 627 591
3 628 591 627
3 360 396 321
3 381 321 396
3 51 85 27
3 52 27 85
3 416 456 415
3 454 415 456
3 637 658 571
3 646 571 658
3 531 585 506
3 533 506 585
3 115 101 126
3 166 126 101
3 477 478 491
3 492 491 478
3 249 299 167
3 251 167 299
3 576 550 599
3 588 599 550
3 244 200 289
3 674 644 680
3 675 680 644
3 200 245 289
3 274 289 245
3 248 261 339
3 277 339 261
3 374 322 435
3 398 435 322
3 3 17 6
3 16 6 17
3 238 284 138
3 285 138 284
3 349 268 400
3 363 400 268
3 383 366 422
3 401 422 366
3 268 349 223
3 364 223 349
3 557 518 542
3 569 542 518
3 33 39 16
3 46 16 39
