ply
format ascii 1.0
comment VCGLIB generated
element vertex 243
property float x
property float y
property float z
element face 482
property list uchar int vertex_indices
end_header
-0.055620 -0.472052 -0.001526
-0.045416 -0.516154 -0.028590
0.155766 0.134617 -0.365237
0.141165 0.181933 -0.391195
0.166414 0.168079 -0.239454
0.118468 0.234752 -0.281054
0.195558 0.211160 -0.265061
-0.112068 0.286327 -0.198477
0.114617 0.169893 -0.243468
-0.110415 -0.658893 -0.247036
-0.100217 0.213874 -0.141291
-0.082981 0.328319 -0.207572
0.140078 0.159588 -0.135976
0.201170 -0.395674 -0.207369
-0.101127 -0.648047 -0.164287
0.172541 0.257000 -0.250066
-0.088280 -0.593636 -0.114604
0.177768 -0.429172 -0.128452
0.195819 -0.489000 -0.162929
0.231266 -0.355667 -0.131219
0.160804 -0.443066 -0.073494
0.162447 -0.339351 -0.092300
-0.158903 0.335343 0.005745
-0.080848 0.347716 -0.098238
-0.043744 0.068791 -0.127155
0.092142 0.085760 -0.114850
0.232512 -0.328051 -0.039885
-0.123534 -0.028683 -0.073428
0.164022 -0.327919 -0.058270
-0.137479 0.209038 -0.044016
-0.058097 0.170791 -0.051922
-0.020091 -0.423974 -0.029867
-0.132758 -0.411186 -0.041796
-0.099194 -0.453127 -0.026104
-0.116245 -0.556002 -0.011425
-0.166688 0.006567 0.034236
-0.147373 -0.151277 -0.027758
0.253651 -0.132698 0.049138
0.265763 -0.412705 0.043699
-0.172808 -0.330290 0.028791
-0.148990 -0.503084 0.153247
-0.130400 0.083255 0.165891
-0.144914 0.360397 0.179516
-0.027275 -0.584469 0.077233
-0.082561 -0.159100 0.246284
-0.179765 -0.160184 0.107196
-0.141627 -0.250312 0.158878
0.036235 -0.543882 0.246220
0.279380 -0.436519 0.134080
-0.092394 0.394968 0.232079
0.246803 -0.441634 0.247889
-0.043304 0.270529 -0.192286
-0.068770 0.247637 -0.313901
-0.100832 0.229258 -0.243265
-0.132499 0.273597 -0.307439
-0.104239 0.332552 -0.327024
-0.042757 0.312490 -0.291529
-0.068446 0.313256 -0.406093
-0.097185 0.253372 -0.381629
-0.110773 0.335483 -0.444798
-0.059010 0.345455 -0.531334
-0.100229 0.275187 -0.495567
-0.131492 0.338469 -0.548585
-0.111324 0.388645 -0.554185
-0.122797 0.327267 -0.613354
0.141816 -0.416759 -0.175025
-0.114336 -0.529506 -0.195930
-0.158701 -0.525389 -0.134068
0.074842 0.256833 -0.128374
0.159686 -0.364069 -0.142906
-0.162144 0.262287 -0.056627
-0.075324 -0.562918 -0.057306
0.176319 0.309673 -0.099951
0.233587 -0.442806 -0.048636
-0.058469 -0.632254 -0.608209
0.135158 -0.075171 -0.102328
0.203506 0.016477 -0.034558
-0.093184 -0.466957 -0.080613
-0.047470 -0.547959 -0.090454
0.192884 0.244612 -0.091778
-0.146610 -0.513578 -0.017114
0.128976 0.365568 -0.016978
0.230624 -0.084332 -0.020088
-0.086447 0.383224 -0.045364
-0.181941 -0.466708 0.022635
0.184614 -0.456891 -0.059813
0.201946 0.205047 -0.022104
0.219755 0.248216 0.076562
0.266522 -0.289122 0.041791
0.153249 0.163479 -0.010118
0.211189 0.327271 0.034170
0.217726 -0.517293 0.133119
0.260606 -0.047767 0.093967
0.195530 0.119558 0.141399
0.072419 0.421015 0.053307
-0.011138 0.397551 0.018576
-0.109581 -0.272859 0.031193
0.025544 -0.529411 0.064460
-0.078766 -0.554244 0.184242
0.167950 0.419123 0.079345
-0.122455 0.409094 0.087321
0.237341 -0.230825 0.135747
-0.122530 0.159784 0.054113
0.094042 0.443554 0.171633
0.193285 -0.544994 0.092997
0.056296 -0.549985 0.140285
-0.139194 0.189731 0.152913
0.245277 -0.255716 0.255126
-0.166201 0.301703 0.132911
0.187416 0.342930 0.217586
-0.165359 -0.357081 0.207283
0.178500 -0.546142 0.205039
-0.113207 -0.234272 0.270991
0.102007 0.330938 0.323849
0.128320 0.401663 0.258997
-0.106755 0.159238 0.220908
-0.014997 -0.511284 0.276770
-0.111942 0.293256 0.265329
-0.104069 -0.347749 0.289180
-0.125199 0.419882 -0.613200
-0.105083 0.491389 0.392894
-0.064471 0.345490 -0.613330
0.189787 0.185107 -0.388420
0.186001 0.096323 -0.459019
0.141934 0.147535 -0.525311
0.201451 0.171974 -0.516834
0.165475 0.127582 -0.609416
0.181451 0.231525 -0.604322
0.190643 0.127486 -0.527372
0.131168 0.198720 -0.606977
0.225246 0.156834 -0.603549
-0.010083 0.374218 0.510518
-0.069960 -0.505901 -0.132263
-0.054967 -0.644778 -0.174666
-0.109435 -0.590019 -0.198630
-0.124868 -0.646280 -0.321268
-0.100220 -0.627490 -0.365503
-0.052684 -0.612712 -0.280371
-0.057934 -0.663274 -0.476406
-0.088803 -0.710111 -0.411816
-0.131704 -0.658074 -0.443408
-0.147416 -0.620461 -0.611831
-0.069921 -0.621134 -0.567411
-0.086129 -0.707851 -0.503498
-0.116605 -0.687506 -0.515764
-0.112005 -0.706227 -0.609133
0.243336 -0.425571 -0.149878
0.168646 -0.469182 -0.306946
0.165504 -0.507373 -0.204335
0.199026 -0.535740 -0.327259
0.214577 -0.477644 -0.344101
0.174330 -0.501980 -0.432118
0.222048 -0.492254 -0.508061
0.169326 -0.559761 -0.480607
0.241818 -0.533630 -0.466603
0.212158 -0.571342 -0.468729
0.168734 -0.484139 -0.535480
0.221028 -0.423828 -0.597538
0.192804 -0.529968 -0.540427
0.148991 -0.483849 -0.602061
0.243389 -0.512291 -0.599115
0.021092 0.491021 0.242581
-0.030718 0.447127 0.154458
-0.068583 0.451174 0.251884
-0.051492 0.562819 0.336261
0.018136 0.565437 0.429158
-0.148328 0.559536 0.465959
-0.109170 0.555695 0.368470
0.011012 0.559709 0.552187
-0.095170 0.686069 0.541782
-0.019635 0.503985 0.593290
-0.079706 0.644308 0.422867
-0.187267 0.572090 0.567664
-0.211583 0.558496 0.389878
-0.169142 0.644630 0.339406
-0.170071 0.608492 0.609089
-0.133303 0.684504 0.606255
-0.194742 0.763546 0.406666
-0.238439 0.585292 0.620648
-0.202576 0.644378 0.618622
-0.142376 0.748294 0.647909
-0.321451 0.664123 0.367134
-0.284725 0.727491 0.338409
-0.149372 0.714562 0.611577
-0.372352 0.799369 0.305566
-0.365846 0.735419 0.288787
0.069001 0.495188 0.294792
-0.053587 0.309799 0.313493
0.075516 0.488817 0.391680
-0.426648 0.764753 0.348904
-0.278937 0.766981 0.356624
-0.079683 0.410836 0.442581
-0.375366 0.798751 0.381558
0.052502 0.252690 0.389178
-0.414768 0.723659 0.336496
-0.322383 0.665004 0.429916
0.041307 0.394081 0.506132
-0.113701 0.709227 0.375977
-0.322254 0.760168 0.444192
-0.270577 0.596001 0.467789
-0.210278 0.773441 0.520359
-0.294340 0.606679 0.520048
-0.094621 0.505912 0.583956
-0.251157 0.623668 0.569823
-0.330032 0.712462 0.467560
-0.153230 0.741025 0.531900
-0.055799 -0.522013 -0.081747
0.199792 -0.329224 0.313498
0.219676 -0.176398 0.231039
0.230948 -0.082500 0.204049
0.136890 0.085273 0.231477
0.159152 -0.265385 0.329933
0.117654 0.205144 0.296664
0.127461 -0.061325 0.263817
0.151566 -0.470898 0.293671
0.075877 0.078015 0.269054
-0.000966 0.208355 0.353790
0.014017 -0.091721 0.270227
-0.006893 0.051329 0.257584
-0.021375 0.181086 0.327979
-0.104275 -0.470508 0.258916
-0.010320 -0.377913 0.328429
-0.032208 -0.270043 0.321680
-0.068088 -0.460282 -0.098984
0.179502 -0.283713 -0.035009
0.110459 0.372188 -0.063244
0.177099 -0.216770 -0.015478
0.145923 -0.327116 -0.014519
0.138193 -0.379669 -0.014096
0.090488 -0.219802 -0.063876
0.141353 -0.449955 -0.038928
0.057740 -0.470760 0.027550
0.008165 0.321041 -0.097080
0.052803 -0.303798 0.003665
0.132813 -0.421544 -0.013496
0.049050 0.100570 -0.132330
-0.032413 0.248848 -0.122033
-0.025905 0.157286 -0.122819
-0.000696 -0.058624 -0.139183
-0.003330 -0.198582 -0.086915
-0.009504 -0.545583 0.025993
-0.056963 -0.287606 0.005488
-0.105277 -0.381140 -0.023834
3 119 64 121
3 141 145 74
3 129 126 130
3 129 130 127
3 142 141 74
3 157 159 160
3 60 119 121
3 158 160 159
3 62 64 119
3 119 60 63
3 125 127 130
3 156 159 157
3 128 130 126
3 142 74 145
3 119 63 62
3 60 121 64
3 156 158 159
3 127 125 129
3 64 62 60
3 124 126 129
3 145 141 144
3 126 124 128
3 143 142 145
3 129 125 124
3 125 130 128
3 145 144 143
3 152 160 158
3 138 142 143
3 157 160 152
3 140 141 142
3 142 138 140
3 144 141 140
3 60 62 61
3 152 156 157
3 153 158 156
3 62 63 59
3 158 154 152
3 59 63 60
3 158 153 155
3 151 156 152
3 154 158 155
3 61 57 60
3 3 124 125
3 128 124 123
3 128 123 125
3 143 144 139
3 140 139 144
3 60 57 59
3 143 139 138
3 151 153 156
3 62 59 61
3 124 3 2
3 136 140 138
3 154 150 152
3 124 2 123
3 122 3 125
3 122 125 123
3 152 150 151
3 150 154 155
3 58 57 61
3 149 155 153
3 140 136 135
3 150 155 149
3 140 135 139
3 153 151 149
3 61 59 58
3 147 151 150
3 123 2 122
3 136 138 137
3 139 137 138
3 147 149 151
3 55 54 59
3 59 54 58
3 55 59 57
3 58 52 57
3 135 9 139
3 3 122 5
3 57 52 56
3 56 55 57
3 122 15 5
3 54 53 58
3 8 2 3
3 3 5 8
3 2 4 122
3 139 133 137
3 53 52 58
3 4 2 8
3 122 6 15
3 139 9 133
3 4 6 122
3 54 55 7
3 148 149 147
3 51 56 52
3 53 54 7
3 66 136 137
3 7 55 11
3 136 66 135
3 149 18 150
3 13 147 150
3 52 53 51
3 149 148 18
3 11 55 56
3 65 148 147
3 134 9 135
3 150 18 146
3 11 56 51
3 66 134 135
3 150 146 13
3 7 10 53
3 72 5 15
3 15 6 4
3 9 134 14
3 148 65 20
3 132 66 137
3 68 8 5
3 147 13 65
3 133 9 14
3 51 53 236
3 69 65 13
3 8 12 4
3 66 67 134
3 18 148 20
3 79 72 15
3 13 19 69
3 8 68 12
3 4 12 15
3 53 10 236
3 78 137 133
3 13 146 19
3 16 133 14
3 68 5 72
3 16 78 133
3 78 132 137
3 23 11 51
3 16 14 134
3 11 22 7
3 23 51 236
3 15 12 79
3 69 17 65
3 223 66 132
3 24 238 235
3 235 12 68
3 17 20 65
3 24 235 237
3 134 67 16
3 238 25 235
3 237 235 236
3 235 25 12
3 236 235 68
3 237 236 10
3 7 22 70
3 223 32 66
3 236 68 232
3 75 25 238
3 236 232 23
3 238 239 229
3 66 32 67
3 18 85 146
3 20 17 69
3 68 72 225
3 21 69 19
3 27 238 24
3 229 75 238
3 206 132 78
3 18 20 85
3 10 7 70
3 223 132 77
3 68 225 232
3 29 10 70
3 89 12 25
3 16 71 78
3 22 11 23
3 12 89 79
3 75 76 25
3 30 237 10
3 132 206 77
3 30 24 237
3 146 26 19
3 73 146 85
3 10 29 30
3 19 26 21
3 36 238 27
3 85 20 230
3 239 238 36
3 23 232 83
3 72 81 225
3 34 16 67
3 20 69 21
3 224 21 26
3 75 229 82
3 206 33 77
3 16 34 71
3 80 67 32
3 28 21 224
3 206 1 33
3 146 73 26
3 75 82 76
3 223 77 31
3 32 223 242
3 67 80 34
3 232 225 83
3 25 76 89
3 228 21 28
3 79 89 86
3 229 226 82
3 1 206 78
3 223 31 242
3 102 24 30
3 229 224 226
3 239 233 229
3 83 225 95
3 234 230 20
3 31 77 33
3 20 21 228
3 233 224 229
3 87 79 86
3 241 239 36
3 24 102 27
3 72 79 90
3 0 31 33
3 224 227 28
3 88 26 73
3 227 228 28
3 23 83 22
3 27 35 36
3 72 90 81
3 228 234 20
3 102 30 29
3 240 1 78
3 32 84 80
3 87 90 79
3 88 224 26
3 242 31 241
3 0 33 1
3 233 239 241
3 78 71 240
3 39 32 242
3 73 38 88
3 73 85 104
3 234 233 31
3 233 227 224
3 231 230 234
3 94 95 225
3 233 234 228
3 233 228 227
3 226 224 88
3 31 233 241
3 231 85 230
3 32 39 84
3 76 82 92
3 35 27 102
3 94 225 81
3 39 242 96
3 96 242 241
3 85 231 104
3 96 241 36
3 31 231 234
3 37 82 226
3 43 71 34
3 108 70 22
3 99 81 90
3 0 231 31
3 1 240 0
3 81 99 94
3 96 36 45
3 76 92 89
3 101 226 88
3 71 43 240
3 70 106 29
3 86 89 87
3 97 231 0
3 29 106 102
3 73 91 38
3 73 104 91
3 37 92 82
3 106 70 108
3 0 240 97
3 80 84 40
3 45 36 35
3 83 100 22
3 89 93 87
3 110 84 39
3 91 48 38
3 93 89 92
3 101 37 226
3 46 96 45
3 46 39 96
3 98 43 34
3 95 162 83
3 105 231 97
3 83 162 100
3 240 43 97
3 34 80 98
3 231 105 104
3 35 102 41
3 97 43 105
3 90 87 109
3 103 94 99
3 94 103 95
3 42 22 100
3 41 45 35
3 42 108 22
3 80 40 98
3 88 38 48
3 110 39 46
3 162 95 103
3 101 88 48
3 92 37 101
3 111 91 104
3 109 99 90
3 42 100 49
3 84 110 40
3 115 102 106
3 102 115 41
3 208 92 101
3 100 162 49
3 92 208 209
3 43 47 105
3 104 105 111
3 43 98 47
3 92 209 93
3 48 91 50
3 41 44 45
3 101 107 208
3 48 107 101
3 106 108 115
3 99 114 103
3 87 93 109
3 162 103 161
3 40 110 220
3 109 114 99
3 45 44 46
3 163 49 162
3 93 209 210
3 91 111 50
3 115 108 117
3 46 112 110
3 220 98 40
3 111 105 47
3 98 116 47
3 108 42 117
3 218 44 41
3 117 42 49
3 46 44 112
3 93 210 212
3 213 209 208
3 41 115 218
3 48 50 107
3 161 103 186
3 93 212 109
3 218 217 44
3 212 210 215
3 210 209 213
3 116 98 220
3 109 113 114
3 103 114 186
3 110 118 220
3 214 111 47
3 111 214 50
3 215 210 213
3 164 162 161
3 110 112 118
3 187 117 49
3 115 219 218
3 115 117 219
3 218 215 213
3 218 213 217
3 211 213 208
3 207 107 50
3 211 208 107
3 212 113 109
3 107 207 211
3 44 217 112
3 116 214 47
3 186 164 161
3 217 222 112
3 220 118 221
3 207 50 214
3 112 222 118
3 220 221 116
3 164 163 162
3 185 184 194
3 118 222 221
3 217 213 222
3 219 215 218
3 116 221 214
3 187 219 117
3 189 194 184
3 216 219 187
3 213 211 222
3 211 207 214
3 184 185 190
3 219 216 215
3 221 211 214
3 193 212 215
3 188 186 114
3 120 187 49
3 222 211 221
3 120 49 163
3 165 164 186
3 190 185 182
3 164 167 163
3 185 181 182
3 186 188 165
3 192 189 184
3 194 181 185
3 167 120 163
3 113 212 193
3 167 164 174
3 188 114 113
3 216 193 215
3 182 181 174
3 174 173 167
3 173 174 181
3 174 177 182
3 177 174 197
3 192 184 190
3 194 195 181
3 164 171 174
3 131 216 187
3 190 198 192
3 190 182 177
3 171 197 174
3 173 181 199
3 189 192 204
3 192 198 204
3 187 191 131
3 194 204 195
3 194 189 204
3 191 187 120
3 113 196 188
3 173 166 167
3 190 177 198
3 120 167 166
3 199 181 195
3 193 216 131
3 196 113 193
3 166 191 120
3 177 197 200
3 200 198 177
3 168 165 188
3 165 169 164
3 199 195 201
3 172 191 166
3 173 199 166
3 164 169 171
3 188 196 168
3 201 195 204
3 205 200 197
3 205 197 171
3 169 165 168
3 193 131 196
3 202 131 191
3 202 191 172
3 205 171 169
3 203 166 199
3 170 168 196
3 203 201 204
3 199 201 203
3 203 172 166
3 172 203 178
3 196 131 170
3 198 200 204
3 183 205 169
3 170 131 202
3 205 183 200
3 183 204 200
3 183 169 180
3 202 172 175
3 178 203 179
3 179 203 204
3 172 178 175
3 204 183 179
3 176 169 168
3 180 169 176
3 175 170 202
3 183 176 179
3 168 170 176
3 176 170 175
3 175 179 176
3 176 183 180
3 178 179 175
