ply
format ascii 1.0
comment VCGLIB generated
element vertex 243
property float x
property float y
property float z
element face 482
property list uchar int vertex_indices
end_header
0.0023414 -0.0615207 -0.00278738 
0.00356873 -0.0668253 -0.00604256 
0.0277669 0.0114494 -0.0465345 
0.0260108 0.0171406 -0.0496568 
0.0290477 0.0154743 -0.0314053 
0.0232808 0.0234937 -0.036409 
0.0325531 0.020656 -0.0344854 
-0.00444812 0.0296971 -0.0264767 
0.0228175 0.0156924 -0.0318881 
-0.00424926 -0.083994 -0.0323173 
-0.00302264 0.0209825 -0.0195983 
-0.00094959 0.0347479 -0.0275706 
0.02588 0.0144529 -0.018959 
0.0332282 -0.052334 -0.0275462 
-0.00313215 -0.0826894 -0.0223643 
0.0297846 0.0261697 -0.0326818 
-0.00158697 -0.0761449 -0.0163884 
0.0304133 -0.0563632 -0.018054 
0.0325845 -0.0635593 -0.0222009 
0.0368481 -0.047522 -0.0183869 
0.0283729 -0.0580343 -0.0114437 
0.0285706 -0.0455595 -0.0137057 
-0.0100814 0.0355928 -0.00191278 
-0.000693031 0.037081 -0.0144199 
0.00376984 0.00353192 -0.017898 
0.0201143 0.0055729 -0.016418 
0.036998 -0.0442003 -0.00740124 
-0.00582722 -0.00819233 -0.0114357 
0.02876 -0.0441844 -0.0096125 
-0.00750459 0.0204008 -0.00789812 
0.00204355 0.0158004 -0.00884897 
0.00661481 -0.0557379 -0.00619621 
-0.00693669 -0.0541998 -0.00763104 
-0.00289967 -0.0592444 -0.00574362 
-0.0049506 -0.0716183 -0.003978 
-0.0110178 -0.0039524 0.00151413 
-0.00869459 -0.0229379 -0.00594251 
0.0395406 -0.0207032 0.00330646 
0.0409974 -0.0543825 0.00265233 
-0.0117539 -0.0444696 0.000859151 
-0.00888916 -0.0652533 0.0158287 
-0.00665307 0.00527163 0.0173496 
-0.0083988 0.0386063 0.0189884 
0.00575079 -0.0750423 0.00668574 
-0.000898997 -0.0238789 0.0270193 
-0.0125907 -0.0240093 0.0102897 
-0.00800344 -0.0348498 0.016506 
0.0133898 -0.0701605 0.0270116 
0.0426352 -0.0572468 0.0135233 
-0.00208169 0.0427645 0.0253107 
0.0387169 -0.0578621 0.0272123 
0.00382278 0.0277969 -0.025732 
0.000759777 0.0250435 -0.0403598 
-0.00309666 0.0228329 -0.0318637 
-0.00690554 0.028166 -0.0395826 
-0.00350643 0.0352571 -0.0419383 
0.00388854 0.032844 -0.037669 
0.000798773 0.0329362 -0.0514487 
-0.00265795 0.0257333 -0.0485062 
-0.00429235 0.0356096 -0.0561042 
0.00193374 0.0368091 -0.0665127 
-0.00302418 0.0283572 -0.0622107 
-0.0067844 0.0359688 -0.0685876 
-0.00435859 0.042004 -0.0692612 
-0.0057386 0.0346214 -0.0763781 
0.0260891 -0.0548701 -0.0236558 
-0.00472091 -0.0684313 -0.0261703 
-0.0100571 -0.0679361 -0.0187295 
0.0180334 0.0261496 -0.0180446 
0.0282384 -0.0485326 -0.0197925 
-0.0104713 0.0268056 -0.00941496 
-2.86185e-005 -0.0724501 -0.00949655 
0.0302391 0.0325052 -0.0146259 
0.0371273 -0.058003 -0.00845376 
0.00199878 -0.0807899 -0.0757592 
0.0252882 -0.0137839 -0.0149118 
0.0335091 -0.00276044 -0.00676046 
-0.00217671 -0.0609079 -0.0122999 
0.00332177 -0.0706508 -0.0134836 
0.0322315 0.0246796 -0.0136429 
-0.00860289 -0.0665155 -0.00466228 
0.0245447 0.0392282 -0.00464588 
0.0367709 -0.0148858 -0.00502005 
-0.0013664 0.0413519 -0.00806017 
-0.0128525 -0.060878 0.000118758 
0.0312368 -0.0596972 -0.00979813 
0.0333215 0.0199208 -0.00526254 
0.0354635 0.0251131 0.00660504 
0.0410887 -0.0395179 0.00242279 
0.0274642 0.014921 -0.0038208 
0.0344332 0.0346219 0.0015061 
0.0352195 -0.0669623 0.0134078 
0.0403771 -0.0104877 0.0086985 
0.0325498 0.00963811 0.0144037 
0.017742 0.0458974 0.00380798 
0.00769168 0.0430752 -0.000369496 
-0.00414897 -0.0375618 0.00114809 
0.0121038 -0.0684199 0.00514945 
-0.000442521 -0.0714068 0.0195568 
0.0292325 0.0456699 0.00693979 
-0.00569748 0.0444635 0.00789912 
0.0375788 -0.032506 0.0137238 
-0.00570648 0.0144765 0.00390491 
0.0203428 0.0486084 0.0180402 
0.0322798 -0.0702942 0.00858192 
0.0158027 -0.0708945 0.0142697 
-0.00771085 0.0180786 0.0157886 
0.0385333 -0.0354998 0.0280828 
-0.0109592 0.0315465 0.0133827 
0.0315738 0.0365053 0.0235675 
-0.010858 -0.047692 0.0223282 
0.0305014 -0.0704323 0.0220583 
-0.00458508 -0.0329206 0.029991 
0.0213008 0.0350629 0.0363488 
0.0244658 0.0435697 0.0285484 
-0.00380907 0.0144109 0.023967 
0.00722758 -0.0662396 0.0306861 
-0.00443304 0.0305305 0.02931 
-0.003486 -0.0465696 0.0321788 
-0.00602751 0.0457611 -0.0763595 
-0.00360793 0.054362 0.0446535 
0.0012768 0.0368133 -0.0763752 
0.031859 0.0175224 -0.049323 
0.0314036 0.00684339 -0.0578147 
0.0261032 0.0130032 -0.0657882 
0.033262 0.0159428 -0.0647686 
0.0289347 0.0106033 -0.0759044 
0.0308563 0.0231056 -0.0752917 
0.031962 0.0105917 -0.0660361 
0.0248083 0.0191598 -0.0756111 
0.036124 0.0141217 -0.0751987 
0.00781858 0.0402687 0.0588013 
0.000616592 -0.0655921 -0.0185124 
0.00241994 -0.0822963 -0.0236127 
-0.00413145 -0.0757098 -0.0264951 
-0.00598774 -0.0824769 -0.041246 
-0.00302305 -0.0802169 -0.0465666 
0.00269452 -0.0784393 -0.0363268 
0.00206314 -0.084521 -0.059906 
-0.00164981 -0.0901545 -0.0521371 
-0.00680995 -0.0838955 -0.055937 
-0.00869975 -0.0793714 -0.0761949 
0.000621279 -0.0794523 -0.0708521 
-0.00132823 -0.0898827 -0.0631646 
-0.00499386 -0.0874356 -0.06464 
-0.00444054 -0.0896873 -0.0758704 
0.0382999 -0.05593 -0.0206312 
0.0293162 -0.0611756 -0.0395233 
0.0289383 -0.0657692 -0.0271813 
0.0329703 -0.0691812 -0.0419665 
0.0348408 -0.0621934 -0.0439923 
0.0299998 -0.0651205 -0.054579 
0.0357393 -0.0639506 -0.0637134 
0.029398 -0.0720704 -0.0604112 
0.0381173 -0.0689274 -0.0587268 
0.0345498 -0.0734634 -0.0589826 
0.0293268 -0.0629746 -0.0670114 
0.0356167 -0.0557204 -0.0744757 
0.0322219 -0.0684869 -0.0676064 
0.0269521 -0.0629397 -0.0750197 
0.0383062 -0.0663607 -0.0746654 
0.0115683 0.0543177 0.0265739 
0.00533662 0.0490382 0.0159744 
0.00078226 0.0495249 0.0276928 
0.00283791 0.0629536 0.0378417 
0.0112128 0.0632685 0.0490153 
-0.00880944 0.0625587 0.0534418 
-0.00409954 0.0620967 0.0417158 
0.0103559 0.0625795 0.0638133 
-0.00241562 0.0777781 0.0625618 
0.00666967 0.0558771 0.0687572 
-0.000555576 0.0727551 0.0482587 
-0.0134931 0.0640687 0.0656749 
-0.0164178 0.0624336 0.0442908 
-0.011313 0.0727939 0.03822 
-0.0114248 0.0684472 0.0706575 
-0.00700223 0.0775899 0.0703166 
-0.0143922 0.0870971 0.04631 
-0.019648 0.0656567 0.0720478 
-0.0153345 0.0727635 0.0718041 
-0.00809357 0.0852625 0.0753267 
-0.0296327 0.0751385 0.0415551 
-0.0252153 0.0827604 0.0381 
-0.00893502 0.0812053 0.0709567 
-0.0357551 0.0914059 0.0341497 
-0.0349726 0.0837139 0.0321315 
0.0173308 0.0548189 0.0328538 
0.00258592 0.0325203 0.0351032 
0.0181145 0.0540527 0.0445075 
-0.0422859 0.0872422 0.0393624 
-0.0245191 0.0875102 0.040291 
-0.000552848 0.0446731 0.0506299 
-0.0361176 0.0913315 0.04329 
0.0153464 0.0256513 0.0442066 
-0.0408569 0.0822994 0.03787 
-0.0297449 0.0752444 0.0491065 
0.0139998 0.0426578 0.0582738 
-0.00464455 0.0805636 0.0426187 
-0.0297293 0.0866907 0.0508236 
-0.0235136 0.0669447 0.0536619 
-0.0162608 0.0882872 0.059985 
-0.0263718 0.0682291 0.0599476 
-0.00234961 0.0561088 0.0676344 
-0.0211778 0.0702725 0.0659345 
-0.0306649 0.0809527 0.0536343 
-0.00939913 0.0843882 0.0613731 
0.00231991 -0.0675301 -0.0124363 
0.0330624 -0.0443414 0.0351038 
0.035454 -0.0259595 0.0251856 
0.0368099 -0.0146654 0.0219392 
0.0254966 0.00551432 0.0252382 
0.0281742 -0.0366628 0.0370805 
0.0231828 0.0199324 0.0330789 
0.0243624 -0.0121185 0.0291281 
0.0272618 -0.0613819 0.032719 
0.0181579 0.00464129 0.029758 
0.00891525 0.0203187 0.0399501 
0.0107174 -0.0157745 0.0298991 
0.00820232 0.00143154 0.0283784 
0.00646041 0.0170387 0.0368455 
-0.00351074 -0.061335 0.0285386 
0.00779009 -0.0501977 0.0368996 
0.00515741 -0.0372231 0.0360879 
0.000841817 -0.060105 -0.0145096 
0.0306219 -0.0388673 -0.00681465 
0.0223174 0.0400245 -0.0102108 
0.0303329 -0.0308154 -0.00446552 
0.026583 -0.0440878 -0.00435011 
0.0256533 -0.0504089 -0.00429932 
0.0199153 -0.0311801 -0.0102868 
0.0260334 -0.0588629 -0.00728604 
0.0159764 -0.0613654 0.00070985 
0.0100135 0.0338725 -0.0142806 
0.0153825 -0.0412831 -0.00216303 
0.0250062 -0.0554456 -0.00422706 
0.0149311 0.00735424 -0.0185205 
0.00513282 0.0251891 -0.0172819 
0.00591554 0.0141761 -0.0173765 
0.00894767 -0.0117936 -0.0193448 
0.00863085 -0.0286277 -0.013058 
0.00788827 -0.0703651 0.000522666 
0.00217992 -0.0393356 -0.00194366 
-0.00363134 -0.0505859 -0.00547059 
3 119 64 121 
3 141 145 74 
3 129 126 130 
3 129 130 127 
3 142 141 74 
3 157 159 160 
3 60 119 121 
3 158 160 159 
3 62 64 119 
3 119 60 63 
3 125 127 130 
3 156 159 157 
3 128 130 126 
3 142 74 145 
3 119 63 62 
3 60 121 64 
3 156 158 159 
3 127 125 129 
3 64 62 60 
3 124 126 129 
3 145 141 144 
3 126 124 128 
3 143 142 145 
3 129 125 124 
3 125 130 128 
3 145 144 143 
3 152 160 158 
3 138 142 143 
3 157 160 152 
3 140 141 142 
3 142 138 140 
3 144 141 140 
3 60 62 61 
3 152 156 157 
3 153 158 156 
3 62 63 59 
3 158 154 152 
3 59 63 60 
3 158 153 155 
3 151 156 152 
3 154 158 155 
3 61 57 60 
3 3 124 125 
3 128 124 123 
3 128 123 125 
3 143 144 139 
3 140 139 144 
3 60 57 59 
3 143 139 138 
3 151 153 156 
3 62 59 61 
3 124 3 2 
3 136 140 138 
3 154 150 152 
3 124 2 123 
3 122 3 125 
3 122 125 123 
3 152 150 151 
3 150 154 155 
3 58 57 61 
3 149 155 153 
3 140 136 135 
3 150 155 149 
3 140 135 139 
3 153 151 149 
3 61 59 58 
3 147 151 150 
3 123 2 122 
3 136 138 137 
3 139 137 138 
3 147 149 151 
3 55 54 59 
3 59 54 58 
3 55 59 57 
3 58 52 57 
3 135 9 139 
3 3 122 5 
3 57 52 56 
3 56 55 57 
3 122 15 5 
3 54 53 58 
3 8 2 3 
3 3 5 8 
3 2 4 122 
3 139 133 137 
3 53 52 58 
3 4 2 8 
3 122 6 15 
3 139 9 133 
3 4 6 122 
3 54 55 7 
3 148 149 147 
3 51 56 52 
3 53 54 7 
3 66 136 137 
3 7 55 11 
3 136 66 135 
3 149 18 150 
3 13 147 150 
3 52 53 51 
3 149 148 18 
3 11 55 56 
3 65 148 147 
3 134 9 135 
3 150 18 146 
3 11 56 51 
3 66 134 135 
3 150 146 13 
3 7 10 53 
3 72 5 15 
3 15 6 4 
3 9 134 14 
3 148 65 20 
3 132 66 137 
3 68 8 5 
3 147 13 65 
3 133 9 14 
3 51 53 236 
3 69 65 13 
3 8 12 4 
3 66 67 134 
3 18 148 20 
3 79 72 15 
3 13 19 69 
3 8 68 12 
3 4 12 15 
3 53 10 236 
3 78 137 133 
3 13 146 19 
3 16 133 14 
3 68 5 72 
3 16 78 133 
3 78 132 137 
3 23 11 51 
3 16 14 134 
3 11 22 7 
3 23 51 236 
3 15 12 79 
3 69 17 65 
3 223 66 132 
3 24 238 235 
3 235 12 68 
3 17 20 65 
3 24 235 237 
3 134 67 16 
3 238 25 235 
3 237 235 236 
3 235 25 12 
3 236 235 68 
3 237 236 10 
3 7 22 70 
3 223 32 66 
3 236 68 232 
3 75 25 238 
3 236 232 23 
3 238 239 229 
3 66 32 67 
3 18 85 146 
3 20 17 69 
3 68 72 225 
3 21 69 19 
3 27 238 24 
3 229 75 238 
3 206 132 78 
3 18 20 85 
3 10 7 70 
3 223 132 77 
3 68 225 232 
3 29 10 70 
3 89 12 25 
3 16 71 78 
3 22 11 23 
3 12 89 79 
3 75 76 25 
3 30 237 10 
3 132 206 77 
3 30 24 237 
3 146 26 19 
3 73 146 85 
3 10 29 30 
3 19 26 21 
3 36 238 27 
3 85 20 230 
3 239 238 36 
3 23 232 83 
3 72 81 225 
3 34 16 67 
3 20 69 21 
3 224 21 26 
3 75 229 82 
3 206 33 77 
3 16 34 71 
3 80 67 32 
3 28 21 224 
3 206 1 33 
3 146 73 26 
3 75 82 76 
3 223 77 31 
3 32 223 242 
3 67 80 34 
3 232 225 83 
3 25 76 89 
3 228 21 28 
3 79 89 86 
3 229 226 82 
3 1 206 78 
3 223 31 242 
3 102 24 30 
3 229 224 226 
3 239 233 229 
3 83 225 95 
3 234 230 20 
3 31 77 33 
3 20 21 228 
3 233 224 229 
3 87 79 86 
3 241 239 36 
3 24 102 27 
3 72 79 90 
3 0 31 33 
3 224 227 28 
3 88 26 73 
3 227 228 28 
3 23 83 22 
3 27 35 36 
3 72 90 81 
3 228 234 20 
3 102 30 29 
3 240 1 78 
3 32 84 80 
3 87 90 79 
3 88 224 26 
3 242 31 241 
3 0 33 1 
3 233 239 241 
3 78 71 240 
3 39 32 242 
3 73 38 88 
3 73 85 104 
3 234 233 31 
3 233 227 224 
3 231 230 234 
3 94 95 225 
3 233 234 228 
3 233 228 227 
3 226 224 88 
3 31 233 241 
3 231 85 230 
3 32 39 84 
3 76 82 92 
3 35 27 102 
3 94 225 81 
3 39 242 96 
3 96 242 241 
3 85 231 104 
3 96 241 36 
3 31 231 234 
3 37 82 226 
3 43 71 34 
3 108 70 22 
3 99 81 90 
3 0 231 31 
3 1 240 0 
3 81 99 94 
3 96 36 45 
3 76 92 89 
3 101 226 88 
3 71 43 240 
3 70 106 29 
3 86 89 87 
3 97 231 0 
3 29 106 102 
3 73 91 38 
3 73 104 91 
3 37 92 82 
3 106 70 108 
3 0 240 97 
3 80 84 40 
3 45 36 35 
3 83 100 22 
3 89 93 87 
3 110 84 39 
3 91 48 38 
3 93 89 92 
3 101 37 226 
3 46 96 45 
3 46 39 96 
3 98 43 34 
3 95 162 83 
3 105 231 97 
3 83 162 100 
3 240 43 97 
3 34 80 98 
3 231 105 104 
3 35 102 41 
3 97 43 105 
3 90 87 109 
3 103 94 99 
3 94 103 95 
3 42 22 100 
3 41 45 35 
3 42 108 22 
3 80 40 98 
3 88 38 48 
3 110 39 46 
3 162 95 103 
3 101 88 48 
3 92 37 101 
3 111 91 104 
3 109 99 90 
3 42 100 49 
3 84 110 40 
3 115 102 106 
3 102 115 41 
3 208 92 101 
3 100 162 49 
3 92 208 209 
3 43 47 105 
3 104 105 111 
3 43 98 47 
3 92 209 93 
3 48 91 50 
3 41 44 45 
3 101 107 208 
3 48 107 101 
3 106 108 115 
3 99 114 103 
3 87 93 109 
3 162 103 161 
3 40 110 220 
3 109 114 99 
3 45 44 46 
3 163 49 162 
3 93 209 210 
3 91 111 50 
3 115 108 117 
3 46 112 110 
3 220 98 40 
3 111 105 47 
3 98 116 47 
3 108 42 117 
3 218 44 41 
3 117 42 49 
3 46 44 112 
3 93 210 212 
3 213 209 208 
3 41 115 218 
3 48 50 107 
3 161 103 186 
3 93 212 109 
3 218 217 44 
3 212 210 215 
3 210 209 213 
3 116 98 220 
3 109 113 114 
3 103 114 186 
3 110 118 220 
3 214 111 47 
3 111 214 50 
3 215 210 213 
3 164 162 161 
3 110 112 118 
3 187 117 49 
3 115 219 218 
3 115 117 219 
3 218 215 213 
3 218 213 217 
3 211 213 208 
3 207 107 50 
3 211 208 107 
3 212 113 109 
3 107 207 211 
3 44 217 112 
3 116 214 47 
3 186 164 161 
3 217 222 112 
3 220 118 221 
3 207 50 214 
3 112 222 118 
3 220 221 116 
3 164 163 162 
3 185 184 194 
3 118 222 221 
3 217 213 222 
3 219 215 218 
3 116 221 214 
3 187 219 117 
3 189 194 184 
3 216 219 187 
3 213 211 222 
3 211 207 214 
3 184 185 190 
3 219 216 215 
3 221 211 214 
3 193 212 215 
3 188 186 114 
3 120 187 49 
3 222 211 221 
3 120 49 163 
3 165 164 186 
3 190 185 182 
3 164 167 163 
3 185 181 182 
3 186 188 165 
3 192 189 184 
3 194 181 185 
3 167 120 163 
3 113 212 193 
3 167 164 174 
3 188 114 113 
3 216 193 215 
3 182 181 174 
3 174 173 167 
3 173 174 181 
3 174 177 182 
3 177 174 197 
3 192 184 190 
3 194 195 181 
3 164 171 174 
3 131 216 187 
3 190 198 192 
3 190 182 177 
3 171 197 174 
3 173 181 199 
3 189 192 204 
3 192 198 204 
3 187 191 131 
3 194 204 195 
3 194 189 204 
3 191 187 120 
3 113 196 188 
3 173 166 167 
3 190 177 198 
3 120 167 166 
3 199 181 195 
3 193 216 131 
3 196 113 193 
3 166 191 120 
3 177 197 200 
3 200 198 177 
3 168 165 188 
3 165 169 164 
3 199 195 201 
3 172 191 166 
3 173 199 166 
3 164 169 171 
3 188 196 168 
3 201 195 204 
3 205 200 197 
3 205 197 171 
3 169 165 168 
3 193 131 196 
3 202 131 191 
3 202 191 172 
3 205 171 169 
3 203 166 199 
3 170 168 196 
3 203 201 204 
3 199 201 203 
3 203 172 166 
3 172 203 178 
3 196 131 170 
3 198 200 204 
3 183 205 169 
3 170 131 202 
3 205 183 200 
3 183 204 200 
3 183 169 180 
3 202 172 175 
3 178 203 179 
3 179 203 204 
3 172 178 175 
3 204 183 179 
3 176 169 168 
3 180 169 176 
3 175 170 202 
3 183 176 179 
3 168 170 176 
3 176 170 175 
3 175 179 176 
3 176 183 180 
3 178 179 175 
