ply
format ascii 1.0
comment VCGLIB generated
element vertex 447
property float x
property float y
property float z
element face 867
property list uchar int vertex_indices
end_header
-0.0288609 -0.070556 -0.029672 
-0.106192 -0.0338362 -0.135569 
-0.0914706 -0.00680957 0.0757649 
0.0016146 0.0798156 -0.0619652 
0.109867 0.120666 -0.128511 
-0.163087 -0.0407004 -0.172241 
-0.120839 0.123243 -0.17537 
-0.0319222 -0.11697 0.0402318 
-0.031365 -0.00987863 0.184268 
-0.06545 -0.0255226 0.047072 
0.134345 0.134244 -0.162901 
-0.127147 0.0131458 -0.100419 
0.00704199 -0.0547916 -0.0827962 
0.193153 -0.0244721 -0.149157 
0.0168967 0.0682197 0.0840242 
-0.0963247 -0.0115206 -0.107099 
-0.0033479 -0.118613 -0.0293711 
-0.156562 0.0904868 -0.132884 
0.125449 -0.0202653 -0.127579 
0.0356556 0.0660963 0.087536 
0.184229 0.0227037 -0.116853 
-0.109632 -0.0435603 -0.148554 
-0.0315159 -0.123984 0.0910598 
0.0123294 -0.149013 0.0403841 
-0.106322 0.0595849 -0.0806978 
-0.0603618 -0.0770407 0.0689222 
-0.0170564 0.147227 -0.187746 
-0.123804 -0.0587056 -0.176057 
0.129994 -0.0400375 -0.136153 
0.0222361 -0.0508926 -0.139714 
0.148127 0.120893 -0.152917 
-0.0657661 -0.00318566 -0.0822971 
0.0381817 -0.111204 0.0153398 
0.0439729 -0.111187 0.0634404 
-0.0944141 0.000542349 -0.0945156 
-0.153369 -0.0314329 -0.182503 
0.000434002 -0.0757625 -0.187694 
0.0502943 -0.118388 0.0442049 
-0.00889093 -0.0815071 -0.18703 
-0.158824 0.108073 -0.149176 
0.0601095 0.0495488 0.116514 
0.187436 -0.00236019 -0.127536 
-0.0115676 -0.133862 0.102214 
-0.0835167 0.0181201 -0.071225 
0.0303869 0.144963 -0.188227 
-0.164185 -0.0438084 -0.156003 
-0.0592812 0.144323 -0.189593 
0.102884 -0.0522208 -0.168753 
-0.110244 0.066077 -0.0886585 
-0.095778 0.127459 -0.130227 
-0.105833 -0.0579995 -0.186595 
-0.0563132 -0.00270786 0.0235526 
-0.000611301 0.0649028 0.130753 
-0.0201174 0.0828911 -0.0624479 
0.100787 -0.00610956 0.0878457 
-0.00260538 -0.124366 0.0143108 
-0.190616 -0.0395755 -0.165547 
-0.0076238 0.0198369 0.18412 
-0.0123157 -0.116839 0.0404735 
-0.0234265 -0.0449658 -0.134264 
-0.00867402 -0.113776 0.0704578 
-0.196052 -0.00852733 -0.153528 
0.0692067 0.140077 -0.187292 
0.0187597 0.0546407 0.0221519 
-0.0112911 0.0494534 0.00837505 
0.167304 0.0973774 -0.13757 
0.167681 0.062975 -0.176191 
0.136293 -0.0510219 -0.153188 
-0.133034 -0.0240778 -0.126979 
-0.0779252 -0.0396758 -0.148543 
0.000719548 0.131517 -0.145531 
-0.0928685 0.0469133 -0.0707355 
0.134268 -0.0413734 -0.159701 
0.0799485 -0.0232056 0.0589789 
-0.0394979 -0.0520618 -0.0252831 
-0.0534911 0.145091 -0.169174 
-0.0391436 -0.104144 0.0677083 
0.120593 -0.00779657 -0.10972 
0.0936275 -0.0308724 -0.126832 
0.0376125 0.101501 -0.0885565 
0.0360365 0.0767541 -0.0549079 
0.0768792 0.063527 -0.0576384 
0.0794378 -0.0400453 0.0838993 
0.051841 -0.0628956 -0.0316919 
0.110392 0.0446353 -0.0696171 
-0.185281 0.0414916 -0.154575 
-0.0509858 0.138438 -0.151063 
0.168392 0.0744826 -0.161447 
0.176925 -0.0264596 -0.141757 
0.0643538 -0.0250875 0.164608 
-0.074219 -0.0253145 0.131678 
-0.0536131 -0.0883212 0.0989391 
-0.0454992 -0.0262941 -0.108269 
0.0740276 -0.00410305 0.152616 
0.0443338 -0.11443 0.0267641 
-0.00776857 0.0910531 -0.0641642 
-0.0635585 -0.0521985 0.0923306 
-0.0852182 0.145176 -0.166354 
-0.0706958 0.0221628 0.129643 
-0.0510335 -0.0391498 -0.130134 
0.141122 0.0697169 -0.0966783 
-0.0998535 -0.022266 -0.119669 
0.0252311 -0.0684521 -0.0606325 
0.0979965 -0.0153766 -0.10129 
-0.0237898 0.0694103 0.117454 
-0.0278899 -0.117316 0.0811734 
0.0149868 0.0629648 0.0552791 
-0.0163351 -0.121919 0.0837088 
0.0780412 -0.0302677 0.0284251 
0.11269 -0.0575482 -0.189682 
-0.138863 0.130258 -0.153175 
0.00901944 0.0647097 -0.0440435 
0.0448775 0.12725 -0.137424 
-0.100145 0.132192 -0.188299 
-0.148505 0.0952275 -0.189079 
-0.0999198 0.0312907 -0.0751879 
-0.0566637 -0.012699 -0.068306 
-0.16863 0.062567 -0.174784 
0.186724 0.031425 -0.14836 
-0.140671 0.0490965 -0.101908 
-0.0788655 0.0510646 -0.060738 
0.0374957 -0.0420522 -0.129155 
0.0775412 -0.0136525 -0.0262793 
-0.152277 0.0927222 -0.174913 
0.179783 0.0156111 -0.164263 
-0.0358145 0.0399376 0.160369 
0.0639643 -0.108708 0.0438378 
0.0230729 -0.124703 0.0381731 
-0.0528863 -0.0189008 -0.0746827 
0.0763661 -0.0337479 0.139939 
-0.158862 0.0299144 -0.110614 
-0.179813 0.019813 -0.170178 
-0.139688 -0.0477634 -0.156127 
-0.0449251 -0.107517 0.101774 
-0.117593 0.135339 -0.166922 
0.161384 -0.00271422 -0.1165 
0.183083 -0.044456 -0.166907 
-0.164679 -0.0515886 -0.170021 
-0.0390028 0.0184416 0.173725 
0.160143 -0.0123301 -0.123611 
0.00218742 0.0719051 0.104453 
0.034992 -0.0924827 -0.0279817 
0.070348 -0.028869 -0.0823377 
0.10958 -0.0567926 -0.177303 
0.0567538 0.00839278 0.167908 
-0.165304 -0.00165828 -0.120855 
0.143509 -0.0640696 -0.174575 
-0.000380287 0.0778484 -0.0527719 
0.149401 0.00843403 -0.102905 
0.0102108 -0.0410679 -0.133483 
-0.0522287 -0.013827 0.170393 
0.0304183 0.0581152 -0.0410629 
0.0352312 0.0444736 0.0123114 
0.000405829 -0.132733 0.0656354 
-0.076403 0.103916 -0.0980053 
-0.0662967 -0.00374211 0.0584534 
0.168282 -0.019145 -0.131633 
0.0863562 -0.0263689 0.0884927 
0.174545 -0.012292 -0.131908 
-0.0510726 -0.0463412 -0.000449414 
0.122042 -0.0201257 -0.112012 
0.0979411 -0.00160411 0.0771717 
0.136325 -0.0476104 -0.178311 
0.0442384 -0.105398 -0.0140685 
-0.0495552 -0.0685967 -0.187305 
0.0962811 -0.0175547 0.0954879 
0.0260633 0.00398992 0.185368 
-0.0802885 -0.00802321 0.0383703 
-0.0165431 -0.0450174 -0.0981184 
-0.0724738 -0.0654865 -0.186543 
0.151847 0.0905367 -0.189607 
0.162903 -0.0501377 -0.170635 
0.187639 -0.0314295 -0.151063 
-0.0233334 -0.107515 -0.000731651 
0.158371 0.0657732 -0.107977 
0.0117449 0.120259 -0.121393 
-0.0604978 -0.0486008 0.0236746 
0.198571 0.013402 -0.130578 
0.0515431 -0.075684 0.156628 
-0.0118136 -0.0573082 -0.067642 
-0.000866437 -0.069554 -0.164943 
0.0190218 0.139182 -0.173437 
0.0607831 0.0713994 -0.0585159 
0.0634561 0.137557 -0.163185 
-0.167601 0.0627313 -0.18963 
0.0696142 -0.0658553 0.127432 
0.163636 -0.0473635 -0.164751 
-0.0556678 -0.0125323 -0.0215691 
0.0233104 -0.118482 0.134667 
-0.137537 -0.0396151 -0.146195 
-0.180119 0.0324138 -0.124936 
0.130919 0.1149 -0.178308 
-0.167824 -0.00688846 -0.183709 
-0.0394912 -0.10806 0.0728774 
0.0389373 -0.107806 0.137903 
0.0623115 -0.0437824 -0.130724 
0.0457319 -0.0521377 -0.0600662 
-0.0129428 0.0666774 0.0727233 
0.168998 -0.0102446 -0.174511 
0.13199 -0.0550646 -0.159683 
0.0801665 -0.0488471 0.0510604 
0.0667613 0.0118167 -0.020591 
0.0312413 0.0553546 0.0382699 
0.0100202 -0.128336 0.0799529 
0.0521721 -0.0577944 -0.150465 
0.166086 0.0458288 -0.10435 
0.0519845 0.0916073 -0.0785491 
-0.0376324 0.116737 -0.107582 
-0.172617 0.0873723 -0.144854 
0.0299864 0.0910908 -0.0657349 
-0.0505422 -0.0243419 -0.0864175 
0.167717 0.0233521 -0.106934 
-0.0671057 0.0120115 -0.0608044 
-0.0593821 0.0371433 -0.0450197 
0.0579504 -0.0974633 0.0748955 
-0.0344289 -0.106269 0.136334 
0.0197595 0.0981777 -0.0756821 
-0.114563 -0.0566646 -0.16892 
0.0814678 0.00304261 0.0821386 
-0.0193352 -0.10331 -0.0167332 
0.0933643 0.0352125 -0.0575123 
-0.0153657 -0.111377 0.0125461 
-0.13373 0.128592 -0.164713 
-0.0143684 -0.0742056 0.178255 
0.0336371 0.0649842 0.121759 
0.095893 -0.0385479 -0.139619 
-0.0574271 -0.0144368 0.0301768 
-0.0651224 0.0402096 -0.0565529 
0.0934124 -0.0134725 0.068447 
-0.138002 0.0341847 -0.0951675 
-0.154072 0.0629919 -0.11356 
0.0102745 -0.103947 -0.0340191 
0.0979972 -0.00611709 0.0598046 
-0.0290815 0.0384977 0.0175632 
-0.0359433 -0.103931 0.00575684 
-0.0526179 0.0549806 0.112601 
-0.0460916 0.043378 0.059687 
-0.178727 -0.0160908 -0.168944 
0.152021 0.0941143 -0.120142 
-0.0453392 0.0602684 -0.0545364 
-0.0687892 -0.0244134 -0.120217 
0.0855359 -0.0179037 0.0827125 
-0.13759 -0.0137609 -0.124256 
0.0669568 -0.0598511 0.147401 
0.0318532 -0.121386 -0.0176693 
0.0731697 -0.0194642 0.0267871 
-0.0591995 0.0707072 -0.0676449 
0.0905569 0.13985 -0.170199 
-0.0343283 0.029576 -0.00444981 
0.081024 -0.0205741 -0.0773666 
0.0103482 0.0565553 -0.0319186 
0.060105 -0.0392425 -0.0939205 
0.0149873 -0.135159 0.0984922 
0.081597 -0.012285 -0.0657859 
-0.0461347 0.0131348 -0.0269151 
-0.184897 -0.00384499 -0.131611 
0.131664 -0.0345361 -0.148464 
-0.0848847 -0.051535 -0.172426 
0.124242 0.0294997 -0.0784312 
-0.13192 0.00205713 -0.110571 
0.1164 -0.00187079 -0.0919384 
-0.0519498 -0.0323652 -0.0135619 
-0.117201 0.0202542 -0.0877919 
-0.0262299 -0.125573 0.110835 
0.0250954 0.0319079 0.173041 
-0.134957 -0.0316069 -0.136935 
-0.167785 0.0165285 -0.118644 
0.0375893 -0.126105 0.0941535 
0.0505265 0.0387178 -0.0262488 
-0.0453643 0.0542508 0.133521 
-0.0743895 0.0752069 -0.0747623 
0.0724536 -0.0685369 -0.184756 
0.0931629 0.129983 -0.145584 
0.0927509 -0.0245476 -0.117015 
-0.198206 0.0134081 -0.136749 
0.0524174 0.0423309 0.147352 
-0.0422341 -0.0576988 -0.160031 
-0.0683281 0.0213617 0.0859988 
0.0217386 -0.126522 -0.00157952 
0.0597812 -0.112585 0.0984552 
0.0620437 0.110017 -0.104656 
0.0551177 -0.0755869 -0.186373 
0.158419 -0.0343727 -0.173563 
-0.0348015 -0.034997 -0.0875139 
-0.00788345 -0.090173 -0.0323183 
-0.0621191 -0.0135402 -0.099293 
0.0282591 -0.0755573 -0.182833 
0.0630731 -0.0789683 -0.00809223 
0.147752 -0.035225 -0.18661 
0.0545367 -0.106259 0.107264 
-0.0517461 -0.108511 0.0893189 
-0.199863 -0.0301759 -0.156037 
0.0601178 0.0460356 0.0840944 
-0.0518545 0.0684882 -0.0595434 
-0.0381511 0.0621346 0.0872906 
0.0765202 0.013762 0.061203 
-0.0189801 0.0454335 -0.00891657 
-0.0652652 -0.0507918 0.143923 
0.0489036 -0.0380949 -0.0932497 
-0.0706055 -0.00919599 0.149906 
0.097844 0.0172674 -0.0671175 
-0.0542142 -0.0865541 0.0304157 
0.00686657 -0.126129 0.00160756 
-0.0460002 -0.106694 0.0371792 
0.0294165 -0.121504 0.0536495 
0.0206721 -0.124192 -0.0300453 
0.170629 0.0104504 -0.189425 
0.0367418 -0.033673 0.18334 
0.123134 -0.0122662 -0.117715 
-0.0378892 0.0953419 -0.0807424 
-0.0546564 -0.0905353 0.0768555 
0.0745239 -0.0784338 0.0148833 
0.172109 -0.0360689 -0.152846 
0.195977 -0.0399502 -0.16126 
-0.198259 -0.0138617 -0.142468 
-0.0558588 0.0361277 0.148006 
0.00484343 -0.0197332 0.190225 
0.181342 0.0406882 -0.118513 
-0.00461589 -0.122547 -0.0227174 
0.200691 -0.0160487 -0.142956 
0.0783658 -0.0269843 0.0718578 
0.116647 0.122108 -0.189166 
0.148176 0.098939 -0.172151 
0.00575305 -0.13036 -0.014512 
-0.0570004 0.144043 -0.176695 
0.0447017 -0.113682 0.0805674 
0.00356342 -0.147233 0.0473983 
0.0305428 -0.0862005 0.165542 
-0.119347 0.0366479 -0.0854431 
-0.0599691 -0.0313919 0.0193857 
0.0684459 -0.0420769 -0.0196902 
-0.0119739 -0.096348 0.164849 
-0.18391 0.0639101 -0.134593 
-0.0625266 0.0161085 0.0570205 
0.042726 -0.0619024 0.171884 
0.0325577 -0.11583 0.044895 
0.0973419 -0.0441274 -0.1515 
-0.0875655 -0.0189358 0.0809006 
0.056611 -0.10373 0.00673505 
0.0612951 0.043947 -0.0416964 
-0.127594 -0.0121504 -0.113733 
-0.0207534 0.142737 -0.173211 
0.114854 0.107003 -0.112003 
-0.142307 -0.0561325 -0.171654 
-0.0757593 0.00240753 0.130629 
0.0576441 -0.107301 0.083434 
0.0252874 -0.0647243 -0.164772 
-0.045849 -0.0354118 -0.0414935 
-0.0194052 0.0538403 -0.0420608 
0.0101724 -0.0823478 -0.052235 
-0.000153982 -0.128704 0.0813463 
-0.0574498 0.042327 0.0802155 
0.0223274 -0.109838 0.0787656 
-0.0153285 0.100721 -0.0827254 
-0.0420363 -0.0614608 0.166804 
-0.0318272 -0.042881 -0.0616896 
0.0856719 0.0697258 -0.0693844 
-0.194221 0.0393871 -0.13374 
-0.0675493 -0.0196785 0.0633516 
-0.0683841 -0.0454441 -0.151639 
0.0726235 0.028079 0.0893218 
-0.0157973 0.0517041 0.156558 
0.185764 -0.0180015 -0.162062 
-0.103502 0.0967476 -0.103442 
0.139599 0.0462254 -0.0880635 
-0.073636 -0.0179946 0.0408002 
-0.156071 0.0144265 -0.109109 
0.091015 -0.0188155 0.0422636 
0.122065 0.137691 -0.166827 
0.0163417 -0.0434406 -0.0978266 
0.135807 0.114594 -0.130289 
-0.0419893 -0.0857137 0.151041 
-0.111779 -0.0515514 -0.160287 
-0.0152608 -0.0395313 -0.0937048 
0.0195687 -0.130051 0.0112134 
0.117959 0.0014491 -0.0989343 
-0.125406 0.00260252 -0.100927 
0.0878571 -0.0115925 -0.0894719 
-0.0725078 -0.0309729 -0.132661 
0.0737351 -0.0474859 0.0971824 
-0.0685117 -0.0460337 0.0671415 
-0.00297385 -0.0381098 -0.117392 
-0.0766519 -0.0248427 0.0837019 
-0.0170903 -0.0466487 0.185363 
-0.022401 -0.0755906 -0.187447 
0.121212 0.132116 -0.150583 
0.088566 -0.00120344 -0.0606911 
0.0859632 -0.0105921 0.0992354 
-0.0213345 0.0588892 0.0554469 
0.10965 0.00808774 -0.0817556 
-0.182591 0.0149624 -0.125928 
-0.01328 -0.120576 0.0520874 
0.0758152 0.0440335 -0.0439646 
-0.026471 0.060353 -0.0456073 
0.0479638 -0.037862 -0.11243 
-0.0643129 -0.0658455 0.129506 
-0.0546992 0.00471794 -0.0510651 
0.128713 -0.0272952 -0.138643 
-0.171684 -0.0210191 -0.13706 
0.10608 0.0911576 -0.0932042 
0.0208787 0.0513159 -0.00972615 
-0.0728742 -0.00149722 0.0753738 
0.0752827 -0.049982 -0.148252 
-0.0112565 0.0361118 0.173115 
-0.0468373 -0.0800786 -0.000311672 
-0.0131706 -0.120847 0.0198723 
0.0740866 0.0179502 0.136434 
-0.0870916 -0.00379879 0.0559543 
-0.133428 0.111832 -0.135944 
0.0757728 -0.0254926 -0.105459 
0.170597 0.0478702 -0.189592 
-0.174566 0.0262084 -0.186893 
-0.0500988 0.0166298 0.028699 
0.189989 0.0538387 -0.126842 
0.0708671 0.00316202 0.0335593 
-0.0279681 -0.0356482 -0.11613 
0.0752917 -0.0342448 0.0149931 
0.00060822 0.0518405 -0.0165245 
-0.0578526 0.0146823 0.160505 
-0.0890512 0.139084 -0.174494 
0.0171282 -0.128637 0.0175552 
0.117181 0.0597661 -0.0782397 
0.000500496 -0.12819 0.0334125 
0.172239 0.0148006 -0.179818 
0.141497 0.0229564 -0.0897869 
0.0592553 0.0186904 0.0252646 
0.0877168 0.0194932 -0.0483772 
0.0730889 -0.00951962 0.0457376 
0.0137538 -0.0646219 0.182853 
-0.0414267 0.0388703 -0.0407204 
0.0616794 -0.0569703 -0.018087 
0.015218 -0.0460083 -0.10132 
0.0102025 -0.0965846 0.166814 
0.140679 -0.057799 -0.165826 
-0.0735715 -0.0261205 0.0250357 
0.0650136 -0.0805805 0.10014 
0.0245205 -0.0849507 -0.0429356 
0.0239092 0.0513485 0.15348 
-0.17316 -0.0339781 -0.150202 
-0.048636 0.130721 -0.132912 
0.0761767 0.0134182 -0.0450401 
0.0789533 -0.00359122 0.0670315 
-0.0810458 -0.0130535 0.0571341 
-0.00164034 -0.118583 0.138406 
0.034443 -0.123605 0.114194 
0.0740419 -0.0771181 0.0751484 
-0.00908893 -0.131715 0.0412789 
3 321 191 170 
3 411 117 184 
3 184 117 114 
3 170 66 410 
3 321 62 247 
3 6 113 114 
3 288 162 109 
3 423 306 410 
3 109 162 143 
3 109 143 271 
3 286 346 36 
3 117 123 114 
3 324 26 46 
3 66 170 322 
3 27 35 50 
3 6 114 123 
3 321 247 191 
3 117 411 131 
3 423 198 306 
3 288 282 162 
3 50 169 257 
3 276 164 384 
3 192 131 411 
3 66 423 410 
3 164 359 169 
3 281 204 286 
3 113 324 46 
3 35 27 343 
3 419 113 6 
3 288 198 282 
3 170 191 322 
3 198 288 306 
3 35 237 192 
3 26 181 44 
3 324 113 419 
3 146 143 162 
3 131 192 237 
3 257 217 50 
3 36 180 38 
3 35 343 5 
3 222 6 123 
3 276 359 164 
3 62 44 183 
3 324 75 341 
3 341 26 324 
3 181 183 44 
3 35 5 237 
3 324 419 97 
3 181 26 341 
3 146 162 433 
3 27 217 343 
3 271 47 402 
3 384 38 180 
3 217 27 50 
3 143 47 271 
3 282 171 162 
3 198 423 124 
3 191 368 322 
3 384 180 276 
3 146 47 143 
3 343 137 5 
3 146 433 47 
3 362 282 198 
3 134 6 222 
3 97 75 324 
3 180 36 346 
3 247 368 191 
3 281 402 204 
3 257 169 359 
3 271 402 281 
3 6 134 419 
3 247 62 183 
3 282 136 171 
3 137 56 5 
3 134 97 419 
3 162 171 186 
3 5 56 237 
3 66 118 423 
3 362 198 124 
3 136 186 171 
3 322 87 66 
3 286 204 346 
3 124 423 118 
3 136 282 362 
3 186 72 162 
3 368 10 322 
3 137 45 56 
3 134 222 110 
3 70 341 86 
3 372 217 257 
3 181 70 183 
3 136 362 313 
3 70 181 341 
3 291 237 56 
3 341 75 86 
3 131 85 117 
3 343 217 372 
3 56 45 438 
3 237 61 131 
3 313 186 136 
3 137 343 45 
3 47 433 199 
3 291 56 438 
3 117 208 123 
3 123 39 222 
3 183 272 247 
3 247 385 368 
3 343 372 132 
3 199 336 47 
3 336 402 47 
3 131 61 85 
3 257 359 69 
3 67 433 162 
3 10 368 385 
3 322 10 30 
3 385 247 272 
3 67 162 72 
3 222 39 110 
3 372 257 69 
3 61 237 291 
3 343 132 45 
3 97 86 75 
3 313 312 186 
3 72 186 312 
3 199 67 336 
3 322 30 87 
3 124 118 362 
3 199 433 67 
3 87 118 66 
3 362 13 172 
3 276 180 59 
3 312 256 72 
3 312 313 172 
3 313 362 172 
3 372 21 132 
3 208 117 85 
3 69 21 372 
3 362 118 13 
3 112 183 70 
3 189 45 132 
3 208 39 123 
3 346 29 180 
3 149 59 180 
3 97 134 49 
3 276 99 359 
3 45 189 438 
3 189 132 21 
3 30 10 385 
3 183 112 272 
3 319 13 118 
3 67 72 256 
3 87 30 65 
3 398 291 438 
3 29 149 180 
3 85 61 274 
3 61 291 314 
3 346 204 29 
3 312 172 88 
3 256 312 88 
3 67 256 28 
3 87 65 413 
3 49 134 110 
3 39 408 110 
3 336 67 28 
3 30 385 370 
3 13 319 88 
3 398 314 291 
3 21 69 1 
3 21 1 189 
3 272 4 385 
3 336 28 225 
3 314 274 61 
3 85 332 208 
3 70 86 439 
3 13 88 172 
3 118 87 413 
3 256 88 397 
3 208 17 39 
3 177 118 413 
3 97 49 86 
3 398 438 189 
3 359 378 69 
3 397 88 156 
3 336 225 402 
3 204 121 29 
3 370 385 4 
3 439 86 49 
3 402 195 204 
3 118 177 319 
3 158 88 319 
3 265 398 189 
3 408 39 17 
3 30 370 65 
3 1 265 189 
3 378 1 69 
3 274 357 85 
3 99 276 59 
3 41 158 319 
3 175 112 70 
3 255 274 314 
3 28 256 397 
3 65 370 238 
3 332 85 357 
3 225 78 402 
3 314 398 255 
3 88 158 156 
3 17 208 332 
3 121 204 195 
3 378 359 99 
3 121 149 29 
3 274 255 390 
3 225 28 78 
3 110 408 49 
3 397 156 18 
3 41 319 177 
3 68 242 265 
3 357 274 390 
3 409 402 78 
3 238 413 65 
3 242 398 265 
3 398 145 255 
3 17 332 230 
3 18 156 139 
3 357 390 190 
3 68 265 1 
3 357 190 332 
3 195 402 409 
3 59 415 99 
3 18 28 397 
3 175 70 207 
3 381 59 149 
3 99 240 378 
3 378 240 101 
3 1 378 101 
3 332 190 230 
3 317 177 413 
3 415 59 381 
3 18 160 28 
3 101 68 1 
3 207 70 439 
3 112 280 272 
3 390 255 266 
3 145 398 242 
3 78 28 160 
3 272 280 4 
3 139 158 135 
3 99 92 240 
3 266 255 145 
3 158 41 135 
3 177 317 20 
3 158 139 156 
3 17 363 408 
3 370 4 342 
3 139 308 18 
3 273 78 160 
3 394 149 121 
3 139 135 308 
3 190 390 266 
3 340 242 68 
3 18 308 160 
3 195 394 121 
3 78 273 409 
3 68 101 340 
3 342 238 370 
3 177 20 41 
3 174 317 413 
3 145 366 266 
3 415 92 99 
3 363 17 230 
3 394 195 409 
3 77 160 308 
3 381 149 394 
3 413 238 174 
3 130 266 366 
3 145 242 259 
3 207 439 49 
3 190 266 130 
3 130 230 190 
3 363 49 408 
3 175 280 112 
3 41 20 211 
3 259 366 145 
3 205 20 317 
3 148 135 41 
3 103 409 273 
3 49 154 207 
3 340 101 15 
3 174 205 317 
3 340 259 242 
3 41 211 148 
3 77 308 135 
3 174 238 100 
3 211 20 205 
3 79 280 175 
3 130 119 230 
3 240 15 101 
3 273 160 103 
3 154 49 363 
3 148 77 135 
3 285 240 92 
3 240 285 15 
3 259 340 376 
3 342 4 280 
3 340 15 376 
3 168 415 381 
3 230 48 363 
3 148 375 77 
3 168 381 431 
3 381 394 431 
3 399 238 342 
3 415 168 92 
3 366 259 11 
3 130 366 229 
3 376 11 259 
3 207 353 175 
3 174 100 205 
3 377 409 103 
3 285 92 210 
3 238 399 100 
3 205 100 211 
3 130 229 119 
3 399 342 280 
3 229 366 11 
3 34 376 15 
3 154 309 207 
3 48 230 119 
3 15 285 34 
3 168 431 369 
3 100 364 211 
3 79 175 353 
3 77 375 260 
3 160 77 260 
3 424 148 211 
3 251 431 394 
3 431 251 298 
3 168 369 373 
3 298 369 431 
3 260 103 160 
3 48 119 229 
3 364 424 211 
3 11 328 229 
3 251 409 377 
3 92 168 283 
3 148 424 375 
3 409 251 394 
3 363 270 154 
3 283 210 92 
3 285 31 34 
3 270 363 48 
3 12 373 369 
3 34 262 376 
3 309 353 207 
3 11 376 262 
3 373 283 168 
3 285 210 31 
3 328 11 262 
3 79 206 280 
3 377 249 251 
3 258 424 364 
3 48 229 24 
3 280 206 399 
3 283 373 355 
3 364 100 421 
3 424 389 375 
3 260 375 389 
3 298 251 142 
3 179 373 12 
3 103 389 377 
3 24 229 328 
3 260 389 103 
3 196 369 298 
3 79 353 216 
3 31 43 34 
3 356 100 399 
3 216 206 79 
3 115 328 262 
3 373 179 355 
3 128 210 283 
3 356 399 206 
3 424 258 389 
3 34 43 262 
3 309 154 270 
3 100 356 421 
3 24 270 48 
3 262 43 115 
3 249 142 251 
3 31 210 116 
3 300 389 258 
3 328 71 24 
3 102 12 369 
3 102 349 12 
3 258 364 84 
3 353 309 53 
3 364 421 84 
3 377 389 300 
3 249 377 300 
3 210 128 116 
3 142 196 298 
3 115 71 328 
3 253 142 249 
3 309 270 246 
3 216 209 206 
3 270 24 246 
3 95 216 353 
3 309 246 53 
3 216 95 209 
3 386 249 300 
3 12 349 179 
3 31 212 43 
3 31 116 212 
3 249 386 253 
3 356 84 421 
3 102 369 196 
3 71 246 24 
3 95 353 53 
3 209 182 206 
3 84 300 258 
3 115 43 71 
3 356 182 81 
3 355 128 283 
3 182 356 206 
3 71 43 120 
3 246 120 293 
3 120 246 71 
3 3 209 95 
3 253 330 142 
3 84 220 300 
3 95 53 3 
3 120 43 212 
3 81 84 356 
3 53 246 293 
3 209 3 80 
3 120 212 227 
3 330 196 142 
3 182 209 80 
3 116 128 187 
3 220 426 300 
3 349 284 179 
3 81 220 84 
3 3 53 147 
3 293 239 53 
3 386 300 426 
3 147 80 3 
3 355 347 128 
3 386 440 253 
3 393 53 239 
3 120 239 293 
3 81 182 220 
3 116 396 212 
3 120 227 239 
3 426 440 386 
3 213 227 212 
3 53 393 147 
3 227 213 239 
3 436 349 102 
3 396 116 187 
3 392 220 182 
3 396 213 212 
3 80 392 182 
3 74 355 179 
3 392 426 220 
3 213 393 239 
3 392 80 151 
3 83 102 196 
3 348 111 147 
3 213 396 429 
3 396 254 429 
3 74 347 355 
3 392 440 426 
3 348 147 393 
3 111 151 80 
3 111 80 147 
3 393 213 429 
3 392 151 339 
3 429 348 393 
3 392 339 440 
3 440 201 122 
3 253 440 122 
3 250 111 348 
3 436 231 349 
3 151 111 250 
3 231 284 349 
3 284 0 179 
3 440 339 268 
3 83 436 102 
3 151 268 339 
3 231 436 141 
3 250 348 417 
3 261 128 347 
3 201 440 268 
3 83 196 330 
3 179 0 74 
3 16 284 231 
3 141 305 231 
3 16 231 305 
3 330 253 122 
3 348 429 248 
3 347 74 261 
3 151 250 400 
3 248 296 348 
3 305 323 16 
3 284 16 219 
3 141 244 305 
3 128 261 187 
3 163 244 141 
3 417 400 250 
3 141 436 83 
3 323 318 16 
3 83 330 430 
3 219 0 284 
3 254 248 429 
3 219 16 318 
3 400 268 151 
3 141 83 287 
3 348 296 417 
3 254 396 187 
3 278 305 244 
3 83 430 287 
3 0 159 74 
3 278 323 305 
3 287 163 141 
3 400 152 268 
3 0 219 404 
3 219 173 234 
3 152 201 268 
3 318 323 302 
3 404 219 234 
3 187 51 254 
3 74 159 261 
3 159 0 404 
3 245 416 122 
3 330 122 416 
3 219 318 173 
3 323 278 302 
3 296 64 417 
3 173 318 221 
3 417 63 400 
3 287 430 311 
3 248 233 296 
3 287 311 338 
3 318 302 221 
3 244 338 278 
3 152 425 201 
3 338 163 287 
3 64 63 417 
3 338 244 163 
3 414 245 122 
3 430 416 311 
3 51 248 254 
3 233 64 296 
3 159 329 261 
3 329 159 176 
3 221 302 55 
3 159 404 176 
3 32 278 338 
3 122 201 414 
3 63 152 400 
3 278 374 302 
3 374 278 32 
3 226 187 261 
3 374 55 302 
3 329 226 261 
3 416 430 330 
3 221 234 173 
3 201 425 414 
3 187 226 51 
3 51 412 248 
3 420 374 32 
3 234 221 405 
3 420 55 374 
3 55 405 221 
3 404 301 176 
3 405 55 420 
3 303 404 234 
3 245 108 416 
3 338 94 32 
3 303 301 404 
3 311 126 338 
3 416 200 311 
3 32 94 420 
3 434 226 329 
3 405 420 422 
3 412 233 248 
3 420 94 127 
3 152 63 202 
3 200 416 108 
3 108 245 367 
3 422 420 127 
3 338 126 37 
3 405 58 234 
3 434 167 226 
3 329 9 434 
3 9 329 176 
3 64 233 388 
3 7 303 234 
3 234 58 7 
3 37 94 338 
3 427 245 414 
3 94 37 335 
3 9 365 434 
3 63 64 388 
3 7 58 391 
3 434 365 167 
3 51 226 155 
3 202 292 152 
3 405 422 58 
3 245 427 367 
3 422 127 23 
3 412 236 233 
3 23 446 422 
3 202 63 106 
3 295 414 425 
3 446 58 422 
3 9 176 380 
3 295 425 152 
3 226 167 155 
3 127 94 335 
3 176 301 380 
3 412 51 333 
3 326 446 23 
3 152 292 295 
3 236 412 333 
3 197 63 388 
3 311 445 126 
3 23 127 304 
3 446 153 58 
3 367 73 108 
3 233 236 388 
3 200 445 311 
3 304 127 335 
3 7 76 303 
3 167 365 407 
3 155 333 51 
3 106 63 197 
3 365 9 442 
3 367 427 232 
3 304 326 23 
3 335 37 304 
3 365 442 407 
3 407 155 167 
3 326 153 446 
3 58 153 391 
3 326 304 203 
3 7 391 60 
3 441 427 414 
3 108 73 200 
3 232 427 441 
3 19 202 106 
3 9 358 442 
3 303 76 25 
3 60 76 7 
3 25 301 303 
3 200 73 320 
3 358 9 380 
3 37 33 304 
3 228 73 367 
3 333 155 401 
3 301 25 380 
3 441 414 295 
3 2 407 442 
3 19 292 202 
3 228 367 232 
3 401 155 407 
3 153 326 203 
3 352 304 33 
3 37 126 33 
3 106 197 14 
3 153 60 391 
3 445 214 126 
3 60 193 76 
3 214 33 126 
3 2 401 407 
3 19 106 14 
3 441 161 232 
3 200 320 82 
3 320 73 228 
3 236 333 351 
3 292 360 295 
3 442 358 2 
3 382 358 380 
3 401 277 333 
3 388 236 294 
3 203 304 352 
3 228 241 320 
3 214 325 33 
3 76 310 25 
3 358 382 337 
3 193 60 105 
3 350 60 153 
3 351 294 236 
3 358 337 2 
3 295 218 441 
3 310 76 193 
3 325 352 33 
3 161 54 232 
3 351 333 277 
3 153 203 350 
3 218 161 441 
3 60 107 105 
3 445 200 82 
3 232 54 228 
3 60 350 107 
3 214 345 325 
3 96 380 25 
3 360 218 295 
3 320 157 82 
3 105 22 193 
3 214 445 345 
3 54 241 228 
3 388 294 197 
3 22 290 193 
3 320 241 157 
3 310 193 290 
3 382 380 96 
3 2 337 401 
3 352 325 267 
3 203 352 267 
3 401 337 382 
3 401 344 277 
3 445 82 379 
3 197 294 104 
3 203 252 350 
3 279 345 445 
3 290 91 310 
3 157 241 54 
3 96 310 91 
3 105 107 22 
3 161 218 54 
3 96 25 310 
3 54 218 387 
3 165 157 54 
3 197 140 14 
3 325 279 267 
3 203 267 252 
3 344 401 382 
3 104 140 197 
3 350 42 107 
3 107 42 22 
3 379 82 157 
3 325 345 279 
3 445 435 279 
3 379 435 445 
3 133 91 290 
3 22 133 290 
3 19 40 292 
3 252 42 350 
3 387 165 54 
3 294 351 235 
3 19 14 140 
3 165 387 157 
3 235 104 294 
3 382 90 344 
3 387 218 360 
3 351 277 98 
3 22 42 263 
3 279 289 267 
3 351 98 235 
3 91 395 96 
3 224 40 19 
3 435 289 279 
3 360 292 40 
3 263 133 22 
3 382 96 90 
3 379 157 129 
3 444 252 267 
3 224 19 140 
3 379 185 435 
3 267 289 444 
3 98 277 344 
3 269 104 235 
3 360 406 387 
3 395 90 96 
3 444 188 252 
3 185 289 435 
3 185 379 129 
3 91 133 395 
3 40 406 360 
3 289 194 444 
3 224 140 52 
3 443 42 252 
3 194 188 444 
3 263 215 133 
3 387 129 157 
3 275 40 224 
3 104 52 140 
3 252 188 443 
3 104 361 52 
3 315 269 235 
3 263 42 443 
3 263 443 215 
3 395 297 90 
3 194 289 178 
3 437 224 52 
3 40 275 406 
3 215 371 133 
3 185 243 289 
3 129 243 185 
3 93 387 406 
3 98 315 235 
3 93 129 387 
3 437 275 224 
3 395 133 371 
3 297 299 90 
3 437 52 361 
3 361 104 269 
3 344 90 299 
3 289 243 178 
3 432 443 188 
3 443 331 215 
3 299 98 344 
3 98 418 315 
3 395 371 297 
3 188 194 432 
3 178 327 194 
3 125 269 315 
3 215 331 371 
3 98 299 418 
3 432 331 443 
3 129 93 89 
3 371 354 297 
3 406 144 93 
3 269 125 361 
3 327 432 194 
3 89 243 129 
3 406 275 144 
3 178 243 89 
3 371 331 354 
3 150 297 354 
3 418 138 315 
3 125 315 138 
3 334 178 89 
3 299 297 150 
3 403 437 361 
3 331 223 354 
3 264 144 275 
3 275 437 264 
3 264 437 403 
3 144 89 93 
3 150 418 299 
3 334 327 178 
3 138 403 125 
3 150 138 418 
3 125 403 361 
3 144 264 166 
3 432 223 331 
3 150 8 138 
3 428 327 334 
3 223 432 428 
3 334 89 307 
3 383 150 354 
3 150 383 8 
3 89 144 307 
3 432 327 428 
3 383 354 223 
3 138 57 403 
3 307 428 334 
3 8 57 138 
3 57 264 403 
3 223 428 383 
3 307 144 166 
3 57 166 264 
3 428 307 316 
3 8 383 316 
3 383 428 316 
3 316 307 166 
3 316 166 57 
3 57 8 316 
