ply
format ascii 1.0
comment VCGLIB generated
element vertex 217
property float x
property float y
property float z
element face 57
property list uchar int vertex_indices
end_header
0.0175731 5.48216 -3.72276 
0.541305 7.5323 -4.47893 
0.744747 5.97484 -4.45867 
0.524754 5.10111 -2.25444 
1.44413 8.07472 -3.28173 
1.62088 7.53343 0.0600725 
1.17127 4.49806 1.00805 
1.27817 4.96287 2.53191 
0.766767 4.39534 3.57814 
-0.197859 4.15475 2.95236 
0.0644357 4.20443 4.43543 
1.86331 6.58928 3.16707 
1.67513 7.93852 3.66602 
-0.679093 5.54508 6.55767 
1.37803 4.30347 4.33982 
1.91127 4.90657 3.95601 
1.39244 1.19092 4.39847 
1.31463 3.28969 3.29296 
1.47234 3.18094 4.09382 
1.73708 4.01732 2.76281 
1.8932 2.71199 3.65815 
1.5209 1.21304 3.76603 
1.10632 -0.0242452 4.96588 
2.13379 0.261796 4.96637 
1.80046 -0.079754 4.31523 
1.97424 0.862584 4.23758 
1.3676 0.443603 5.28921 
1.93003 0.14822 5.43046 
1.84864 6.12021 5.27174 
1.13574 8.20764 1.82754 
1.14759 7.88911 6.95602 
0.925128 8.79992 4.28753 
0.987873 9.68024 6.83198 
1.38147 7.66975 5.44077 
0.376615 9.21902 8.70806 
1.57226 8.27998 7.21509 
0.0467065 7.54041 7.7818 
0.652576 7.9601 7.85821 
0.49807 8.06413 8.51301 
0.359525 8.04583 8.19947 
0.120967 7.41047 9.06198 
0.258011 8.21836 9.96469 
0.52345 9.18635 8.2546 
0.693262 9.10107 8.30935 
0.0902697 7.28547 9.0515 
0.558804 10.4772 7.20035 
1.22385 9.69124 7.47469 
0.742655 10.3356 7.67996 
1.37837 7.14159 -4.55464 
0.37564 5.37173 -3.60331 
1.90414 7.10844 -1.80044 
1.27326 5.67685 -4.77022 
1.29686 4.45303 -4.51588 
1.88153 4.68559 -2.74212 
1.8696 6.48708 -3.94723 
1.4154 5.81934 -1.08767 
1.32384 4.8148 -1.98619 
1.32713 3.254 -3.43389 
1.02063 3.28011 -4.40574 
1.53047 2.8062 -5.40365 
1.64494 2.63074 -4.41276 
1.38477 1.71227 -5.01383 
1.31266 1.80819 -5.65437 
1.90414 1.97209 -5.33273 
1.07647 0.212061 -5.53441 
1.16794 0.115835 -4.39485 
1.68558 0.0882493 -5.37566 
1.9159 0.816681 -5.0098 
1.99523 0.17183 -4.6583 
1.24547 0.900303 -5.09334 
0.734405 8.0754 -3.94973 
0.0286614 7.55348 -4.75011 
0.281502 8.41678 -4.03412 
0.68978 7.91421 -4.96481 
0.815921 7.32756 -7.2747 
0.598809 8.52945 -7.31781 
0.0676466 6.94879 -7.58061 
0.560188 7.72589 -9.59934 
-0.0125273 6.44143 -4.34006 
-0.061479 7.34358 -4.45892 
-0.54271 5.1514 -2.44452 
-0.315265 4.31059 -0.279509 
0.470596 8.54477 -2.32734 
-0.448647 8.43508 -3.10519 
-1.42963 8.07472 -3.28173 
-1.75536 6.54657 0.535709 
-1.26372 4.96149 2.53209 
-1.31799 4.71558 0.99919 
-0.736757 4.32237 3.6367 
-1.85187 6.61226 3.17298 
-1.46753 7.57313 -0.502236 
-1.84063 6.10473 5.22115 
-0.462194 8.3826 1.11415 
-1.36327 4.31025 4.34649 
-1.89677 4.90657 3.95601 
-1.21336 3.16644 3.5567 
-1.49141 2.38485 4.1708 
-1.72402 4.01454 2.76362 
-1.8787 2.71199 3.65815 
-1.5064 1.21304 3.76603 
-1.09182 -0.0242452 4.96588 
-2.11928 0.261797 4.96637 
-1.78596 -0.079754 4.31523 
-1.95974 0.862584 4.23758 
-1.31834 1.10988 4.4453 
-1.3531 0.443603 5.28921 
-1.91553 0.14822 5.43046 
0.387161 5.82773 6.84866 
-1.13724 7.92939 6.99897 
-1.27671 8.58526 3.67907 
-1.37381 7.69241 5.41859 
-0.779311 7.25866 7.33453 
-0.524318 10.154 7.90492 
-0.416005 9.29602 8.64037 
-0.654501 8.38726 8.37962 
-1.56959 8.26235 7.20671 
0.0536079 7.31144 9.09326 
0.0960069 7.86691 9.67898 
-0.541802 8.06555 8.03585 
-0.329078 7.54461 8.85796 
-0.294729 8.1739 9.85119 
-0.513424 9.1905 8.25847 
0.0525108 7.40074 9.12825 
-0.0615202 7.28438 9.05209 
-0.42962 10.4863 7.11028 
-1.12612 10.855 8.10528 
-0.995435 9.79362 6.89348 
-1.18489 9.76851 7.48114 
-0.596666 5.58314 -4.00362 
-1.30125 5.70617 -1.17232 
-1.36387 7.14159 -4.55464 
-1.28841 5.41465 -4.63271 
-2.05991 6.49903 -3.37664 
-1.96093 5.27316 -2.37134 
-1.31061 4.82474 -1.98016 
-1.36922 3.35087 -3.32792 
-1.00613 3.28011 -4.40574 
-1.51597 2.8062 -5.40365 
-1.63044 2.63074 -4.41276 
-1.37027 1.71227 -5.01383 
-1.29816 1.80819 -5.65437 
-1.88964 1.97209 -5.33273 
-1.06197 0.212061 -5.53441 
-1.11819 0.172306 -4.53229 
-1.67508 0.0942275 -5.37491 
-1.89538 0.825602 -5.05212 
-1.89734 0.132874 -4.50393 
-1.23096 0.900302 -5.09334 
-0.348524 8.40928 -4.97632 
0.0534294 7.53842 -4.73658 
-0.675484 7.74566 -4.43002 
-0.800476 8.31146 -7.32086 
-0.66711 7.27553 -8.32793 
-0.480726 7.66518 -9.66844 
-0.0039427 8.1514 -10.0259 
1.24306 0.364055 5.16105 
1.19401 0.193093 5.32091 
1.53693 0.300964 5.34865 
1.48792 0.133509 5.50872 
1.86339 0.286141 5.31557 
1.84257 0.118508 5.48137 
2.02167 0.284119 4.91341 
2.04626 0.0774817 5.07012 
-0.0656751 7.83658 9.43318 
0.017119 7.83659 9.455 
0.35346 7.79681 8.20775 
0.40051 7.94838 8.12054 
0.353341 7.66036 8.57039 
0.355457 7.77441 8.42752 
0.329748 7.65094 8.75442 
0.297483 7.51009 8.77841 
0.239242 7.64764 9.14176 
0.224984 7.43926 8.90782 
0.398491 7.97053 8.50226 
0.407605 8.13036 8.38531 
0.37216 8.01597 8.67718 
0.364945 7.86794 8.78864 
0.289286 8.01715 9.31327 
0.263384 7.59443 9.18084 
1.96826 0.3616 -4.81693 
2.05549 0.357662 -4.67457 
1.77338 0.361581 -4.56602 
1.77082 0.194412 -4.39821 
1.39687 0.365979 -4.52024 
1.34971 0.199572 -4.35841 
1.12503 0.437438 -4.73425 
1.08029 0.266921 -4.57662 
-1.22856 0.364055 5.16105 
-1.17951 0.193093 5.32091 
-1.52243 0.300964 5.34865 
-1.47342 0.133509 5.50872 
-1.84889 0.286141 5.31557 
-1.82807 0.118508 5.48137 
-2.00717 0.284119 4.91341 
-2.03175 0.0774815 5.07012 
-0.338959 7.79681 8.20775 
-0.386009 7.94838 8.12054 
-0.33884 7.66036 8.57039 
-0.340956 7.77441 8.42752 
-0.315247 7.65094 8.75442 
-0.282982 7.51009 8.77841 
-0.224741 7.64764 9.14176 
-0.210483 7.43926 8.90782 
-0.365558 7.9584 8.55075 
-0.407825 8.05189 8.38068 
-0.357659 8.01597 8.67718 
-0.350444 7.86794 8.78864 
-0.274785 8.01715 9.31327 
-0.248883 7.59443 9.18084 
-1.95376 0.3616 -4.81693 
-2.04099 0.357663 -4.67457 
-1.75888 0.361581 -4.56602 
-1.75632 0.194412 -4.39821 
-1.38237 0.365979 -4.52024 
-1.33521 0.199572 -4.35841 
-1.11053 0.437438 -4.73425 
-1.06579 0.266921 -4.57662
3 1 2 3
3 1 3 4
3 1 4 5
3 1 5 6
3 1 6 7
3 1 7 2
3 2 7 8
3 2 8 9
3 2 9 5
3 5 9 10
3 5 10 11
3 5 11 6
3 6 11 12
3 6 12 13
3 6 13 7
3 7 13 14
3 7 14 8
3 8 14 15
3 8 15 16
3 8 16 9
3 9 16 17
3 9 17 10
3 10 17 18
3 10 18 11
3 11 18 19
3 11 19 12
3 12 19 20
3 12 20 21
3 12 21 13
3 13 21 22
3 13 22 14
3 14 22 23
3 14 23 15
3 15 23 24
3 15 24 25
3 15 25 16
3 16 25 26
3 16 26 17
3 17 26 27
3 17 27 18
3 18 27 28
3 18 28 19
3 19 28 29
3 19 29 20
3 20 29 30
3 20 30 31
3 20 31 21
3 21 31 32
3 21 32 22
3 22 32 33
3 22 33 23
3 23 33 34
3 23 34 24
3 2 5 35
3  2 3 35
3 3 4 35
3 4 5 35