ply
format ascii 1.0
comment VCGLIB generated
element vertex 13
property float x
property float y
property float z
element face 22
property list uchar int vertex_indices
end_header
0.5 0.4 0.0 
1.0 1.6 0.0 
0.6 1.1 0.0 
0.4 1.1 0.0 
0.0 1.6 0.0 
0.0 0.0 0.0 
1.0 0.0 0.0 
1.8 1.7 0.0 
0.95 2.4 0.0 
0.05 2.4 0.0 
-0.7 1.8 0.0 
0.5 1.4 0.0 
0.5 1.2 -2.0
3 0 1 2
3 0 2 3
3 0 3 4
3 0 4 5
3 0 5 6
3 0 6 1
3 1 6 7
3 1 7 8
3 4 1 8
3 4 8 9
3 4 9 10
3 4 10 5
3 5 10 12
3 5 12 6
3 6 12 7
3 7 12 8
3 8 12 9
3 9 12 10
3 1 4 11
3 1 11 2
3 2 11 3
3 3 11 4 
