ply
format ascii 1.0
comment VCGLIB generated
element vertex 25
property float x
property float y
property float z
element face 50
property list uchar int vertex_indices
end_header
2.25695 41.6563 -50.3845 
22.8217 45.0852 -138.955 
8.95282 -12.8573 -141.548 
-35.755 -24.9611 -170.135 
-23.4411 22.6287 -135.865 
-55.0606 -68.2843 -118.916 
-93.5753 -55.2017 -128.927 
-80.2703 43.5661 -71.8779 
-80.27 61.7613 -8.15485 
-16.8471 -16.7624 11.1524 
-17.2308 4.72235 -26.7287 
-0.695687 26.3479 1.28685 
23.975 -54.5497 -72.5371 
-17.7012 -65.0251 -88.387 
-5.12323 -65.4923 -41.3332 
-87.5885 40.7277 -130.127 
-94.19 79.0664 -109.931 
-112.666 -7.21354 -85.3656 
-155.038 5.17627 -84.9647 
-128.07 -60.7649 -44.7762 
-66.3958 -63.9497 -48.113 
-74.315 -48.5427 -17.6004 
-123.549 -26.9201 -34.4083 
-26.3416 24.6262 -78.3753 
-17.0219 67.5895 -76.767 
3 23 1 0 
3 0 1 24 
3 24 4 23 
3 24 1 4 
3 23 4 2 
3 23 2 1 
3 2 3 1 
3 1 3 4 
3 4 6 5 
3 4 5 2 
3 2 5 3 
3 3 6 4 
3 5 6 3 
3 5 8 6 
3 6 7 5 
3 6 8 7 
3 7 8 5 
3 8 11 7 
3 11 10 7 
3 7 10 9 
3 7 9 8 
3 9 11 8 
3 9 12 11 
3 10 14 9 
3 14 12 9 
3 11 12 10 
3 12 14 10 
3 14 13 12 
3 12 16 14 
3 13 15 12 
3 16 15 14 
3 14 15 13 
3 15 16 12 
3 15 18 16 
3 16 17 15 
3 15 17 18 
3 16 18 22 
3 16 22 17 
3 17 19 18 
3 19 22 18 
3 17 20 19 
3 20 21 19 
3 19 21 22 
3 22 23 17 
3 17 23 20 
3 21 23 22 
3 20 0 21 
3 20 23 0 
3 21 0 23 
3 0 24 23 
