ply
format ascii 1.0
comment VCGLIB generated
element vertex 307
property float x
property float y
property float z
element face 610
property list uchar int vertex_indices
end_header
1.49564 0.507965 -1.15406 
-0.623125 1.08382 -4.55973 
-0.559772 -0.0322072 -3.60394 
-1.38769 0.252946 -0.535636 
1.13175 0.289646 -0.987542 
1.50511 2.34712 -0.0867778 
1.43671 1.18664 -0.794925 
-1.68743 1.70505 1.91045 
1.33257 -0.301083 2.53173 
-1.10677 -0.468558 2.60738 
-0.679542 -1.12703 4.08997 
-1.5268 0.402005 5.72568 
-1.81777 1.41536 4.7632 
-1.77234 1.9538 3.11611 
1.55288 -1.17637 2.60144 
1.55419 -3.4126 3.49229 
1.65835 -3.62805 4.3519 
1.70819 -2.11996 3.12605 
1.54039 -2.52851 4.20896 
1.38589 -4.38255 3.89675 
1.15879 -4.90286 5.1823 
1.33875 -5.31238 5.40125 
1.91383 -4.61962 4.07311 
2.11588 -5.34312 4.68115 
1.7957 -5.41079 5.34276 
-1.87013 -1.09775 3.18252 
-1.74913 -3.44323 4.25138 
-1.09945 -1.67954 3.49895 
-1.24797 -4.18208 4.17123 
-1.52404 -4.40851 4.65549 
-2.11854 -4.84865 4.69144 
-1.88263 -4.94726 4.18112 
-1.44364 -5.26876 5.46075 
-1.09935 -5.18943 5.26084 
-2.02849 -5.40095 4.97123 
-1.44447 -5.44038 4.26541 
-1.94075 -5.0726 5.41683 
0.0282897 0.898118 7.04508 
-1.03036 1.57509 6.17206 
1.00815 2.42001 7.10203 
1.07905 4.09637 6.82381 
1.82757 3.25513 7.27871 
0.314778 2.17931 8.94887 
0.473536 2.67474 8.60414 
0.752954 2.98009 8.1655 
0.540232 3.98683 8.6914 
0.465891 2.4707 8.01134 
-0.864347 4.2559 7.68906 
-0.816789 4.6576 6.95387 
-0.265978 3.72155 8.72875 
-0.633251 2.69269 7.93379 
-0.583004 2.51806 7.65175 
-0.0512916 1.79595 8.86181 
-0.673396 3.88612 8.4703 
-0.318649 2.45646 9.31326 
0.366017 2.92014 7.7139 
0.458746 2.60726 9.48965 
0.255805 2.89649 9.9422 
-0.294746 2.8301 9.8793 
1.14606 5.57753 8.17966 
0.661099 4.81558 7.73518 
-1.11704 5.57762 8.1953 
-1.20346 5.02786 7.30356 
1.47874 -0.917691 -4.29426 
1.31035 -1.99991 -3.32925 
1.74378 -2.675 -4.40288 
1.81487 -3.9768 -5.51792 
1.11206 -4.41323 -5.56344 
1.02807 -5.21806 -4.64944 
1.26213 -4.47274 -5.05244 
2.12136 -5.20309 -4.81779 
1.93147 -4.5875 -5.14299 
1.73768 -4.88151 -4.46595 
1.75617 -5.36548 -4.54124 
-1.6721 1.99587 -3.66157 
-1.50187 -2.55786 -5.46785 
-1.27155 -1.96649 -3.30423 
-1.19256 -3.57158 -5.43603 
-1.5044 -3.58988 -5.71903 
-1.20156 -5.30727 -5.44863 
-1.0236 -5.1143 -4.58057 
-1.33667 -4.26141 -5.09631 
-1.73825 -4.52831 -5.0798 
-2.13585 -5.1707 -4.75735 
-1.80915 -5.04433 -5.48405 
-1.882 -4.31591 -5.38781 
-1.47565 -5.36394 -4.43187 
-0.129951 3.13509 -5.32402 
-0.479859 2.20297 -4.48028 
-0.768623 2.3642 -5.95327 
0.821722 -0.084336 -1.66639 
1.49587 1.92675 -4.29896 
0.580589 2.86931 -3.58839 
-1.41552 2.64895 -3.47424 
-0.670718 2.99306 -1.21648 
-1.6826 1.324 -1.28986 
-1.45592 1.26845 -0.955877 
0.0686244 3.00585 0.906533 
1.76107 0.897701 0.546001 
-1.76915 1.27115 0.558739 
0.964058 -0.893483 4.62412 
0.923567 -0.698804 3.07261 
0.498852 -0.666715 5.50345 
0.594951 0.220959 6.59316 
1.78414 1.87263 3.01314 
1.45404 2.60984 2.12627 
1.34218 3.06268 3.01425 
1.35093 0.170861 5.92766 
0.582349 3.18615 2.36786 
0.00729119 -1.3187 3.91598 
-0.348707 -0.955675 4.97093 
-1.17875 3.05306 2.7077 
-0.791699 0.172663 6.44538 
-1.50548 2.34237 1.46675 
-1.92224 0.507855 3.34474 
-1.63621 0.91108 2.63951 
-0.939985 3.22471 3.1683 
-1.00411 2.76131 1.39407 
1.13465 -1.29655 4.0729 
1.96047 0.183729 4.24391 
1.29566 -3.1386 3.79822 
1.91421 -3.67127 4.10134 
1.38626 -4.315 4.5661 
1.16697 -5.39073 4.4156 
1.84398 -4.52029 4.58399 
2.19329 -4.95093 4.92019 
1.89458 -4.98699 5.38774 
-1.90665 0.236442 4.39496 
-1.86458 -1.70296 3.65959 
-1.37256 -1.14863 2.65875 
-1.63713 -3.9937 3.58655 
-1.87604 -4.03368 3.91156 
-1.88356 -4.17205 4.32716 
-1.17094 -4.98413 4.23381 
0.506499 1.19671 6.99581 
-0.493136 0.922194 6.90295 
1.18281 2.8261 6.7276 
0.139362 2.30438 7.77042 
1.06656 2.09916 6.92887 
1.29187 2.21399 5.55714 
1.28092 3.03995 4.84127 
-1.1367 2.64841 6.81863 
-0.748134 1.86901 7.37304 
1.15309 3.17551 7.67745 
1.65023 2.83079 7.22506 
-0.161901 4.67414 8.15977 
0.288233 3.7815 8.68898 
-1.76394 2.99162 7.27258 
-0.624671 3.05351 8.38505 
-0.266687 3.00857 7.69752 
-0.289366 2.25009 8.82759 
1.25565 4.31859 7.26228 
0.523763 5.07768 7.19841 
-0.66968 4.80135 7.69244 
-0.48208 5.06723 7.20481 
1.58668 0.675218 -4.59944 
1.8767 0.660772 -3.86602 
1.98815 1.07829 -2.29507 
1.87475 0.323936 -1.84638 
1.46847 0.165497 -1.52123 
1.10493 -2.40807 -4.71595 
1.54408 -2.63949 -5.51446 
1.53809 -1.71937 -3.11006 
1.8682 -2.79543 -4.83579 
1.2233 -4.0049 -5.16954 
1.65177 -5.17869 -5.54189 
1.35926 -4.87901 -4.4228 
1.18574 -5.27157 -5.49731 
-0.969202 -0.249248 -2.09087 
-1.17043 2.17825 -4.32092 
-0.918863 1.62299 -4.68899 
-1.62303 -1.49315 -3.90898 
-1.87705 -0.167227 -3.08957 
-1.98754 1.09125 -2.24446 
-1.13444 -2.66917 -4.76786 
-1.45335 -0.950574 -4.3538 
-1.7876 -2.29036 -4.02059 
-1.90672 -2.96239 -4.94108 
-1.14587 -4.4349 -5.62889 
-1.73271 -4.93758 -4.45866 
0.238432 3.08773 -3.59141 
0.249627 2.24558 -4.67793 
-0.587752 2.75708 -5.31895 
-0.800617 2.85166 -6.82241 
-0.155741 2.67937 -10.0867 
0.809415 -0.770478 -0.0647303 
0.728879 -0.219284 -2.32534 
0.638123 0.116447 -3.96644 
1.47673 2.71747 -3.3022 
0.745872 2.97349 -1.19797 
-0.263359 -0.922436 -0.665032 
-1.11407 0.289045 -1.06452 
0.430854 3.18545 -2.421 
-1.25504 2.83652 -2.71577 
-1.38714 2.43658 -0.794472 
-1.83889 1.84744 -1.84106 
0.937049 2.92339 0.0329967 
-0.0526491 3.1114 -0.337154 
-1.55386 1.85754 -0.14357 
-1.45007 -0.438485 1.00612 
0.735296 -0.977087 2.53687 
1.66012 0.683205 2.75761 
1.67888 1.17568 5.33914 
1.09613 2.74149 1.07483 
-0.642183 -1.11487 0.731979 
-0.626737 -1.03373 2.53854 
1.54731 -1.13247 4.13867 
1.85381 -1.11923 2.89608 
1.11353 -1.66557 3.61619 
1.40906 -1.77846 3.03545 
-1.35392 -3.02968 4.11482 
-1.39179 -1.90765 3.05752 
-1.09721 -1.26381 4.07632 
-1.8332 -2.58954 3.37773 
-1.69642 -1.23775 2.73532 
-1.54643 -1.87624 4.10174 
0.413879 4.68074 6.03231 
0.89932 4.09581 6.05221 
0.732112 4.7959 6.99414 
0.451729 4.00337 5.05653 
0.954015 1.48194 6.34076 
-0.872028 4.13165 6.08949 
-0.817463 2.34176 7.26325 
-1.25092 4.31337 7.4029 
1.12429 5.13718 7.36212 
1.2601 1.58628 -4.66223 
1.85152 1.8391 -3.1381 
1.43414 -1.98457 -4.93523 
0.912126 -2.0088 -4.23222 
1.3167 -2.79692 -4.52356 
-1.07512 0.13911 -4.72519 
-1.8596 -0.0362198 -1.99003 
-1.81655 0.717139 -4.00679 
0.573311 2.08777 -5.57814 
0.754387 2.95957 -6.72001 
0.365147 1.66498 -7.28471 
0.781725 2.69097 -8.3746 
-0.409309 3.25191 -7.12209 
-0.573246 1.80499 -6.9856 
-0.542818 1.8114 -8.43803 
-0.0832209 3.03592 -9.10322 
-0.464572 2.18883 -9.43464 
-0.0133376 1.07546 -4.36673 
-0.502392 -0.147071 -2.88494 
1.77022 1.98348 -1.31465 
-0.689573 -0.18771 -2.07662 
0.275159 -0.710504 -1.314 
-0.630082 2.84679 -3.61431 
-0.685394 3.11448 -2.40354 
-1.59231 0.340979 -1.45744 
0.609197 -1.14161 0.515597 
1.41083 0.308242 -0.525006 
1.4746 -0.431341 1.04789 
-0.983068 2.87758 0.0854097 
0.633458 -1.12426 3.81405 
1.60867 2.76988 3.80809 
1.97722 0.392287 3.29241 
-0.310452 -0.276214 6.18674 
1.93422 1.29889 4.34091 
1.62252 2.09935 0.918711 
0.0352894 -1.18693 2.41446 
-1.57314 0.144763 2.80815 
-1.3696 -0.110877 2.32353 
1.8166 -3.80692 3.63252 
1.93664 -1.80725 3.50832 
-1.55206 -1.07451 4.18935 
-1.3246 -3.26385 3.64778 
0.17235 3.31288 3.55459 
1.10535 3.27545 4.01765 
-0.878189 3.49466 4.35709 
-1.56081 2.84155 3.73184 
1.22019 3.29859 5.76213 
0.13116 1.64622 7.80751 
-1.10302 3.36142 6.6154 
-1.23657 3.15364 4.7388 
-0.484062 4.02811 5.1132 
-0.316883 4.82003 6.28835 
-1.10936 3.12387 7.67565 
1.38398 4.7582 7.66909 
1.18098 -0.71676 -4.54989 
1.27858 -1.17115 -2.39672 
0.946965 0.949527 -4.67169 
1.82166 -1.23976 -3.2835 
1.73062 -3.86625 -5.20264 
-0.718275 0.258477 -4.30694 
-1.12777 -0.874834 -4.4967 
-1.31535 -1.2523 -2.54226 
-1.46957 0.722094 -4.66419 
-0.87899 -1.84645 -4.14425 
-1.26475 -2.02408 -4.84378 
-1.38437 -2.90901 -4.59703 
0.403601 3.00598 -5.35363 
0.678385 2.21533 -4.49051 
0.640398 2.49601 -4.68513 
0.887748 2.41048 -6.652 
0.559952 3.17058 -7.10654 
-0.342099 2.03511 -5.51923 
0.471051 1.76599 -8.22573 
0.790715 2.07991 -7.9697 
-0.80801 2.38236 -8.35764 
-0.711883 2.85804 -8.09286 
0.394357 2.77919 -9.70655 
0.378132 2.08508 -9.53667 
1.29882 -3.72293 -5.70577 
-1.29164 2.23712 5.44281 
0.521016 -0.140364 -3.08776 
-0.722715 -0.765934 -0.343061 
3 187 242 281 
3 244 6 0 
3 306 191 245 
3 190 245 243 
3 3 249 191 
3 96 249 3 
3 180 247 248 
3 248 93 193 
3 193 94 248 
3 306 190 204 
3 194 198 113 
3 198 3 99 
3 257 110 102 
3 106 105 108 
3 220 134 107 
3 104 258 256 
3 202 107 119 
3 100 107 102 
3 107 100 206 
3 97 108 203 
3 259 203 105 
3 110 257 112 
3 10 109 110 
3 135 11 112 
3 135 38 11 
3 38 304 12 
3 113 111 117 
3 119 264 207 
3 120 19 122 
3 15 19 120 
3 124 263 121 
3 124 121 16 
3 20 122 123 
3 21 20 123 
3 122 20 21 
3 123 24 21 
3 122 21 24 
3 19 22 123 
3 23 24 123 
3 23 22 125 
3 125 22 124 
3 122 24 126 
3 23 124 126 
3 124 23 125 
3 124 122 126 
3 265 25 128 
3 211 266 130 
3 265 128 215 
3 130 28 133 
3 210 29 28 
3 31 131 130 
3 35 33 32 
3 133 33 35 
3 33 28 29 
3 29 32 33 
3 34 30 31 
3 34 31 35 
3 32 36 34 
3 32 34 35 
3 32 29 36 
3 35 31 133 
3 220 202 139 
3 135 37 142 
3 142 38 135 
3 144 39 136 
3 271 217 136 
3 216 218 217 
3 138 139 136 
3 267 275 219 
3 222 272 137 
3 141 142 222 
3 275 269 221 
3 218 216 152 
3 45 60 145 
3 41 143 144 
3 60 45 143 
3 44 55 46 
3 45 145 146 
3 57 146 49 
3 42 52 46 
3 137 46 52 
3 143 44 144 
3 56 146 57 
3 44 146 56 
3 137 144 44 
3 44 45 146 
3 154 152 276 
3 53 47 277 
3 49 58 57 
3 146 145 49 
3 145 53 49 
3 145 153 53 
3 52 50 51 
3 42 150 52 
3 50 52 150 
3 51 147 222 
3 147 51 50 
3 50 148 277 
3 223 273 147 
3 55 149 42 
3 54 50 149 
3 50 150 149 
3 54 56 58 
3 56 57 58 
3 218 224 151 
3 153 154 61 
3 47 153 223 
3 280 159 186 
3 155 91 156 
3 155 63 279 
3 158 157 244 
3 228 160 229 
3 229 160 303 
3 161 227 163 
3 65 282 162 
3 67 164 303 
3 283 71 66 
3 165 303 66 
3 163 66 161 
3 69 71 283 
3 67 167 68 
3 67 68 69 
3 68 166 69 
3 165 71 70 
3 72 71 69 
3 68 73 166 
3 73 68 167 
3 73 167 165 
3 73 71 72 
3 69 73 72 
3 73 69 166 
3 2 243 288 
3 284 2 285 
3 232 172 74 
3 95 173 231 
3 286 176 76 
3 78 77 178 
3 177 85 81 
3 177 75 78 
3 80 86 79 
3 80 79 178 
3 83 79 86 
3 83 84 79 
3 83 85 84 
3 179 83 86 
3 179 80 81 
3 86 80 179 
3 82 85 83 
3 291 87 180 
3 293 292 181 
3 291 234 295 
3 87 295 237 
3 183 87 237 
3 302 184 301 
3 251 4 159 
3 0 6 251 
3 0 251 159 
3 91 292 188 
3 2 284 242 
3 242 284 1 
3 2 305 243 
3 191 168 245 
3 180 248 192 
3 193 194 94 
3 195 194 193 
3 95 96 195 
3 93 247 169 
3 4 251 252 
3 185 4 252 
3 250 185 252 
3 196 97 203 
3 5 203 259 
3 98 5 259 
3 5 98 6 
3 251 6 98 
3 98 252 251 
3 97 196 197 
3 3 191 199 
3 117 197 253 
3 253 113 117 
3 113 198 99 
3 195 96 198 
3 3 198 96 
3 254 101 118 
3 8 200 252 
3 8 101 200 
3 252 201 8 
3 107 202 220 
3 103 102 107 
3 103 107 134 
3 255 258 104 
3 259 105 104 
3 104 256 201 
3 201 14 8 
3 119 256 258 
3 202 119 258 
3 98 259 104 
3 252 98 201 
3 9 262 205 
3 204 260 205 
3 112 10 110 
3 261 262 9 
3 10 9 205 
3 109 205 260 
3 113 13 111 
3 13 270 111 
3 257 103 112 
3 112 103 37 
3 12 270 13 
3 113 7 13 
3 12 13 114 
3 115 13 7 
3 115 114 13 
3 115 261 114 
3 115 262 261 
3 111 116 97 
3 111 97 117 
3 113 99 7 
3 101 8 14 
3 101 208 118 
3 256 119 207 
3 119 107 206 
3 101 14 209 
3 101 209 208 
3 17 263 15 
3 18 16 121 
3 17 209 14 
3 14 207 17 
3 17 207 264 
3 18 264 206 
3 120 122 16 
3 19 263 22 
3 263 124 22 
3 124 16 122 
3 15 263 19 
3 123 122 19 
3 123 22 23 
3 126 24 23 
3 112 265 10 
3 10 129 9 
3 10 212 27 
3 212 10 265 
3 25 114 261 
3 25 265 127 
3 12 114 127 
3 127 114 25 
3 215 212 265 
3 261 9 129 
3 129 214 261 
3 25 261 214 
3 266 210 28 
3 27 266 211 
3 215 210 212 
3 130 131 213 
3 131 26 213 
3 26 131 132 
3 214 129 211 
3 128 25 214 
3 28 130 266 
3 26 29 210 
3 130 133 31 
3 31 30 131 
3 132 131 30 
3 29 26 132 
3 132 30 29 
3 133 28 33 
3 36 29 30 
3 30 34 36 
3 219 268 267 
3 268 255 106 
3 103 134 37 
3 139 255 140 
3 135 112 37 
3 272 39 137 
3 40 217 218 
3 39 138 136 
3 39 272 138 
3 271 140 217 
3 138 220 139 
3 134 220 138 
3 138 272 134 
3 37 134 272 
3 275 48 276 
3 147 141 222 
3 141 147 273 
3 137 51 222 
3 273 48 221 
3 142 272 222 
3 304 141 273 
3 38 142 141 
3 274 304 273 
3 142 37 272 
3 216 276 152 
3 60 152 145 
3 55 44 43 
3 44 56 43 
3 143 45 44 
3 137 44 46 
3 136 41 144 
3 39 144 137 
3 151 60 143 
3 151 143 41 
3 48 154 276 
3 154 153 145 
3 47 53 153 
3 147 277 223 
3 50 54 58 
3 49 148 58 
3 53 148 49 
3 137 52 51 
3 58 148 50 
3 53 277 148 
3 147 50 277 
3 54 43 56 
3 43 54 149 
3 46 55 42 
3 149 55 43 
3 150 42 149 
3 151 224 278 
3 224 152 59 
3 152 224 218 
3 152 60 59 
3 278 60 151 
3 40 218 151 
3 59 60 278 
3 61 62 223 
3 154 48 62 
3 153 61 223 
3 281 279 187 
3 279 228 187 
3 186 228 280 
3 292 225 281 
3 90 159 4 
3 279 281 155 
3 91 188 226 
3 158 0 159 
3 226 157 156 
3 225 292 91 
3 161 160 227 
3 161 303 160 
3 160 228 227 
3 65 163 282 
3 65 283 163 
3 65 229 283 
3 165 67 303 
3 303 161 66 
3 283 164 69 
3 70 73 165 
3 71 165 66 
3 73 70 71 
3 167 67 165 
3 170 88 1 
3 170 1 230 
3 168 286 76 
3 172 173 74 
3 195 74 173 
3 95 195 173 
3 231 249 95 
3 286 168 249 
3 287 230 175 
3 169 247 88 
3 88 170 169 
3 77 289 174 
3 174 76 290 
3 77 174 290 
3 75 289 77 
3 289 288 174 
3 75 171 175 
3 75 177 171 
3 171 177 176 
3 76 176 290 
3 176 177 290 
3 85 78 84 
3 82 81 85 
3 290 177 81 
3 80 178 81 
3 179 82 83 
3 179 81 82 
3 84 78 178 
3 79 84 178 
3 234 291 293 
3 181 296 233 
3 181 292 88 
3 296 88 89 
3 296 181 88 
3 247 89 88 
3 293 294 234 
3 295 87 291 
3 236 234 294 
3 238 296 89 
3 299 89 183 
3 300 183 237 
3 298 302 236 
3 301 295 236 
3 301 236 302 
3 241 184 302 
3 301 184 240 
3 186 90 246 
3 90 4 185 
3 187 305 2 
3 92 192 188 
3 92 188 292 
3 245 190 306 
3 292 242 88 
3 5 6 244 
3 250 260 204 
3 190 250 204 
3 194 253 94 
3 109 254 100 
3 109 102 110 
3 118 100 254 
3 202 255 139 
3 205 199 204 
3 12 127 11 
3 262 115 199 
3 119 206 264 
3 120 209 15 
3 17 15 209 
3 18 121 264 
3 11 265 112 
3 269 116 274 
3 269 275 267 
3 111 270 116 
3 219 216 217 
3 48 275 221 
3 273 221 274 
3 223 277 47 
3 223 48 273 
3 224 59 278 
3 186 305 228 
3 158 162 282 
3 228 279 227 
3 162 280 64 
3 69 164 67 
3 229 303 164 
3 249 231 286 
3 288 168 76 
3 175 285 289 
3 233 294 293 
3 296 235 233 
3 295 234 236 
3 296 238 235 
3 297 302 298 
3 302 297 239 
3 294 298 236 
3 295 240 237 
3 240 300 237 
3 184 241 299 
3 185 246 90 
3 185 250 246 
3 246 243 186 
3 186 243 305 
3 187 2 242 
3 292 281 242 
3 180 192 92 
3 188 244 226 
3 192 189 188 
3 188 189 244 
3 189 192 197 
3 5 244 189 
3 0 158 244 
3 246 190 243 
3 249 168 191 
3 1 88 242 
3 74 195 93 
3 93 248 247 
3 94 197 248 
3 95 249 96 
3 248 197 192 
3 190 246 250 
3 197 196 189 
3 203 5 196 
3 5 189 196 
3 204 199 306 
3 191 306 199 
3 97 197 117 
3 253 197 94 
3 113 253 194 
3 195 198 194 
3 99 3 199 
3 200 260 250 
3 252 200 250 
3 200 101 254 
3 109 260 254 
3 200 254 260 
3 100 102 109 
3 202 258 255 
3 255 105 106 
3 257 102 103 
3 255 104 105 
3 201 256 14 
3 105 203 108 
3 104 201 98 
3 262 199 205 
3 10 205 109 
3 38 12 11 
3 97 116 108 
3 115 7 99 
3 99 199 115 
3 14 256 207 
3 100 118 206 
3 120 16 18 
3 208 209 120 
3 208 18 118 
3 208 120 18 
3 17 264 263 
3 264 121 263 
3 18 206 118 
3 127 265 11 
3 211 129 27 
3 129 10 27 
3 210 27 212 
3 210 266 27 
3 211 130 213 
3 214 211 213 
3 214 213 128 
3 128 213 26 
3 26 215 128 
3 26 210 215 
3 255 268 140 
3 106 108 267 
3 267 268 106 
3 267 116 269 
3 274 116 270 
3 116 267 108 
3 274 12 304 
3 12 274 270 
3 219 275 216 
3 40 136 217 
3 136 139 271 
3 271 139 140 
3 140 268 217 
3 219 217 268 
3 276 216 275 
3 221 269 274 
3 304 38 141 
3 41 136 40 
3 40 151 41 
3 145 152 154 
3 154 62 61 
3 223 62 48 
3 305 187 228 
3 159 90 186 
3 155 281 225 
3 226 156 91 
3 158 282 157 
3 158 159 280 
3 156 282 63 
3 158 280 162 
3 63 155 156 
3 157 282 156 
3 64 228 229 
3 228 64 280 
3 63 227 279 
3 282 227 63 
3 227 282 163 
3 65 162 64 
3 64 229 65 
3 66 163 283 
3 285 2 288 
3 230 284 285 
3 243 245 168 
3 168 288 243 
3 287 170 230 
3 230 1 284 
3 170 287 169 
3 285 175 230 
3 74 93 169 
3 74 169 287 
3 232 74 287 
3 287 175 232 
3 172 232 175 
3 175 171 172 
3 231 173 172 
3 172 171 176 
3 231 172 176 
3 76 174 288 
3 285 288 289 
3 289 75 175 
3 286 231 176 
3 81 178 77 
3 77 290 81 
3 77 78 75 
3 177 78 85 
3 180 92 291 
3 92 292 293 
3 181 233 293 
3 293 291 92 
3 87 247 180 
3 247 87 182 
3 182 89 247 
3 233 235 294 
3 298 294 235 
3 235 297 298 
3 87 183 182 
3 182 183 89 
3 299 183 300 
3 89 299 238 
3 235 239 297 
3 239 238 299 
3 238 239 235 
3 241 239 299 
3 295 301 240 
3 184 299 300 
3 184 300 240 
3 302 239 241 
3 229 164 283 
3 157 226 244 
3 93 195 193 
3 91 155 225 
