ply
format ascii 1.0
comment VCGLIB generated
element vertex 807
property float x
property float y
property float z
element face 1610
property list uchar int vertex_indices
end_header
1.42905 0.337296 -0.78607 
1.32724 0.105564 -1.5934 
0.680831 2.99566 -1.15506 
1.48932 0.374631 -1.30421 
0.0397536 3.08383 -3.51201 
-0.329911 1.27334 -4.53003 
-0.620642 1.14318 -4.541 
-0.363924 0.176032 -3.79534 
-1.07995 0.243559 -1.22233 
-1.38769 0.252946 -0.535636 
-0.811008 2.66034 -3.79445 
1.32689 -0.511791 0.724253 
1.14124 -0.0561599 -0.295403 
1.56746 1.88915 -0.01163 
1.4835 0.86335 -0.422278 
-0.814954 -1.00789 0.835527 
-1.68743 1.70505 1.91045 
1.24279 -0.495533 2.65755 
1.36041 -0.288685 2.25069 
0.970103 -0.640911 2.88308 
1.27608 0.462315 6.03405 
0.470404 -0.268112 6.12674 
1.52471 2.8466 4.13986 
-0.436425 -0.298819 6.0718 
-1.2097 -0.385342 2.58066 
-1.2681 -0.286663 2.28446 
-0.806144 -0.859386 3.38178 
-1.79031 1.01675 3.05203 
-1.19255 0.381206 6.09948 
-1.67898 1.54549 5.07173 
-0.748775 -0.40887 5.54866 
-1.87577 1.29772 4.4981 
-1.74351 1.76913 2.79692 
1.36524 -1.09972 2.747 
1.30936 -1.64367 4.07786 
1.28324 -1.21941 4.20073 
1.60697 -1.05987 2.63837 
1.60639 -1.42381 2.75462 
1.57195 -1.69485 4.10573 
1.5505 -3.73332 3.57066 
1.43839 -3.52812 4.2288 
1.3111 -2.65088 3.51658 
1.53835 -2.77695 3.3093 
1.27295 -2.7872 3.76271 
1.73233 -2.51281 3.2561 
1.88899 -3.24196 4.00385 
1.79989 -3.64257 4.2871 
1.70792 -1.69477 2.94948 
1.70408 -2.52418 4.10318 
1.27588 -4.4042 4.52863 
1.28629 -4.40482 4.11533 
1.5085 -4.72974 4.02934 
1.86403 -4.44039 4.51652 
1.65628 -4.29881 3.75253 
1.86068 -4.82465 4.13069 
1.31714 -5.27759 4.29346 
1.28012 -5.39971 4.51704 
1.28381 -5.24238 5.24191 
1.39721 -4.76819 5.08303 
1.15879 -4.90286 5.1823 
1.14051 -5.31852 5.08625 
1.61578 -4.73105 5.01779 
1.4671 -5.01196 5.44066 
1.44123 -5.42122 5.35239 
2.00401 -4.65675 4.33191 
2.06388 -5.27198 4.40584 
2.11423 -5.36894 4.796 
1.60071 -5.43591 4.29777 
1.70814 -5.14946 4.16033 
1.98987 -5.1356 5.06116 
1.944 -5.35893 4.90486 
1.68078 -5.14939 5.37809 
1.87101 -5.33536 5.36689 
1.72168 -5.47002 5.07748 
-1.06272 -1.22362 4.0949 
-1.89769 -0.344951 3.7361 
-1.86285 -1.19723 3.06052 
-1.69236 -3.8412 4.41504 
-1.07798 -1.61055 3.70033 
-1.64999 -1.2115 2.69468 
-1.50005 -4.3017 3.79256 
-1.25699 -4.31674 4.11417 
-1.28666 -4.09762 4.26106 
-1.54886 -4.53554 4.79062 
-1.9295 -4.55639 4.47465 
-1.95834 -4.98144 5.02628 
-1.77262 -4.60682 3.99016 
-1.86369 -4.24631 4.37187 
-1.2363 -5.36495 4.40669 
-1.32204 -5.1748 5.27653 
-1.1249 -5.31377 5.11568 
-1.13198 -4.9926 5.22348 
-1.53333 -5.44972 4.67689 
-1.50359 -4.95686 5.42148 
-1.42912 -5.40548 5.34896 
-2.12039 -4.95489 4.53341 
-2.15837 -4.92341 4.91461 
-2.15098 -5.32246 4.84866 
-1.92271 -5.13464 4.23463 
-1.72237 -5.38861 4.24467 
-1.95149 -5.32617 4.94227 
-1.81583 -5.49026 5.13879 
-1.89447 -4.95681 5.34536 
-1.92021 -5.22683 5.38634 
-1.66261 -5.25884 5.38534 
0.093034 0.713326 6.922 
1.12367 1.40196 6.04568 
-1.01639 1.79723 6.38431 
-1.26349 2.37916 5.67494 
1.09285 2.59835 6.89089 
6.75212e-005 2.21028 7.70663 
0.369486 2.26768 7.56945 
1.12876 3.65853 6.70441 
-1.12009 3.81187 6.78901 
0.0031254 1.56559 7.7289 
0.3992 4.48258 8.29943 
1.06912 3.04491 7.75494 
1.69849 3.05404 7.37028 
0.782156 4.64732 7.0064 
0.292149 2.00302 9.05132 
0.491907 2.57425 9.12199 
0.523819 2.58296 8.55436 
0.730445 3.19389 8.25033 
0.653791 3.95806 8.49808 
0.775949 3.72018 8.34715 
0.412494 4.05428 8.65661 
0.412884 3.60335 8.53393 
0.0323437 2.248 8.05485 
0.334073 2.3967 7.78543 
0.727866 2.74213 7.90564 
0.401809 2.29716 8.19488 
0.786155 4.43375 7.74087 
0.492654 3.82676 8.21995 
-0.437293 5.01976 6.87292 
-0.3234 4.38174 8.40141 
-0.792675 4.06658 7.94634 
-1.44787 2.74327 7.27651 
-0.588831 3.96256 8.56523 
-1.62947 3.03924 7.39581 
-0.925951 4.44535 7.0032 
-0.240518 2.01164 9.04506 
-0.0250998 4.03912 8.63425 
-0.406258 3.512 8.54479 
-0.334442 3.77465 8.70842 
-0.373371 2.83924 9.62102 
-0.295153 2.48173 9.47361 
-0.4794 2.67748 8.31607 
-0.583004 2.51806 7.65175 
-0.580273 2.58747 8.01565 
0.0681192 1.81401 8.85943 
-0.288338 2.10806 8.46614 
-0.427172 3.80481 8.2316 
-0.0784553 2.49496 9.57185 
-0.27278 2.67071 8.67438 
0.464057 2.80837 7.78181 
0.388609 2.60063 7.92524 
0.287031 2.93947 7.71868 
0.323567 2.57711 8.49899 
0.253581 2.13 9.00835 
0.328852 2.29076 8.60147 
-0.301618 2.58825 8.0153 
-0.396926 2.83518 7.75181 
0.028501 2.29229 8.7152 
-0.28459 2.29023 8.83399 
0.292323 2.46425 9.49804 
0.176734 2.88669 10.0127 
0.378116 2.82918 9.67126 
-0.158179 2.86645 10.0181 
0.927935 4.91963 7.09916 
1.30028 5.19512 7.95565 
0.518118 5.0559 7.27015 
0.559942 4.77394 7.88501 
1.14078 5.52796 8.05227 
0.882065 4.79205 7.59475 
1.05146 5.49182 8.16411 
1.06382 4.6421 7.64401 
-0.48248 4.64953 8.00939 
-1.31702 5.04295 7.89199 
-1.30697 4.57211 7.5706 
-0.830169 5.3573 7.73191 
-1.14085 5.27608 7.58704 
-1.02969 5.53592 8.13461 
-0.780603 4.66636 7.64992 
-0.973446 5.02687 7.74604 
0.562875 -0.27552 -3.17066 
1.37835 1.53738 -4.58932 
1.62334 -0.874858 -3.7149 
1.97043 0.908425 -2.53138 
1.13781 -2.46698 -4.83257 
1.39899 -2.60739 -5.4429 
1.22143 -1.74014 -3.1001 
1.51468 -1.93409 -4.79211 
1.60657 -2.47109 -5.26042 
1.80716 -1.42554 -3.50048 
1.80893 -2.25021 -4.1297 
1.75902 -1.90596 -3.59718 
1.7181 -2.49042 -4.1374 
1.76202 -2.80331 -4.55488 
1.48132 -2.83577 -4.49089 
1.1269 -4.3358 -5.45951 
1.19257 -3.4597 -5.18693 
1.29573 -4.46027 -5.05373 
1.96866 -4.69505 -4.92405 
1.50364 -3.18894 -5.614 
1.81371 -3.50436 -5.42035 
1.84413 -4.1071 -5.29858 
1.56094 -4.09061 -5.08975 
1.0303 -4.8118 -5.43438 
1.08995 -5.1885 -5.41099 
1.32177 -5.33688 -5.31728 
0.977313 -5.20986 -4.69078 
1.07436 -4.71321 -4.78769 
1.23484 -4.87829 -4.66845 
1.18237 -5.28031 -4.60735 
1.96521 -4.64089 -5.21827 
1.74499 -5.22444 -5.42569 
2.00491 -5.28765 -4.86348 
1.90688 -5.08634 -4.65865 
1.78719 -5.31489 -4.47699 
1.49376 -4.60259 -4.94804 
1.72544 -4.58126 -5.0413 
1.73768 -4.88151 -4.46595 
1.68059 -5.379 -4.78712 
1.57723 -5.27772 -4.52319 
1.43912 -4.82008 -4.49001 
1.40103 -5.37346 -4.46616 
-0.547529 -0.180219 -2.75295 
-0.847858 1.42653 -4.673 
-0.734008 -0.889874 -3.43252 
-1.38718 -0.642669 -4.44736 
-1.78453 1.61351 -3.13721 
-1.40323 -1.52536 -2.83107 
-1.1804 -2.17806 -4.81911 
-1.40612 -2.61693 -5.47724 
-1.16547 -1.82271 -3.29363 
-1.34164 -2.32857 -3.87202 
-1.19051 -3.15514 -5.13745 
-1.50885 -2.09599 -4.93319 
-1.61471 -2.03584 -3.5146 
-1.42754 -2.05355 -3.38905 
-1.83751 -3.17087 -5.25388 
-1.28491 -3.61029 -5.06812 
-1.16159 -3.93854 -5.49581 
-1.22844 -3.05207 -5.34893 
-1.36948 -3.50176 -5.65868 
-1.29723 -4.46043 -5.05657 
-1.54127 -3.96434 -5.07141 
-1.65906 -4.49981 -5.04619 
-1.09419 -5.15861 -5.42279 
-1.01165 -5.21603 -4.72081 
-1.16307 -4.47173 -5.11608 
-1.27092 -4.67082 -5.64288 
-1.49254 -5.28916 -5.45183 
-1.3434 -5.32154 -5.25348 
-2.0009 -5.26056 -4.90216 
-1.21868 -5.19564 -4.53327 
-1.27536 -4.81983 -4.63736 
-1.85768 -4.71622 -4.92598 
-2.15235 -4.88439 -4.84541 
-1.6511 -4.97645 -5.55353 
-1.97272 -4.56388 -5.23482 
-1.86115 -5.17876 -4.47994 
-1.95051 -5.12855 -4.70497 
-1.62116 -4.97304 -4.5174 
-1.82267 -4.78473 -4.60968 
-1.59868 -5.27402 -4.54301 
-1.77479 -5.3825 -4.65386 
-1.37527 -5.37694 -4.52626 
-0.149764 3.17231 -4.56805 
0.587977 2.40423 -4.71707 
-0.458032 2.25177 -4.66353 
-0.602336 2.44737 -4.89518 
-0.224435 3.17693 -6.2208 
0.267571 1.92954 -9.12573 
-0.234922 1.77229 -8.57349 
0.478 2.63628 -9.62462 
0.311543 2.17068 -9.58548 
-0.421303 2.3007 -9.59507 
-0.119596 2.0845 -9.52975 
-0.164395 2.64984 -9.97286 
0.0432208 2.54359 -10.0422 
0.467338 -0.505866 -1.53452 
0.821722 -0.084336 -1.66639 
1.12142 0.272032 -1.12978 
0.542493 2.10731 -4.47693 
1.48618 0.644136 -1.09374 
1.31123 2.10246 -4.28692 
0.549752 2.92087 -3.43844 
1.55825 2.49453 -3.44731 
0.584018 3.09557 -2.71661 
1.31833 2.55779 -0.765526 
1.69477 2.0102 -0.924501 
1.45611 1.20606 -0.905775 
0.645421 2.74967 -3.78486 
-0.766187 -0.322456 -1.33362 
-0.31889 2.0486 -4.45921 
-0.817836 -0.112507 -1.74376 
-1.39992 2.40369 -3.81291 
-1.18242 2.75836 -3.40491 
-0.670718 2.99306 -1.21648 
-1.71991 1.47322 -1.38705 
-1.45592 1.26845 -0.955877 
1.2667 -0.657976 1.35183 
0.926035 -0.758948 0.193914 
0.0739384 3.01265 0.783965 
1.44897 2.39918 -0.165867 
1.75604 0.979381 0.44328 
-1.16023 -0.651199 0.690597 
-0.828458 2.94266 -0.00679522 
-1.41968 2.37573 -0.285402 
-1.42143 2.44993 0.796624 
-1.50959 1.48443 -0.347988 
-1.66506 1.81002 0.6101 
0.751182 -0.518546 5.39706 
1.40168 -0.316959 2.59703 
0.968641 -0.754868 4.85039 
0.923594 -0.863773 3.28495 
0.962115 -0.777737 2.28097 
0.256296 -1.28172 3.70219 
0.243014 -1.19813 4.22995 
0.487765 -0.853789 5.11466 
0.777917 0.198649 6.44257 
0.45798 0.297618 6.6616 
1.89475 1.10682 3.31887 
1.15866 2.82051 2.05857 
1.20383 3.10162 2.89504 
1.18073 0.0264118 5.94408 
1.50722 0.234115 5.60715 
1.67413 0.737156 2.6544 
0.0728491 3.07392 1.40115 
0.346381 3.21304 2.44905 
1.72375 1.55221 1.87005 
-0.716506 -0.988223 2.31084 
-0.977625 -0.560174 2.79911 
-0.196434 -1.28878 3.86232 
-0.200794 -1.09039 4.64594 
-0.808449 -1.03229 4.19755 
-1.30611 2.74366 2.2863 
-0.658644 0.269985 6.57667 
-1.04097 -0.0255926 5.99646 
-1.56581 2.38871 2.0732 
-1.83284 1.69857 3.69195 
-1.95914 0.454962 3.7042 
-1.53408 0.12464 5.48473 
-1.63621 0.91108 2.63951 
-0.604362 3.18522 2.44963 
-0.556843 2.89546 0.993495 
-0.910444 2.87311 1.7296 
-1.52992 2.25286 1.37131 
0.953076 -1.09535 3.94598 
1.9039 -0.416454 4.00476 
1.99015 0.406523 3.51487 
1.98185 0.346045 4.06718 
1.39534 -0.759058 4.77224 
1.66085 -0.578036 2.75667 
1.59554 -0.994198 4.1688 
1.2948 -3.52079 3.95991 
1.14944 -1.6612 3.44133 
1.87501 -4.08469 3.83961 
1.93331 -3.94808 4.20442 
1.94897 -1.21923 3.36038 
1.5848 -4.3396 4.6011 
1.61885 -3.69614 4.35477 
1.37807 -4.11072 4.41095 
1.73767 -3.90006 3.58729 
1.11276 -5.1131 4.46823 
1.768 -4.60066 4.73412 
2.19329 -4.95093 4.92019 
1.89458 -4.98699 5.38774 
-1.38271 -1.14823 4.20096 
-1.88035 0.388422 3.20921 
-1.90665 0.236442 4.39496 
-1.81334 -0.797224 3.94896 
-1.86641 -1.62126 3.489 
-1.84625 -0.493067 3.21568 
-1.33701 -3.46133 4.13902 
-1.37256 -1.14863 2.65875 
-1.64232 -3.33543 3.46667 
-1.86038 -3.40885 3.73002 
-1.22623 -4.51662 4.64395 
-1.56926 -3.86178 3.56542 
-1.49948 -4.15446 4.52359 
-1.39181 -3.38125 3.60096 
-1.72437 -4.03936 3.6343 
-1.88868 -4.34021 4.05679 
-1.87766 -3.83637 4.23257 
-1.38538 -4.79075 4.08059 
-1.09019 -5.09894 4.58261 
0.378262 1.05819 7.02148 
1.13096 3.28876 4.14436 
0.69329 0.675206 6.66622 
-0.536249 1.42339 7.14038 
-0.323799 0.794424 6.90809 
-0.585694 1.00293 6.81907 
-1.49862 2.66824 4.42384 
-0.553736 3.24928 3.21836 
-1.01212 1.22496 6.19532 
1.2218 2.54241 6.49275 
0.881062 2.43079 7.29839 
0.666822 2.51026 7.57739 
1.15539 3.00496 6.67513 
1.06656 2.09916 6.92887 
1.24776 2.28448 5.96255 
1.31437 2.76696 5.05491 
0.0266606 1.12099 7.26266 
0.568799 1.33373 7.01819 
-0.851394 2.37034 7.23682 
-1.15833 3.11373 6.71605 
0.0645059 1.77788 7.78486 
-1.17838 2.39722 6.52227 
-0.941253 2.02731 7.08759 
-1.09149 2.67131 6.80342 
-0.376917 4.13517 5.23407 
-0.505735 1.77939 7.55396 
0.33026 5.05954 6.94181 
1.10498 3.7462 7.64115 
1.02679 4.25681 6.90582 
1.28832 2.68152 7.34817 
0.562485 2.99103 8.77909 
1.57537 2.82879 7.1182 
1.57808 3.79815 7.29853 
1.24438 3.35404 7.55106 
-0.809612 4.53804 6.70187 
-0.438538 5.02621 7.38716 
-0.0477879 4.83031 7.9352 
0.246323 3.72656 8.79614 
-0.560907 2.68209 8.54792 
-0.861157 3.60525 8.141 
-0.18046 3.49987 9.14508 
-1.57289 2.88557 7.10961 
-0.624671 3.05351 8.38505 
-1.15172 3.68056 7.55318 
-0.72787 2.74247 7.83919 
-1.69483 3.2609 7.18251 
0.265669 2.60593 8.97083 
0.330126 2.88415 8.1695 
-0.249213 3.03217 7.74198 
-0.284707 2.58224 8.49126 
1.22763 4.69626 7.20743 
0.695902 5.22185 7.43284 
1.23606 4.26708 7.3798 
-1.14412 4.90377 7.20372 
-1.34195 4.80065 7.57617 
-0.488908 5.02792 7.21556 
-0.623294 4.85007 7.89053 
-0.728142 5.12056 7.22246 
-1.00871 4.24805 7.58198 
-1.1828 4.28053 7.31825 
-1.07419 4.71302 7.64453 
0.919837 -0.620313 -2.47268 
0.980173 -0.191925 -2.02894 
1.30754 -0.701868 -2.11237 
0.465854 1.33847 -4.53851 
0.743309 0.684663 -4.4855 
1.82051 1.48651 -3.75906 
1.4911 0.47011 -4.66196 
1.70628 0.836012 -4.37537 
1.88227 0.658187 -3.92836 
1.84155 -0.162853 -3.28854 
1.82029 1.65707 -3.31177 
1.87287 1.01343 -3.16045 
1.93708 1.28289 -1.99892 
1.81251 1.86933 -1.67314 
1.90724 0.239199 -2.09547 
1.78376 1.69816 -1.45341 
1.78672 0.88329 -1.49611 
1.61146 0.175173 -1.64004 
1.5499 -0.492031 -2.02514 
1.03581 -2.25453 -4.53729 
1.40878 -2.29653 -5.14207 
1.61213 -2.80888 -5.51396 
1.60344 -1.90355 -4.34863 
1.67275 -1.16072 -2.84704 
1.50116 -1.79809 -3.15372 
1.89437 -2.93908 -4.95072 
1.29631 -4.23339 -5.68815 
1.4122 -3.68779 -4.99207 
1.59365 -4.46504 -5.65211 
1.82967 -4.16015 -5.50171 
1.25999 -5.06901 -4.41564 
2.12136 -5.02144 -4.85534 
1.23878 -5.16683 -5.54381 
-1.16388 0.00556065 -1.7234 
-0.807073 0.0549355 -4.35799 
-1.23372 -1.29943 -2.66913 
-1.17043 2.17825 -4.32092 
-1.01639 1.70796 -4.63371 
-1.64469 2.04388 -3.71079 
-1.87523 -0.268367 -3.07071 
-1.59138 -1.1998 -3.942 
-1.85251 0.361701 -3.25558 
-1.95505 0.953958 -2.57797 
-1.47841 0.0228328 -1.69275 
-1.4509 0.283402 -1.37573 
-1.71499 0.33768 -1.63272 
-1.10929 -2.51222 -4.75159 
-1.1724 -2.57263 -4.50258 
-1.31394 -2.29122 -5.08183 
-1.35444 -2.8575 -4.56768 
-1.46746 -1.4658 -4.55614 
-1.60589 -2.60969 -5.40329 
-1.78872 -1.53236 -3.669 
-1.77607 -2.17295 -4.2981 
-1.87666 -2.83588 -4.91173 
-1.79366 -2.56572 -4.33876 
-1.76669 -3.22599 -4.92112 
-1.29169 -4.20489 -5.69319 
-1.58669 -3.15232 -5.5817 
-1.81089 -3.92585 -5.48573 
-1.81697 -3.94445 -5.29091 
-1.05711 -4.77797 -4.73353 
-1.08468 -4.60842 -5.48561 
-1.92633 -5.05553 -5.33197 
-1.48195 -4.75979 -4.57375 
-1.47049 -5.16374 -4.36944 
0.293928 3.13397 -4.47304 
0.249627 2.24558 -4.67793 
-0.607038 2.84881 -5.80602 
-0.416725 2.99999 -3.85404 
0.0271679 3.13052 -5.4776 
-0.729868 2.92768 -6.6485 
-0.206558 3.23819 -7.38881 
0.396164 3.03084 -8.4496 
0.582286 2.12635 -9.1217 
-0.562341 2.85997 -8.73638 
-0.462611 2.62368 -9.55817 
0.760491 -0.673328 -0.430245 
0.527055 -0.983446 -0.114548 
0.635508 -0.205141 -2.20585 
0.474004 0.311604 -4.0504 
0.035444 1.51764 -4.43149 
0.155775 2.05434 -4.43007 
1.26818 2.78821 -3.22374 
1.35501 2.7783 -2.62711 
1.06777 2.79376 -1.50126 
1.54881 2.34779 -1.48331 
-0.291706 -0.622472 -1.47545 
-1.18277 -0.0114711 -0.241076 
-0.479448 -0.0582496 -3.30408 
0.0667476 3.2007 -2.36223 
-1.25504 2.83652 -2.71577 
-1.37797 2.51844 -1.5481 
-1.65852 2.09544 -1.20739 
0.683838 2.99784 -0.016296 
1.08219 2.80901 0.0408484 
1.52054 2.3148 1.15364 
-0.161736 3.09443 -0.111509 
-1.31403 -0.558403 1.37994 
-1.52185 2.076 -0.00312752 
-1.38943 -0.132611 0.258437 
-1.74589 1.04752 0.959899 
0.770899 -1.06887 0.758274 
0.0436198 -1.17328 2.24921 
0.6678 -1.03301 2.03349 
0.364104 -1.15174 2.69321 
1.73812 0.609935 2.92832 
1.60594 0.887718 5.53345 
1.68611 1.48428 5.13409 
1.50138 2.5784 2.60575 
1.23893 2.62901 1.06107 
1.60532 2.37823 2.11548 
1.58563 0.403819 2.63562 
-0.425505 -0.789469 5.25285 
-0.510365 -1.14579 0.788004 
-0.563788 -1.09289 2.9397 
-1.67344 2.41902 3.53255 
-1.0316 3.10697 2.62651 
-1.48257 0.952351 5.66911 
0.873776 -0.989968 4.28592 
1.8882 0.199266 4.50869 
1.13042 -0.322292 5.55567 
1.83544 -1.17317 2.8211 
1.19014 -1.80357 3.79666 
1.40906 -1.77846 3.03545 
1.88314 -1.92503 3.37837 
1.86849 -1.38237 3.75783 
-1.30706 -0.725732 4.91044 
-1.46944 -3.23771 4.22484 
-1.21357 -2.44614 3.81867 
-1.37886 -1.63852 2.95572 
-1.25091 -1.70956 4.0747 
-1.27608 -2.17008 3.97527 
-1.67612 -2.36926 3.20767 
-1.75577 -3.40327 4.2279 
-1.77784 -1.69687 3.09148 
-1.52617 -1.59523 4.09479 
-1.79979 -2.84533 4.02228 
1.4491 2.95068 3.13409 
0.386504 4.73347 6.10048 
0.600023 4.27416 5.64934 
0.942443 3.85509 5.53732 
0.894023 2.22625 7.17402 
0.677089 4.76521 6.58718 
1.08222 3.69018 6.01361 
0.508703 3.8933 4.85698 
0.941483 1.72604 6.6281 
1.22582 3.15955 4.77824 
0.668088 3.88945 5.02879 
-0.679785 4.61053 6.36572 
-0.846269 4.02786 5.72231 
-1.11032 3.02975 6.57798 
-0.511504 2.18949 7.43523 
-0.934449 4.02638 6.30243 
-1.49558 3.89566 7.34221 
-0.0860265 2.94362 7.71735 
1.12429 5.13718 7.36212 
0.695889 -0.0569907 -3.97865 
1.04119 -0.122985 -4.57484 
0.936104 1.78867 -4.61072 
0.745379 -0.340533 -2.43146 
1.25426 -0.150731 -4.66652 
1.64639 1.60586 -4.22842 
1.87523 1.81201 -2.37341 
1.77718 -0.254068 -2.10066 
1.2339 -1.4588 -4.64082 
0.922681 -1.62916 -3.57129 
1.48401 -1.11365 -4.40026 
1.20877 -2.59158 -4.42204 
1.78328 -2.27257 -4.40342 
-0.75189 -0.758462 -3.9027 
-1.02091 0.272772 -4.71431 
-1.14703 -0.282321 -4.62746 
-1.04118 -0.274624 -2.08414 
-0.840527 -0.679983 -2.776 
-1.58605 -0.384888 -4.15155 
-1.81756 -1.54105 -3.44983 
-1.67955 -0.593176 -2.21994 
-1.6655 -1.06842 -2.69652 
-1.81655 0.717139 -4.00679 
-1.79464 -2.10776 -3.90705 
0.82806 2.60091 -6.32976 
0.610953 2.04329 -6.08178 
-0.772064 2.54945 -6.14318 
-0.673713 2.25231 -5.74296 
0.328456 1.9267 -5.90326 
0.754387 2.95957 -6.72001 
0.865192 2.68114 -7.01383 
0.546851 1.82857 -6.91187 
0.828922 2.72994 -7.67976 
0.0997646 3.26705 -6.84286 
-0.701042 1.99303 -6.87987 
-0.357694 1.72588 -6.99964 
-0.842833 2.41785 -7.66356 
-0.833655 2.36169 -6.78325 
-0.829069 2.73203 -7.04287 
-0.419669 3.20149 -6.923 
0.672165 2.79822 -8.54836 
0.852597 2.31215 -7.33223 
0.0859405 1.64555 -7.70675 
-0.663292 1.97458 -8.33466 
-0.0647196 3.03295 -9.26271 
-0.470547 2.06143 -9.18434 
-0.0958581 0.407996 -3.95204 
0.424209 -0.0107763 -3.40463 
-0.303176 -1.00171 -0.316738 
0.135171 -0.609833 -1.61814 
0.474056 -0.17181 -2.65073 
-0.119027 -0.285624 -2.48774 
1.25054 2.56356 -3.76716 
0.666321 3.10627 -2.15026 
1.6504 2.27476 -2.07566 
0.00748609 3.12678 -1.06174 
-0.00139626 1.04042 -4.28844 
-0.644558 -0.200985 -2.30452 
0.125831 -0.847323 -0.962473 
-0.509237 2.97407 -3.26959 
-1.46028 2.58578 -3.36246 
-0.685394 3.11448 -2.40354 
-1.75171 2.05755 -2.3748 
-1.81296 0.857781 -1.57634 
-1.54556 0.552369 -1.22028 
0.262294 -1.17579 0.785898 
0.314945 -1.10968 0.14874 
1.4305 0.203342 -0.229559 
0.94565 2.79867 1.07598 
1.70317 1.73751 0.644841 
1.58295 -0.0967249 1.03978 
-1.08521 2.72633 1.09858 
-1.12205 2.76042 0.0815523 
-1.14106 2.67586 -0.628122 
-1.68648 1.93094 -0.915217 
-1.67204 0.885233 0.304824 
-1.56002 -0.0888227 1.0889 
0.661659 -1.03461 2.86193 
0.633458 -1.12426 3.81405 
1.66187 2.56429 3.54001 
1.75259 1.91064 2.61744 
1.92318 0.406796 3.17465 
0.0422469 -0.260193 6.21098 
1.93422 1.29889 4.34091 
1.67859 1.8995 1.6161 
1.72972 0.652063 1.01643 
-0.270939 -1.14631 2.39557 
-1.64957 2.25315 2.88992 
-1.55434 2.76828 3.90681 
-1.45487 0.00856689 2.68042 
-0.347433 3.0734 1.72888 
-1.45796 0.139916 2.38687 
1.91069 -0.468838 3.20705 
1.50673 -0.457716 4.9682 
1.50508 -2.50061 4.14869 
1.34756 -2.60456 4.05647 
1.82711 -3.38501 3.58093 
1.87359 -2.4603 3.41697 
1.89795 -2.26912 3.7024 
-0.911244 -0.790322 4.8219 
-1.67325 -0.561196 2.83792 
-1.65652 0.490386 5.37769 
-1.47127 -0.639709 4.81797 
-1.6611 -0.791145 4.14736 
-1.28728 -3.1447 3.75669 
-1.41993 -2.57514 3.26707 
-1.10882 -1.56049 3.38145 
-1.86852 -2.51913 3.48456 
-1.81763 -1.79482 3.77343 
-1.5857 -2.29928 4.14627 
1.33513 2.14714 5.46141 
0.654675 3.25574 3.35182 
1.04527 3.25862 3.83278 
0.213832 3.45715 3.9164 
0.695898 3.07168 2.0576 
-0.5408 3.398 3.86631 
-0.878189 3.49466 4.35709 
-1.26282 3.03352 4.86069 
-1.42882 2.9516 3.22441 
-1.09154 3.22272 3.762 
0.307953 4.28489 5.42567 
0.918006 4.12272 6.24761 
1.25142 3.0877 5.89951 
0.591182 1.7838 7.49722 
0.991025 3.55017 4.74251 
-1.21698 3.10119 5.9706 
-0.548269 4.34666 5.72588 
-1.12312 3.26465 4.38576 
-0.299299 3.9463 4.9004 
1.67567 3.29687 7.12243 
-0.316883 4.82003 6.28835 
-1.06152 2.98261 7.7164 
1.38398 4.7582 7.66909 
1.1517 -0.833527 -4.52187 
1.15585 -1.30388 -2.65718 
1.12345 0.803079 -4.73468 
1.16786 0.446366 -4.74178 
1.49246 -0.62918 -4.33607 
1.86286 -0.732032 -2.98879 
1.41075 -1.09727 -2.42619 
0.892255 -1.81272 -4.11888 
1.29264 -1.91442 -4.83141 
1.82482 -1.14417 -3.23546 
1.43012 -2.0366 -3.36996 
1.31921 -2.24428 -3.71786 
1.16726 -4.11501 -5.2979 
1.28938 -3.69395 -5.66482 
1.4986 -3.95503 -5.70301 
1.76534 -3.55409 -5.11215 
1.24736 -2.99172 -4.81764 
-0.570566 -0.145408 -3.6128 
-0.625908 0.474702 -4.34298 
-1.12777 -0.874834 -4.4967 
-1.29343 0.530674 -4.73286 
-1.58032 0.394858 -4.43371 
-1.86603 1.68444 -2.06554 
-1.93267 1.09861 -1.95081 
-1.91832 0.120348 -2.1142 
-1.33237 -0.945861 -2.31652 
-1.85285 -0.649856 -2.74911 
-1.50381 1.21434 -4.46989 
-0.872491 -1.70913 -3.86366 
-0.871731 -1.4634 -4.17099 
-1.26133 -1.83684 -4.76957 
-1.59053 -1.8785 -4.3559 
-1.58831 -4.10112 -5.6769 
-1.50495 -3.17413 -4.74884 
0.717569 2.27654 -5.82435 
0.403601 3.00598 -5.35363 
0.731965 2.29901 -4.38651 
0.624185 2.6455 -4.9138 
-0.36023 3.0414 -5.65832 
-0.625223 2.67884 -4.1841 
-0.573106 2.75786 -4.91702 
0.844866 2.27225 -6.65186 
0.177373 1.69235 -6.9524 
0.46638 3.16234 -6.58634 
-0.446915 2.15985 -5.27092 
-0.138189 1.89788 -5.9059 
-0.638363 3.03256 -7.52404 
0.686312 2.98105 -7.61846 
0.796422 2.19546 -8.2082 
0.471051 1.76599 -8.22573 
0.433466 3.19041 -7.37073 
0.708126 1.95085 -7.55279 
0.752862 2.47868 -8.67163 
-0.715521 2.43046 -8.80998 
-0.776621 2.77656 -7.82402 
-0.379326 1.71441 -7.84501 
-0.111573 3.10111 -8.46295 
0.220771 2.91079 -9.59095 
0.505022 2.34592 -9.51942 
-0.300606 2.88494 -9.51448 
-0.626496 -1.12638 3.93153 
-1.31267 3.01135 2.96283 
1.2379 -3.23517 -5.42803 
-1.34199 2.0381 5.42542 
0.686066 -0.845051 -3.419 
0.801131 -1.14613 -4.04207 
-0.602757 2.21838 -4.4345 
-0.722715 -0.765934 -0.343061 
3 529 662 453 
3 288 286 658 
3 464 292 285 
3 294 296 663 
3 806 8 294 
3 536 663 657 
3 296 294 8 
3 9 493 8 
3 301 670 9 
3 298 297 666 
3 4 665 667 
3 667 298 540 
3 540 299 667 
3 680 761 300 
3 9 670 493 
3 11 676 302 
3 664 527 672 
3 12 283 0 
3 0 292 14 
3 552 692 563 
3 806 654 15 
3 672 671 563 
3 309 548 310 
3 311 9 681 
3 682 681 549 
3 313 315 353 
3 688 562 21 
3 315 313 320 
3 302 676 18 
3 325 324 720 
3 106 390 20 
3 323 689 351 
3 556 327 569 
3 313 326 21 
3 326 313 570 
3 329 720 674 
3 330 720 329 
3 545 559 560 
3 328 561 691 
3 562 23 30 
3 336 334 335 
3 697 547 25 
3 800 337 724 
3 27 370 342 
3 393 28 338 
3 393 396 28 
3 339 23 338 
3 32 693 340 
3 342 341 32 
3 396 802 29 
3 695 24 706 
3 340 337 347 
3 33 36 37 
3 350 360 698 
3 350 698 352 
3 570 353 699 
3 38 575 355 
3 38 355 35 
3 571 698 360 
3 349 357 572 
3 45 46 359 
3 362 46 700 
3 45 703 704 
3 361 58 61 
3 51 50 53 
3 363 50 49 
3 53 50 39 
3 356 50 363 
3 40 363 362 
3 39 50 356 
3 53 54 51 
3 54 358 64 
3 362 361 46 
3 52 358 359 
3 52 359 46 
3 55 56 365 
3 62 58 57 
3 59 49 365 
3 60 59 365 
3 58 59 57 
3 56 57 60 
3 50 51 365 
3 55 67 56 
3 55 68 67 
3 63 73 71 
3 73 56 67 
3 63 62 57 
3 63 57 56 
3 57 59 60 
3 56 73 63 
3 60 365 56 
3 61 62 71 
3 51 68 55 
3 51 55 365 
3 62 63 71 
3 70 73 67 
3 54 64 65 
3 65 64 367 
3 367 64 52 
3 66 69 70 
3 66 70 67 
3 72 71 73 
3 66 67 65 
3 61 71 368 
3 69 366 368 
3 366 69 367 
3 72 368 71 
3 66 367 69 
3 54 65 68 
3 70 72 73 
3 366 61 368 
3 376 24 333 
3 75 342 374 
3 372 75 373 
3 709 372 369 
3 75 374 76 
3 711 382 377 
3 377 382 380 
3 377 380 383 
3 711 582 579 
3 372 714 585 
3 80 81 386 
3 381 379 82 
3 381 83 379 
3 710 82 81 
3 710 81 382 
3 375 381 82 
3 85 83 84 
3 86 384 383 
3 80 383 380 
3 88 90 94 
3 387 90 88 
3 91 90 387 
3 89 90 91 
3 94 104 92 
3 92 88 94 
3 91 379 83 
3 83 89 91 
3 89 83 93 
3 83 104 93 
3 93 94 89 
3 94 93 104 
3 89 94 90 
3 101 100 99 
3 97 95 98 
3 85 84 96 
3 97 98 99 
3 95 86 98 
3 95 96 84 
3 85 96 97 
3 100 97 99 
3 101 99 92 
3 104 102 103 
3 104 103 101 
3 104 101 92 
3 104 83 102 
3 103 102 85 
3 100 85 97 
3 97 96 95 
3 99 98 386 
3 101 103 100 
3 388 322 390 
3 106 557 716 
3 724 694 733 
3 392 404 391 
3 404 392 105 
3 391 107 393 
3 111 110 408 
3 419 109 400 
3 593 727 400 
3 398 399 111 
3 589 592 727 
3 590 727 593 
3 401 402 397 
3 729 408 114 
3 719 734 594 
3 601 408 110 
3 411 410 406 
3 412 722 599 
3 592 588 414 
3 115 171 424 
3 117 116 417 
3 131 124 415 
3 171 115 131 
3 592 414 170 
3 129 154 155 
3 125 141 425 
3 165 425 428 
3 124 123 132 
3 418 166 120 
3 120 166 164 
3 120 121 418 
3 164 121 120 
3 126 123 425 
3 415 122 116 
3 418 165 166 
3 119 149 130 
3 130 159 119 
3 127 130 149 
3 128 130 127 
3 110 111 128 
3 116 129 417 
3 418 425 165 
3 122 126 418 
3 399 417 129 
3 420 112 416 
3 122 124 126 
3 125 425 123 
3 132 123 126 
3 132 126 124 
3 165 144 167 
3 133 414 736 
3 414 423 170 
3 133 423 414 
3 176 182 135 
3 427 135 431 
3 427 137 135 
3 447 139 603 
3 133 422 443 
3 428 144 165 
3 146 145 426 
3 142 137 427 
3 426 430 432 
3 432 148 426 
3 146 426 148 
3 134 137 141 
3 425 141 143 
3 141 137 143 
3 143 142 428 
3 134 176 137 
3 431 737 427 
3 150 148 147 
3 119 140 149 
3 148 150 140 
3 140 150 149 
3 149 150 127 
3 147 136 406 
3 136 147 432 
3 432 430 737 
3 182 446 135 
3 147 148 432 
3 138 136 737 
3 603 113 433 
3 143 151 142 
3 151 143 137 
3 151 137 142 
3 434 153 435 
3 121 435 154 
3 156 604 162 
3 436 604 156 
3 157 162 158 
3 140 119 158 
3 158 159 157 
3 158 119 159 
3 152 153 434 
3 153 146 436 
3 148 160 161 
3 436 161 604 
3 160 163 437 
3 140 158 163 
3 163 160 140 
3 160 148 140 
3 153 152 145 
3 152 164 167 
3 164 165 167 
3 165 164 166 
3 145 152 167 
3 144 145 167 
3 168 605 438 
3 439 174 172 
3 605 172 169 
3 171 439 170 
3 175 131 440 
3 174 169 172 
3 175 173 131 
3 171 131 173 
3 443 179 423 
3 447 178 442 
3 444 423 179 
3 181 180 177 
3 179 180 181 
3 446 448 178 
3 176 444 182 
3 183 444 181 
3 183 181 177 
3 775 185 608 
3 451 1 450 
3 452 608 741 
3 456 611 457 
3 455 743 610 
3 616 739 743 
3 457 454 459 
3 465 461 462 
3 465 462 464 
3 451 467 1 
3 458 744 748 
3 746 468 617 
3 755 188 801 
3 469 189 188 
3 192 471 618 
3 191 614 616 
3 189 192 470 
3 474 470 192 
3 618 474 192 
3 193 195 194 
3 196 195 473 
3 745 740 473 
3 750 749 190 
3 189 469 192 
3 200 801 751 
3 199 751 752 
3 205 214 478 
3 220 202 205 
3 753 752 203 
3 752 753 475 
3 477 753 478 
3 474 204 470 
3 205 478 754 
3 205 206 220 
3 219 220 206 
3 210 209 213 
3 212 201 211 
3 199 207 211 
3 212 210 213 
3 481 208 207 
3 208 481 209 
3 475 481 207 
3 201 199 211 
3 207 208 210 
3 207 210 211 
3 479 212 213 
3 212 224 201 
3 215 214 480 
3 215 480 216 
3 481 215 209 
3 481 477 215 
3 202 480 214 
3 222 216 217 
3 218 222 217 
3 221 220 219 
3 223 218 221 
3 209 222 223 
3 219 201 224 
3 213 225 479 
3 480 217 216 
3 223 213 209 
3 213 223 225 
3 222 209 215 
3 217 221 218 
3 224 225 223 
3 217 202 220 
3 217 220 221 
3 219 223 221 
3 223 219 224 
3 479 224 212 
3 222 218 223 
3 479 225 224 
3 7 483 757 
3 756 538 228 
3 483 619 758 
3 621 759 620 
3 628 490 230 
3 669 762 763 
3 231 764 626 
3 492 493 494 
3 232 243 497 
3 237 233 500 
3 504 503 505 
3 231 238 239 
3 772 498 504 
3 242 236 241 
3 242 245 250 
3 244 242 506 
3 244 507 233 
3 505 508 509 
3 247 509 260 
3 505 509 246 
3 240 500 507 
3 249 255 253 
3 248 249 253 
3 510 250 256 
3 249 248 511 
3 251 511 248 
3 252 248 253 
3 256 255 249 
3 249 510 256 
3 510 249 511 
3 254 253 266 
3 254 512 252 
3 255 267 253 
3 258 260 512 
3 512 254 258 
3 252 253 254 
3 257 264 247 
3 261 262 266 
3 265 266 253 
3 245 263 513 
3 265 267 514 
3 513 256 245 
3 514 256 513 
3 255 514 267 
3 254 266 262 
3 262 258 254 
3 257 260 258 
3 265 261 266 
3 256 250 245 
3 771 259 512 
3 263 265 514 
3 255 256 514 
3 260 257 247 
3 261 265 263 
3 774 268 515 
3 269 284 516 
3 516 295 270 
3 774 635 782 
3 631 780 773 
3 635 789 782 
3 519 782 639 
3 520 777 645 
3 521 785 645 
3 786 522 789 
3 650 795 522 
3 280 276 278 
3 797 280 275 
3 280 279 796 
3 280 796 275 
3 282 283 12 
3 527 664 281 
3 0 283 1 
3 452 531 284 
3 291 464 462 
3 658 532 288 
3 533 288 532 
3 660 288 533 
3 659 2 534 
3 535 290 305 
3 464 291 292 
3 285 292 0 
3 3 0 1 
3 286 775 658 
3 289 539 659 
3 7 757 652 
3 662 757 5 
3 652 757 662 
3 664 536 655 
3 657 538 653 
3 7 653 538 
3 537 9 8 
3 6 805 295 
3 8 482 296 
3 298 485 297 
3 518 665 4 
3 540 298 666 
3 4 667 539 
3 540 541 299 
3 542 541 540 
3 300 301 680 
3 298 10 485 
3 12 673 11 
3 303 12 11 
3 551 303 11 
3 551 552 671 
3 526 12 303 
3 527 526 303 
3 551 671 672 
3 0 673 12 
3 543 304 674 
3 674 559 544 
3 305 559 545 
3 675 545 690 
3 13 545 675 
3 331 691 306 
3 306 13 675 
3 13 306 14 
3 13 14 292 
3 673 14 306 
3 306 676 673 
3 14 673 0 
3 676 11 673 
3 304 543 546 
3 537 307 549 
3 9 537 549 
3 346 546 308 
3 678 310 677 
3 348 310 312 
3 541 309 679 
3 310 548 312 
3 550 16 312 
3 680 311 548 
3 548 311 312 
3 680 301 311 
3 9 311 301 
3 546 661 299 
3 681 682 550 
3 21 562 320 
3 18 314 17 
3 684 316 349 
3 561 555 314 
3 18 317 302 
3 17 19 18 
3 18 19 317 
3 683 317 19 
3 317 683 553 
3 316 684 19 
3 334 554 318 
3 568 315 320 
3 676 561 18 
3 20 556 106 
3 322 21 321 
3 321 21 326 
3 326 20 321 
3 390 322 321 
3 321 20 390 
3 685 689 686 
3 560 558 686 
3 690 560 686 
3 323 687 555 
3 555 354 314 
3 352 351 689 
3 557 569 689 
3 20 326 327 
3 20 327 556 
3 328 686 323 
3 331 690 686 
3 555 328 323 
3 555 561 328 
3 559 324 558 
3 676 691 561 
3 24 25 332 
3 563 692 332 
3 30 705 562 
3 695 25 24 
3 695 697 25 
3 682 547 697 
3 333 24 332 
3 332 692 564 
3 26 333 564 
3 334 564 692 
3 335 562 705 
3 27 695 706 
3 340 693 337 
3 693 724 337 
3 28 339 338 
3 688 322 338 
3 338 322 105 
3 31 694 341 
3 23 688 338 
3 340 16 32 
3 32 27 342 
3 31 341 342 
3 339 30 23 
3 339 28 343 
3 32 341 693 
3 344 32 16 
3 344 27 32 
3 344 695 27 
3 344 697 695 
3 345 329 696 
3 566 345 696 
3 566 696 347 
3 347 696 346 
3 696 304 346 
3 340 348 16 
3 677 310 348 
3 348 312 16 
3 570 313 353 
3 36 33 17 
3 316 19 33 
3 19 17 33 
3 35 349 34 
3 316 357 349 
3 351 352 698 
3 689 569 352 
3 350 352 569 
3 569 327 699 
3 699 327 326 
3 699 326 570 
3 355 699 353 
3 569 355 350 
3 36 354 571 
3 571 354 698 
3 37 36 571 
3 34 38 35 
3 35 355 353 
3 314 354 36 
3 350 575 360 
3 39 41 42 
3 40 700 701 
3 316 33 573 
3 316 573 357 
3 34 349 572 
3 41 572 357 
3 44 702 42 
3 39 702 364 
3 358 364 702 
3 359 358 702 
3 48 46 45 
3 47 573 37 
3 37 571 47 
3 47 571 574 
3 574 704 703 
3 48 575 38 
3 49 58 361 
3 363 49 361 
3 363 361 362 
3 356 363 40 
3 53 358 54 
3 364 358 53 
3 358 52 64 
3 52 46 361 
3 366 52 361 
3 39 364 53 
3 61 366 361 
3 58 49 59 
3 365 49 50 
3 62 61 58 
3 67 68 65 
3 366 367 52 
3 69 72 70 
3 68 51 54 
3 368 72 69 
3 367 66 65 
3 30 576 705 
3 26 376 333 
3 26 74 78 
3 74 705 576 
3 374 370 706 
3 75 372 371 
3 31 342 371 
3 371 342 75 
3 343 708 576 
3 369 708 709 
3 709 371 372 
3 585 580 369 
3 74 369 580 
3 75 76 373 
3 576 708 369 
3 706 24 376 
3 376 79 706 
3 706 76 374 
3 76 706 79 
3 77 375 577 
3 710 375 82 
3 711 579 712 
3 712 710 711 
3 78 74 580 
3 715 581 580 
3 578 712 581 
3 26 78 712 
3 377 378 582 
3 378 586 713 
3 583 378 385 
3 385 77 583 
3 77 577 583 
3 79 376 579 
3 76 79 584 
3 584 582 713 
3 373 76 584 
3 379 81 82 
3 81 80 382 
3 380 382 80 
3 77 381 375 
3 95 84 384 
3 80 386 86 
3 86 95 384 
3 87 384 84 
3 381 77 87 
3 87 84 83 
3 87 83 381 
3 80 86 383 
3 385 87 77 
3 87 385 378 
3 378 383 384 
3 387 386 81 
3 387 88 386 
3 387 379 91 
3 88 99 386 
3 386 98 86 
3 102 83 85 
3 99 88 92 
3 85 100 103 
3 405 404 388 
3 388 404 105 
3 388 390 405 
3 595 405 390 
3 106 595 390 
3 594 718 719 
3 717 719 718 
3 389 22 587 
3 718 587 325 
3 322 388 105 
3 716 22 403 
3 393 392 391 
3 393 107 396 
3 721 395 725 
3 717 721 719 
3 566 800 725 
3 345 725 395 
3 392 338 105 
3 338 392 393 
3 588 589 726 
3 591 109 398 
3 729 591 111 
3 398 111 591 
3 408 729 111 
3 417 398 109 
3 109 419 417 
3 416 112 727 
3 416 727 592 
3 589 588 592 
3 397 728 400 
3 109 401 397 
3 401 109 591 
3 591 729 401 
3 734 412 594 
3 593 596 590 
3 401 595 402 
3 114 404 729 
3 405 595 401 
3 401 729 405 
3 597 730 594 
3 404 405 729 
3 732 598 736 
3 411 407 600 
3 136 411 406 
3 147 406 601 
3 411 429 407 
3 110 147 601 
3 600 113 602 
3 113 422 602 
3 602 422 598 
3 136 429 411 
3 600 731 409 
3 411 409 410 
3 406 410 413 
3 413 408 601 
3 723 602 599 
3 108 409 731 
3 107 410 409 
3 391 413 410 
3 413 114 408 
3 391 410 107 
3 723 108 731 
3 412 734 722 
3 114 413 391 
3 391 404 114 
3 588 736 414 
3 171 170 424 
3 131 115 123 
3 415 117 420 
3 735 420 117 
3 592 170 118 
3 125 115 141 
3 154 129 121 
3 122 418 121 
3 121 129 122 
3 123 115 125 
3 126 425 418 
3 415 124 122 
3 128 127 110 
3 128 159 130 
3 128 399 159 
3 155 159 129 
3 399 129 159 
3 111 399 128 
3 400 735 419 
3 115 424 141 
3 123 124 131 
3 421 116 117 
3 398 417 399 
3 440 131 415 
3 440 415 420 
3 421 117 415 
3 421 415 116 
3 117 419 735 
3 420 735 112 
3 117 417 419 
3 133 598 422 
3 598 133 736 
3 423 176 424 
3 423 133 443 
3 176 134 424 
3 135 137 176 
3 446 431 135 
3 138 431 603 
3 603 433 138 
3 113 139 422 
3 422 139 443 
3 600 407 113 
3 426 145 144 
3 148 161 146 
3 428 425 143 
3 142 430 144 
3 427 430 142 
3 144 428 142 
3 147 110 127 
3 127 150 147 
3 433 407 429 
3 424 134 141 
3 431 138 737 
3 144 430 426 
3 427 737 430 
3 136 432 737 
3 447 603 446 
3 429 138 433 
3 429 136 138 
3 152 434 164 
3 434 121 164 
3 121 434 435 
3 435 153 436 
3 155 156 157 
3 162 157 156 
3 155 154 156 
3 154 435 156 
3 436 156 435 
3 157 159 155 
3 153 145 146 
3 161 436 146 
3 161 160 437 
3 437 604 161 
3 437 162 604 
3 162 163 158 
3 163 162 437 
3 438 605 738 
3 605 439 172 
3 439 605 168 
3 439 168 170 
3 439 171 174 
3 440 118 438 
3 438 118 168 
3 170 168 118 
3 438 738 440 
3 169 174 738 
3 738 175 440 
3 416 118 440 
3 174 175 738 
3 174 171 173 
3 174 173 175 
3 177 442 178 
3 445 179 443 
3 442 177 180 
3 180 441 442 
3 445 441 180 
3 445 139 441 
3 444 179 181 
3 445 443 139 
3 447 446 178 
3 448 177 178 
3 423 444 176 
3 446 182 448 
3 444 183 182 
3 183 448 182 
3 448 183 177 
3 453 607 529 
3 653 529 606 
3 453 742 607 
3 739 804 606 
3 741 608 185 
3 450 609 449 
3 609 803 449 
3 449 615 740 
3 609 450 528 
3 453 741 742 
3 284 608 452 
3 656 184 609 
3 282 1 283 
3 185 286 611 
3 610 742 455 
3 288 611 286 
3 611 288 454 
3 460 457 459 
3 457 460 458 
3 187 459 612 
3 187 460 459 
3 461 187 612 
3 187 461 463 
3 461 465 463 
3 465 3 466 
3 465 466 613 
3 451 740 745 
3 460 187 458 
3 285 3 465 
3 185 775 286 
3 288 459 454 
3 617 188 755 
3 755 198 617 
3 617 468 188 
3 468 747 188 
3 469 188 747 
3 189 801 188 
3 468 804 747 
3 747 804 614 
3 803 746 615 
3 192 469 747 
3 192 747 191 
3 191 471 192 
3 194 474 618 
3 196 194 195 
3 194 197 474 
3 197 194 196 
3 196 198 197 
3 197 754 474 
3 197 198 754 
3 193 194 618 
3 476 751 201 
3 200 476 755 
3 476 200 751 
3 752 751 801 
3 189 203 801 
3 475 199 752 
3 206 201 219 
3 477 475 753 
3 753 203 478 
3 478 204 754 
3 202 214 205 
3 754 206 205 
3 754 476 206 
3 206 476 201 
3 470 203 189 
3 203 204 478 
3 210 208 209 
3 210 212 211 
3 207 199 475 
3 216 222 215 
3 477 478 215 
3 214 215 478 
3 217 480 202 
3 481 475 477 
3 7 538 756 
3 227 805 6 
3 227 6 620 
3 623 484 234 
3 482 764 622 
3 620 483 621 
3 628 230 487 
3 760 766 759 
3 760 229 624 
3 230 668 487 
3 490 491 230 
3 761 230 491 
3 300 761 762 
3 762 669 300 
3 763 494 669 
3 763 765 626 
3 494 763 626 
3 764 482 492 
3 759 621 229 
3 759 229 760 
3 669 494 670 
3 485 10 805 
3 805 486 485 
3 493 670 494 
3 243 232 495 
3 496 235 498 
3 498 495 496 
3 228 767 768 
3 769 232 497 
3 236 495 498 
3 243 495 236 
3 233 497 243 
3 232 768 495 
3 497 237 769 
3 237 497 233 
3 237 770 499 
3 500 503 237 
3 237 503 770 
3 489 770 501 
3 502 503 504 
3 625 627 765 
3 627 625 238 
3 235 504 498 
3 504 505 772 
3 234 484 231 
3 629 625 501 
3 501 502 629 
3 242 241 245 
3 511 506 242 
3 511 251 506 
3 508 771 512 
3 245 246 247 
3 260 509 508 
3 771 507 244 
3 506 771 244 
3 251 771 506 
3 512 260 508 
3 505 240 508 
3 247 246 509 
3 772 505 246 
3 246 241 772 
3 241 246 245 
3 510 511 250 
3 257 258 262 
3 259 252 512 
3 264 257 262 
3 264 262 261 
3 247 264 263 
3 263 264 261 
3 513 263 514 
3 265 253 267 
3 263 245 247 
3 259 771 251 
3 252 259 251 
3 252 251 248 
3 635 774 776 
3 516 784 634 
3 269 775 284 
3 515 4 287 
3 516 531 295 
3 778 805 10 
3 779 778 518 
3 783 270 271 
3 783 516 270 
3 519 777 268 
3 778 271 270 
3 270 295 805 
3 776 630 635 
3 636 630 780 
3 782 519 774 
3 638 635 636 
3 782 789 639 
3 781 788 637 
3 633 643 640 
3 640 783 633 
3 785 520 645 
3 644 632 520 
3 272 639 645 
3 642 643 644 
3 793 644 785 
3 639 521 645 
3 638 791 646 
3 787 523 791 
3 788 273 523 
3 521 795 785 
3 640 649 794 
3 651 274 649 
3 278 273 274 
3 797 276 280 
3 796 522 646 
3 646 275 796 
3 275 791 797 
3 797 523 276 
3 276 523 273 
3 276 273 278 
3 798 279 525 
3 279 277 525 
3 280 277 279 
3 277 280 278 
3 796 798 650 
3 796 279 798 
3 278 651 277 
3 528 282 281 
3 282 12 526 
3 664 655 281 
3 528 655 656 
3 655 528 281 
3 529 653 7 
3 287 289 532 
3 293 658 775 
3 663 226 657 
3 294 536 806 
3 538 657 226 
3 531 530 295 
3 540 668 542 
3 542 309 541 
3 302 551 11 
3 672 527 551 
3 543 674 544 
3 13 292 291 
3 306 691 676 
3 671 552 563 
3 15 654 563 
3 654 672 563 
3 679 308 299 
3 309 678 679 
3 553 554 552 
3 319 684 568 
3 319 320 335 
3 349 568 684 
3 557 22 716 
3 674 304 329 
3 674 324 559 
3 332 547 15 
3 336 799 334 
3 394 694 31 
3 31 371 707 
3 567 707 28 
3 28 707 343 
3 697 344 682 
3 699 355 569 
3 350 355 575 
3 41 573 42 
3 34 701 700 
3 44 42 573 
3 571 360 574 
3 48 45 704 
3 74 336 705 
3 707 371 343 
3 343 576 339 
3 710 578 375 
3 712 78 581 
3 578 581 577 
3 378 384 87 
3 106 716 402 
3 389 718 594 
3 722 725 733 
3 722 734 721 
3 719 721 734 
3 723 733 394 
3 800 724 725 
3 590 589 727 
3 400 109 397 
3 597 589 590 
3 736 412 732 
3 598 732 599 
3 731 602 723 
3 592 118 416 
3 433 113 407 
3 603 431 446 
3 603 139 113 
3 605 169 738 
3 607 606 529 
3 606 607 739 
3 449 803 615 
3 467 466 1 
3 613 472 744 
3 455 185 456 
3 804 739 614 
3 614 191 747 
3 471 616 186 
3 473 740 190 
3 750 196 749 
3 201 751 199 
3 755 801 200 
3 228 538 226 
3 482 663 296 
3 490 628 488 
3 492 626 764 
3 486 759 766 
3 767 623 234 
3 767 496 495 
3 499 758 769 
3 501 770 502 
3 503 502 770 
3 503 500 240 
3 233 507 500 
3 773 630 776 
3 631 269 634 
3 515 287 293 
3 633 271 632 
3 805 778 270 
3 779 268 777 
3 773 780 630 
3 631 634 637 
3 784 781 634 
3 637 634 781 
3 780 647 636 
3 786 635 638 
3 640 641 783 
3 641 784 783 
3 784 641 781 
3 640 794 641 
3 788 523 787 
3 273 788 274 
3 647 787 638 
3 789 795 521 
3 795 524 785 
3 798 525 524 
3 525 277 792 
3 652 662 529 
3 526 281 282 
3 452 662 530 
3 662 452 453 
3 526 527 281 
3 655 657 656 
3 656 657 653 
3 529 7 652 
3 531 452 530 
3 284 775 608 
3 4 289 287 
3 287 532 658 
3 533 289 659 
3 533 532 289 
3 288 660 612 
3 659 534 533 
3 533 535 660 
3 533 534 535 
3 291 462 660 
3 462 612 660 
3 291 660 535 
3 2 659 661 
3 290 535 534 
3 290 534 2 
3 535 305 291 
3 0 3 285 
3 285 465 464 
3 658 293 287 
3 4 539 289 
3 659 539 661 
3 663 536 294 
3 5 530 662 
3 295 5 6 
3 8 806 537 
3 654 806 536 
3 536 664 654 
3 655 536 657 
3 493 482 8 
3 5 295 530 
3 668 761 542 
3 487 668 666 
3 10 665 518 
3 298 667 665 
3 299 661 667 
3 679 299 541 
3 542 680 309 
3 761 680 542 
3 669 301 300 
3 669 670 301 
3 298 665 10 
3 667 661 539 
3 527 303 551 
3 654 664 672 
3 661 543 2 
3 543 544 2 
3 559 305 544 
3 544 305 290 
3 290 2 544 
3 13 305 545 
3 291 305 13 
3 690 331 306 
3 690 306 675 
3 546 543 661 
3 682 307 547 
3 307 682 549 
3 307 15 547 
3 15 307 806 
3 537 806 307 
3 304 546 346 
3 308 546 299 
3 677 346 308 
3 308 678 677 
3 308 679 678 
3 310 678 309 
3 680 548 309 
3 550 312 681 
3 312 311 681 
3 681 9 549 
3 320 313 21 
3 553 552 551 
3 18 561 314 
3 302 553 551 
3 683 19 684 
3 683 554 553 
3 692 552 554 
3 318 554 684 
3 683 684 554 
3 684 319 318 
3 318 319 334 
3 568 320 319 
3 557 689 22 
3 689 685 22 
3 587 558 324 
3 687 323 351 
3 325 587 324 
3 685 558 587 
3 688 21 322 
3 685 686 558 
3 555 687 354 
3 557 556 569 
3 689 323 686 
3 556 557 106 
3 324 674 720 
3 560 559 558 
3 560 690 545 
3 686 328 331 
3 328 691 331 
3 688 23 562 
3 30 339 576 
3 25 547 332 
3 15 563 332 
3 564 333 332 
3 564 799 26 
3 799 564 334 
3 319 335 334 
3 335 705 336 
3 562 335 320 
3 799 336 26 
3 706 370 27 
3 693 565 724 
3 28 396 567 
3 394 31 29 
3 800 566 337 
3 694 724 565 
3 694 565 341 
3 29 31 707 
3 567 29 707 
3 396 29 567 
3 329 345 330 
3 566 347 337 
3 696 329 304 
3 347 346 677 
3 340 347 677 
3 348 340 677 
3 344 16 550 
3 550 682 344 
3 36 17 314 
3 315 568 35 
3 35 568 349 
3 354 687 698 
3 351 698 687 
3 315 35 353 
3 41 39 356 
3 43 41 356 
3 362 700 40 
3 356 701 43 
3 356 40 701 
3 357 573 41 
3 572 701 34 
3 572 43 701 
3 572 41 43 
3 33 37 573 
3 702 39 42 
3 44 703 702 
3 703 45 702 
3 702 45 359 
3 46 48 700 
3 44 573 47 
3 703 44 47 
3 703 47 574 
3 575 574 360 
3 574 575 704 
3 48 704 575 
3 38 700 48 
3 700 38 34 
3 26 336 74 
3 342 370 374 
3 371 709 343 
3 369 372 585 
3 576 369 74 
3 708 343 709 
3 711 710 382 
3 578 577 375 
3 579 376 712 
3 376 26 712 
3 581 715 577 
3 581 78 580 
3 578 710 712 
3 711 377 582 
3 383 378 377 
3 583 586 378 
3 577 586 583 
3 79 579 582 
3 582 584 79 
3 378 713 582 
3 584 713 373 
3 373 713 714 
3 714 713 586 
3 714 372 373 
3 585 714 715 
3 586 715 714 
3 715 580 585 
3 586 577 715 
3 379 387 81 
3 595 106 402 
3 22 596 403 
3 594 730 389 
3 587 718 389 
3 22 389 596 
3 596 389 730 
3 325 330 717 
3 717 718 325 
3 720 330 325 
3 802 396 107 
3 733 694 394 
3 108 802 107 
3 721 725 722 
3 721 717 395 
3 108 723 802 
3 733 725 724 
3 330 345 395 
3 395 717 330 
3 723 29 802 
3 29 723 394 
3 726 412 588 
3 112 400 727 
3 400 728 593 
3 594 412 726 
3 594 726 597 
3 589 597 726 
3 593 728 596 
3 397 402 728 
3 403 402 716 
3 728 402 403 
3 403 596 728 
3 596 730 590 
3 597 590 730 
3 736 588 412 
3 602 598 599 
3 600 602 731 
3 600 409 411 
3 406 413 601 
3 599 732 412 
3 599 722 733 
3 599 733 723 
3 108 107 409 
3 735 400 112 
3 416 440 420 
3 122 129 116 
3 424 170 423 
3 441 447 442 
3 445 180 179 
3 447 441 139 
3 803 184 606 
3 653 184 656 
3 184 653 606 
3 452 741 453 
3 803 606 804 
3 607 610 739 
3 451 450 449 
3 451 449 740 
3 803 609 184 
3 607 742 610 
3 609 528 656 
3 1 282 450 
3 450 282 528 
3 459 288 612 
3 455 741 185 
3 743 739 610 
3 456 457 455 
3 743 186 616 
3 454 457 611 
3 457 458 186 
3 457 186 743 
3 748 193 186 
3 463 744 187 
3 463 465 613 
3 613 466 467 
3 458 748 186 
3 613 744 463 
3 744 472 748 
3 613 745 472 
3 613 467 745 
3 467 451 745 
3 455 742 741 
3 743 455 457 
3 187 744 458 
3 1 466 3 
3 617 750 190 
3 190 615 617 
3 615 190 740 
3 617 615 746 
3 746 803 804 
3 616 614 739 
3 191 616 471 
3 193 471 186 
3 471 193 618 
3 748 195 193 
3 472 195 748 
3 195 472 473 
3 473 472 745 
3 196 473 749 
3 473 190 749 
3 750 617 196 
3 196 617 198 
3 801 203 752 
3 204 203 470 
3 204 474 754 
3 198 755 476 
3 756 228 619 
3 619 483 756 
3 483 7 756 
3 758 619 768 
3 227 486 805 
3 621 483 758 
3 622 764 484 
3 623 622 484 
3 226 663 623 
3 622 623 663 
3 623 228 226 
3 767 228 623 
3 486 227 759 
3 759 227 620 
3 620 6 757 
3 482 622 663 
3 757 6 5 
3 486 766 485 
3 758 229 621 
3 229 758 499 
3 487 297 485 
3 487 485 766 
3 760 628 766 
3 624 229 499 
3 499 489 624 
3 628 487 766 
3 760 624 628 
3 488 628 624 
3 624 489 488 
3 668 230 761 
3 762 761 491 
3 491 763 762 
3 763 491 488 
3 488 765 763 
3 492 482 493 
3 488 489 625 
3 765 488 625 
3 765 627 626 
3 492 494 626 
3 627 231 626 
3 764 231 484 
3 491 490 488 
3 495 768 767 
3 234 235 496 
3 234 496 767 
3 768 619 228 
3 758 768 769 
3 232 769 768 
3 769 237 499 
3 499 770 489 
3 625 489 501 
3 504 629 502 
3 629 238 625 
3 504 238 629 
3 231 627 238 
3 504 239 238 
3 504 235 239 
3 239 234 231 
3 239 235 234 
3 250 511 242 
3 236 498 241 
3 242 243 236 
3 243 244 233 
3 242 244 243 
3 771 508 507 
3 503 240 505 
3 240 507 508 
3 773 269 631 
3 515 268 4 
3 515 293 774 
3 293 775 776 
3 516 634 269 
3 269 773 776 
3 774 519 268 
3 269 776 775 
3 776 774 293 
3 516 284 531 
3 632 779 517 
3 784 516 783 
3 519 272 777 
3 10 518 778 
3 268 518 4 
3 518 268 779 
3 779 271 778 
3 783 271 633 
3 777 517 779 
3 779 632 271 
3 635 630 636 
3 631 637 780 
3 790 780 637 
3 647 780 790 
3 647 638 636 
3 789 635 786 
3 639 789 521 
3 637 788 790 
3 788 781 648 
3 641 648 781 
3 777 520 517 
3 517 520 632 
3 643 633 632 
3 272 645 777 
3 644 520 785 
3 643 632 644 
3 272 519 639 
3 642 644 793 
3 643 642 640 
3 522 786 646 
3 787 791 638 
3 648 274 788 
3 786 638 646 
3 790 788 787 
3 790 787 647 
3 791 275 646 
3 789 522 795 
3 793 785 524 
3 793 524 792 
3 642 792 649 
3 793 792 642 
3 649 640 642 
3 274 794 649 
3 648 794 274 
3 641 794 648 
3 795 650 524 
3 651 649 792 
3 522 796 650 
3 797 791 523 
3 525 792 524 
3 798 524 650 
3 277 651 792 
3 278 274 651 
3 317 553 302 
3 198 476 754 
3 498 772 241 
3 666 297 487 
3 341 565 693 
3 566 725 345 
3 461 612 462 
3 666 668 540 
3 334 692 554 
3 685 587 22 
3 611 456 185 
3 746 804 468 
3 620 757 483 
