ply
format ascii 1.0
comment VCGLIB generated
element vertex 217
property float x
property float y
property float z
element face 300
property list uchar int vertex_indices
end_header
0.0175731 5.48216 -3.72276 
0.541305 7.5323 -4.47893 
0.744747 5.97484 -4.45867 
0.524754 5.10111 -2.25444 
1.44413 8.07472 -3.28173 
1.62088 7.53343 0.0600725 
1.17127 4.49806 1.00805 
1.27817 4.96287 2.53191 
0.766767 4.39534 3.57814 
-0.197859 4.15475 2.95236 
0.0644357 4.20443 4.43543 
1.86331 6.58928 3.16707 
1.67513 7.93852 3.66602 
-0.679093 5.54508 6.55767 
1.37803 4.30347 4.33982 
1.91127 4.90657 3.95601 
1.39244 1.19092 4.39847 
1.31463 3.28969 3.29296 
1.47234 3.18094 4.09382 
1.73708 4.01732 2.76281 
1.8932 2.71199 3.65815 
1.5209 1.21304 3.76603 
1.10632 -0.0242452 4.96588 
2.13379 0.261796 4.96637 
1.80046 -0.079754 4.31523 
1.97424 0.862584 4.23758 
1.3676 0.443603 5.28921 
1.93003 0.14822 5.43046 
1.84864 6.12021 5.27174 
1.13574 8.20764 1.82754 
1.14759 7.88911 6.95602 
0.925128 8.79992 4.28753 
0.987873 9.68024 6.83198 
1.38147 7.66975 5.44077 
0.376615 9.21902 8.70806 
1.57226 8.27998 7.21509 
0.0467065 7.54041 7.7818 
0.652576 7.9601 7.85821 
0.49807 8.06413 8.51301 
0.359525 8.04583 8.19947 
0.120967 7.41047 9.06198 
0.258011 8.21836 9.96469 
0.52345 9.18635 8.2546 
0.693262 9.10107 8.30935 
0.0902697 7.28547 9.0515 
0.558804 10.4772 7.20035 
1.22385 9.69124 7.47469 
0.742655 10.3356 7.67996 
1.37837 7.14159 -4.55464 
0.37564 5.37173 -3.60331 
1.90414 7.10844 -1.80044 
1.27326 5.67685 -4.77022 
1.29686 4.45303 -4.51588 
1.88153 4.68559 -2.74212 
1.8696 6.48708 -3.94723 
1.4154 5.81934 -1.08767 
1.32384 4.8148 -1.98619 
1.32713 3.254 -3.43389 
1.02063 3.28011 -4.40574 
1.53047 2.8062 -5.40365 
1.64494 2.63074 -4.41276 
1.38477 1.71227 -5.01383 
1.31266 1.80819 -5.65437 
1.90414 1.97209 -5.33273 
1.07647 0.212061 -5.53441 
1.16794 0.115835 -4.39485 
1.68558 0.0882493 -5.37566 
1.9159 0.816681 -5.0098 
1.99523 0.17183 -4.6583 
1.24547 0.900303 -5.09334 
0.734405 8.0754 -3.94973 
0.0286614 7.55348 -4.75011 
0.281502 8.41678 -4.03412 
0.68978 7.91421 -4.96481 
0.815921 7.32756 -7.2747 
0.598809 8.52945 -7.31781 
0.0676466 6.94879 -7.58061 
0.560188 7.72589 -9.59934 
-0.0125273 6.44143 -4.34006 
-0.061479 7.34358 -4.45892 
-0.54271 5.1514 -2.44452 
-0.315265 4.31059 -0.279509 
0.470596 8.54477 -2.32734 
-0.448647 8.43508 -3.10519 
-1.42963 8.07472 -3.28173 
-1.75536 6.54657 0.535709 
-1.26372 4.96149 2.53209 
-1.31799 4.71558 0.99919 
-0.736757 4.32237 3.6367 
-1.85187 6.61226 3.17298 
-1.46753 7.57313 -0.502236 
-1.84063 6.10473 5.22115 
-0.462194 8.3826 1.11415 
-1.36327 4.31025 4.34649 
-1.89677 4.90657 3.95601 
-1.21336 3.16644 3.5567 
-1.49141 2.38485 4.1708 
-1.72402 4.01454 2.76362 
-1.8787 2.71199 3.65815 
-1.5064 1.21304 3.76603 
-1.09182 -0.0242452 4.96588 
-2.11928 0.261797 4.96637 
-1.78596 -0.079754 4.31523 
-1.95974 0.862584 4.23758 
-1.31834 1.10988 4.4453 
-1.3531 0.443603 5.28921 
-1.91553 0.14822 5.43046 
0.387161 5.82773 6.84866 
-1.13724 7.92939 6.99897 
-1.27671 8.58526 3.67907 
-1.37381 7.69241 5.41859 
-0.779311 7.25866 7.33453 
-0.524318 10.154 7.90492 
-0.416005 9.29602 8.64037 
-0.654501 8.38726 8.37962 
-1.56959 8.26235 7.20671 
0.0536079 7.31144 9.09326 
0.0960069 7.86691 9.67898 
-0.541802 8.06555 8.03585 
-0.329078 7.54461 8.85796 
-0.294729 8.1739 9.85119 
-0.513424 9.1905 8.25847 
0.0525108 7.40074 9.12825 
-0.0615202 7.28438 9.05209 
-0.42962 10.4863 7.11028 
-1.12612 10.855 8.10528 
-0.995435 9.79362 6.89348 
-1.18489 9.76851 7.48114 
-0.596666 5.58314 -4.00362 
-1.30125 5.70617 -1.17232 
-1.36387 7.14159 -4.55464 
-1.28841 5.41465 -4.63271 
-2.05991 6.49903 -3.37664 
-1.96093 5.27316 -2.37134 
-1.31061 4.82474 -1.98016 
-1.36922 3.35087 -3.32792 
-1.00613 3.28011 -4.40574 
-1.51597 2.8062 -5.40365 
-1.63044 2.63074 -4.41276 
-1.37027 1.71227 -5.01383 
-1.29816 1.80819 -5.65437 
-1.88964 1.97209 -5.33273 
-1.06197 0.212061 -5.53441 
-1.11819 0.172306 -4.53229 
-1.67508 0.0942275 -5.37491 
-1.89538 0.825602 -5.05212 
-1.89734 0.132874 -4.50393 
-1.23096 0.900302 -5.09334 
-0.348524 8.40928 -4.97632 
0.0534294 7.53842 -4.73658 
-0.675484 7.74566 -4.43002 
-0.800476 8.31146 -7.32086 
-0.66711 7.27553 -8.32793 
-0.480726 7.66518 -9.66844 
-0.0039427 8.1514 -10.0259 
1.24306 0.364055 5.16105 
1.19401 0.193093 5.32091 
1.53693 0.300964 5.34865 
1.48792 0.133509 5.50872 
1.86339 0.286141 5.31557 
1.84257 0.118508 5.48137 
2.02167 0.284119 4.91341 
2.04626 0.0774817 5.07012 
-0.0656751 7.83658 9.43318 
0.017119 7.83659 9.455 
0.35346 7.79681 8.20775 
0.40051 7.94838 8.12054 
0.353341 7.66036 8.57039 
0.355457 7.77441 8.42752 
0.329748 7.65094 8.75442 
0.297483 7.51009 8.77841 
0.239242 7.64764 9.14176 
0.224984 7.43926 8.90782 
0.398491 7.97053 8.50226 
0.407605 8.13036 8.38531 
0.37216 8.01597 8.67718 
0.364945 7.86794 8.78864 
0.289286 8.01715 9.31327 
0.263384 7.59443 9.18084 
1.96826 0.3616 -4.81693 
2.05549 0.357662 -4.67457 
1.77338 0.361581 -4.56602 
1.77082 0.194412 -4.39821 
1.39687 0.365979 -4.52024 
1.34971 0.199572 -4.35841 
1.12503 0.437438 -4.73425 
1.08029 0.266921 -4.57662 
-1.22856 0.364055 5.16105 
-1.17951 0.193093 5.32091 
-1.52243 0.300964 5.34865 
-1.47342 0.133509 5.50872 
-1.84889 0.286141 5.31557 
-1.82807 0.118508 5.48137 
-2.00717 0.284119 4.91341 
-2.03175 0.0774815 5.07012 
-0.338959 7.79681 8.20775 
-0.386009 7.94838 8.12054 
-0.33884 7.66036 8.57039 
-0.340956 7.77441 8.42752 
-0.315247 7.65094 8.75442 
-0.282982 7.51009 8.77841 
-0.224741 7.64764 9.14176 
-0.210483 7.43926 8.90782 
-0.365558 7.9584 8.55075 
-0.407825 8.05189 8.38068 
-0.357659 8.01597 8.67718 
-0.350444 7.86794 8.78864 
-0.274785 8.01715 9.31327 
-0.248883 7.59443 9.18084 
-1.95376 0.3616 -4.81693 
-2.04099 0.357663 -4.67457 
-1.75888 0.361581 -4.56602 
-1.75632 0.194412 -4.39821 
-1.38237 0.365979 -4.52024 
-1.33521 0.199572 -4.35841 
-1.11053 0.437438 -4.73425 
-1.06579 0.266921 -4.57662 
3 0 2 49 
3 2 0 79 
3 1 2 79 
3 3 55 6 
3 81 3 6 
3 49 3 0 
3 70 48 1 
3 4 48 70 
3 54 48 4 
3 50 54 4 
3 4 82 5 
3 4 5 50 
3 82 4 70 
3 72 83 82 
3 82 70 72 
3 6 8 9 
3 6 9 81 
3 5 82 29 
3 5 55 50 
3 5 6 55 
3 92 29 82 
3 107 10 14 
3 8 6 7 
3 8 10 9 
3 28 33 107 
3 11 19 7 
3 28 11 12 
3 13 10 107 
3 14 28 107 
3 12 11 5 
3 12 5 29 
3 6 11 7 
3 6 5 11 
3 19 8 7 
3 14 10 8 
3 15 11 28 
3 14 15 28 
3 19 11 15 
3 17 16 18 
3 16 17 21 
3 8 19 17 
3 14 8 18 
3 17 18 8 
3 17 19 21 
3 20 21 19 
3 25 21 20 
3 20 18 25 
3 16 25 18 
3 15 14 18 
3 19 15 20 
3 18 20 15 
3 23 25 27 
3 16 27 25 
3 21 22 16 
3 22 26 16 
3 21 24 22 
3 27 24 23 
3 27 26 22 
3 27 22 24 
3 27 16 26 
3 24 25 23 
3 24 21 25 
3 33 28 12 
3 31 33 12 
3 31 12 29 
3 29 92 31 
3 30 32 35 
3 31 45 32 
3 45 31 124 
3 30 33 32 
3 30 36 107 
3 33 30 107 
3 31 32 33 
3 31 109 124 
3 47 112 34 
3 45 112 47 
3 35 46 43 
3 35 32 46 
3 34 43 47 
3 34 120 41 
3 38 41 117 
3 39 37 38 
3 37 36 30 
3 36 37 39 
3 40 116 39 
3 39 116 36 
3 43 34 38 
3 43 46 47 
3 43 38 35 
3 35 37 30 
3 35 38 37 
3 41 38 34 
3 117 118 38 
3 118 39 38 
3 40 123 122 
3 40 44 123 
3 44 40 122 
3 47 46 32 
3 45 47 32 
3 3 56 55 
3 51 2 1 
3 51 49 2 
3 49 51 52 
3 52 58 49 
3 57 56 49 
3 3 49 56 
3 48 51 1 
3 54 51 48 
3 54 53 52 
3 52 51 54 
3 60 52 53 
3 54 50 53 
3 55 53 50 
3 56 53 55 
3 58 60 57 
3 58 61 60 
3 49 58 57 
3 59 58 52 
3 62 58 59 
3 60 59 52 
3 60 63 59 
3 57 60 53 
3 53 56 57 
3 61 58 62 
3 69 61 62 
3 64 69 62 
3 63 62 59 
3 61 63 60 
3 67 63 61 
3 69 67 61 
3 67 62 63 
3 65 64 66 
3 65 69 64 
3 65 67 69 
3 65 66 68 
3 66 62 67 
3 62 66 64 
3 68 67 65 
3 67 68 66 
3 74 73 149 
3 75 72 73 
3 72 70 73 
3 71 149 73 
3 73 70 1 
3 1 71 73 
3 71 1 79 
3 149 76 74 
3 75 73 74 
3 74 77 75 
3 77 74 76 
3 75 77 154 
3 78 0 128 
3 78 128 131 
3 79 78 131 
3 80 128 0 
3 80 3 81 
3 80 0 3 
3 150 79 130 
3 84 150 130 
3 132 84 130 
3 83 92 82 
3 92 83 84 
3 84 90 92 
3 84 132 90 
3 90 132 133 
3 133 129 90 
3 83 150 84 
3 87 81 9 
3 129 80 87 
3 81 87 80 
3 129 85 90 
3 85 129 87 
3 13 93 10 
3 88 86 87 
3 9 88 87 
3 10 88 9 
3 91 13 110 
3 89 86 97 
3 91 109 89 
3 93 13 91 
3 89 109 90 
3 90 85 89 
3 92 90 109 
3 87 86 89 
3 87 89 85 
3 97 86 88 
3 93 88 10 
3 94 91 89 
3 93 91 94 
3 97 94 89 
3 99 96 104 
3 96 99 95 
3 88 95 97 
3 95 93 96 
3 93 95 88 
3 95 99 97 
3 98 97 99 
3 103 98 99 
3 98 103 96 
3 94 96 93 
3 97 98 94 
3 96 94 98 
3 101 106 103 
3 96 103 104 
3 104 103 106 
3 99 104 100 
3 100 104 105 
3 99 100 102 
3 106 101 102 
3 106 100 105 
3 106 102 100 
3 106 105 104 
3 102 101 103 
3 102 103 99 
3 111 107 36 
3 110 13 111 
3 110 109 91 
3 31 92 109 
3 13 107 111 
3 108 115 126 
3 111 36 108 
3 126 124 109 
3 108 126 110 
3 111 108 110 
3 109 110 126 
3 124 112 45 
3 115 113 127 
3 115 127 126 
3 113 112 127 
3 34 112 113 
3 120 34 113 
3 120 114 118 
3 118 108 36 
3 119 118 36 
3 119 36 116 
3 113 115 114 
3 115 108 118 
3 115 118 114 
3 120 113 114 
3 118 117 120 
3 39 118 119 
3 119 40 39 
3 119 116 40 
3 41 120 117 
3 116 44 122 
3 116 122 123 
3 123 44 116 
3 124 125 112 
3 125 126 127 
3 124 126 125 
3 112 125 127 
3 128 80 136 
3 131 128 136 
3 134 80 129 
3 130 79 131 
3 132 130 131 
3 132 131 133 
3 138 133 131 
3 133 134 129 
3 80 134 135 
3 135 136 80 
3 136 135 138 
3 136 138 139 
3 137 131 136 
3 140 137 136 
3 138 131 137 
3 138 137 141 
3 135 133 138 
3 133 135 134 
3 139 140 136 
3 147 140 139 
3 142 140 147 
3 141 137 140 
3 139 138 141 
3 145 139 141 
3 147 139 145 
3 145 141 140 
3 143 144 142 
3 143 142 147 
3 143 147 145 
3 145 146 143 
3 143 146 144 
3 144 145 140 
3 140 142 144 
3 145 144 146 
3 150 148 151 
3 150 83 148 
3 72 148 83 
3 79 150 149 
3 76 149 150 
3 150 151 152 
3 152 76 150 
3 75 151 148 
3 148 72 75 
3 153 152 151 
3 76 153 77 
3 153 76 152 
3 151 75 154 
3 77 153 154 
3 154 153 151 
